<?xml version="1.0" encoding="UTF-8" standalone="no"?>
<svg
   xmlns:dc="http://purl.org/dc/elements/1.1/"
   xmlns:cc="http://creativecommons.org/ns#"
   xmlns:rdf="http://www.w3.org/1999/02/22-rdf-syntax-ns#"
   xmlns:svg="http://www.w3.org/2000/svg"
   xmlns="http://www.w3.org/2000/svg"
   viewBox="0 0 793.70081 1122.5197"
   height="1122.5197"
   width="793.70081"
   xml:space="preserve"
   id="svg2"
   version="1.1"><metadata
     id="metadata8"><rdf:RDF><cc:Work
         rdf:about=""><dc:format>image/svg+xml</dc:format><dc:type
           rdf:resource="http://purl.org/dc/dcmitype/StillImage" /></cc:Work></rdf:RDF></metadata><defs
     id="defs6" /><g
     transform="matrix(1.3333333,0,0,1.3333333,0,4.2729659e-5)"
     id="g10"><g
       transform="scale(0.75)"
       id="g12"><g
         id="g14"><g
           id="g16"><g
             id="g18"><g
               id="g20"><text
                 id="text24"
                 style="font-variant:normal;font-weight:bold;font-size:40px;font-family:'DejaVu Serif';-inkscape-font-specification:DejaVu-Serif-Bold;writing-mode:lr-tb;fill:#191970;fill-opacity:1;fill-rule:nonzero;stroke:none"
                 transform="translate(83,139.35859)"><tspan
                   id="tspan22"
                   y="0"
                   x="0 28.4 43.599998 58.799999 84.239998 98.160004 134.72 160.64 202.96001 218.16 247.24001 275.20001 289.12 318 336.48001 362.39999 391.48001 419.44 445.35999 466.44 494.39999">File Naming Standards</tspan></text>
<text
                 id="text28"
                 style="font-variant:normal;font-weight:bold;font-size:20px;font-family:'DejaVu Serif';-inkscape-font-specification:DejaVu-Serif-Bold;writing-mode:lr-tb;fill:#000000;fill-opacity:1;fill-rule:nonzero;stroke:none"
                 transform="translate(83,194.37148)"><tspan
                   id="tspan26"
                   y="0"
                   x="0 15.04 29.58 40.119999 54.099998 67.440002 78.699997 91.419998">Purpose:</tspan></text>
<text
                 id="text32"
                 style="font-variant:normal;font-size:20px;font-family:'DejaVu Serif';-inkscape-font-specification:DejaVu-Serif;writing-mode:lr-tb;fill:#000000;fill-opacity:1;fill-rule:nonzero;stroke:none"
                 transform="translate(188.16859,194.37148)"><tspan
                   id="tspan30"
                   y="0"
                   x="0 11.8 23.84 30.200001 41.400002 50.959999 62.799999 74.720001 82.760002 94.599998 100.96 112.88 119.24 129.5 137.53999 147.10001 158.94 170.86 189.82001 196.22 202.62 215.5 227.34 240.14 246.5 258.42001 271.29999 284.10001 290.45999 301.66 313.70001 326.57999 336.84 343.23999 353.5 361.54001 373.38 386.26001 394.29999 400.66 410.92001 418.95999 428.51999 441.39999 452.60001 460.64001 473.51999 483.07999">To create a streamlined and consistent structure</tspan></text>
<text
                 id="text36"
                 style="font-variant:normal;font-size:20px;font-family:'DejaVu Serif';-inkscape-font-specification:DejaVu-Serif;writing-mode:lr-tb;fill:#000000;fill-opacity:1;fill-rule:nonzero;stroke:none"
                 transform="translate(83,217.65273)"><tspan
                   id="tspan34"
                   y="0"
                   x="0 7.4000001 19.440001 29 35.360001 48.16 57.720001 69.760002 75.959999 87.800003 99 107.04 113.4 126.74 133.14 144.98 151.34 161.60001 169.64 181.67999 191.24001 203.16 215.96001 227.8 234.16 240.52 252.36 265.23999 275.5 288.38 297.94 304.34 317.22 330.01999 336.38 348.29999 354.70001 361.10001 367.45999 375.5 387.34 399.26001 418.22 424.57999 443.54001 455.38 474.34 487.14001 498.98001 508.54001 518.79999 525.15997 536.35999 548.28003 561.15997 567.52002 579.35999 591.28003 601.53998 607.94 614.34003">for project fle storage, ensuring all team members can easily</tspan></text>
<text
                 id="text40"
                 style="font-variant:normal;font-size:20px;font-family:'DejaVu Serif';-inkscape-font-specification:DejaVu-Serif;writing-mode:lr-tb;fill:#000000;fill-opacity:1;fill-rule:nonzero;stroke:none"
                 transform="translate(83,240.93398)"><tspan
                   id="tspan38"
                   y="0"
                   x="0 6.4000001 18.440001 29.639999 41.560001 49.599998 61.439999 67.800003 80.599998 92.639999 103.84 116.72 135.67999 147.52 160.39999 168.44 178.7 185.06 191.42 199.46001 209.02 220.94 232.14 244.25999 250.62 263.42001 272.98001 285.01999 297.82001 307.38 319.22 329.48001 339.73999 346.10001 352.45999 364.38 377.26001 390.06 396.42001 408.34 417.89999 429.10001 441.98001 448.38 459.67999 471.51999 477.88 489.07999 501.12 520.08002 532.88 539.28003 551.12 559.15997 571">locate documents, track progress, and archive completed</tspan></text>
<text
                 id="text44"
                 style="font-variant:normal;font-size:20px;font-family:'DejaVu Serif';-inkscape-font-specification:DejaVu-Serif;writing-mode:lr-tb;fill:#000000;fill-opacity:1;fill-rule:nonzero;stroke:none"
                 transform="translate(83,264.21523)"><tspan
                   id="tspan42"
                   y="0"
                   x="0 17.120001 29.16 38.720001 50.84">work.</tspan></text>
<text
                 id="text48"
                 style="font-variant:normal;font-weight:bold;font-size:30px;font-family:'DejaVu Serif';-inkscape-font-specification:DejaVu-Serif-Bold;writing-mode:lr-tb;fill:#191970;fill-opacity:1;fill-rule:nonzero;stroke:none"
                 transform="translate(83,322.00098)"><tspan
                   id="tspan46"
                   y="0"
                   x="0 20.879999 31.32 41.759998 69.18 88.620003 120.36 131.75999 153.57001 174.53999 184.98 208.86 228.87 250.67999 268.10999 287.19 309 322.85999 334.26001 354.26999 376.07999">1. Naming Conventions</tspan></text>
<text
                 id="text52"
                 style="font-variant:normal;font-weight:bold;font-size:23.39999962px;font-family:'DejaVu Serif';-inkscape-font-specification:DejaVu-Serif-Bold;writing-mode:lr-tb;fill:#000000;fill-opacity:1;fill-rule:nonzero;stroke:none"
                 transform="translate(83,375.94785)"><tspan
                   id="tspan50"
                   y="0"
                   x="0 17.5968 29.9286 45.5364 54.007198 68.889603 83.140198 93.950996">Projects</tspan></text>
<text
                 id="text56"
                 style="font-variant:normal;font-size:20px;font-family:'DejaVu Serif';-inkscape-font-specification:DejaVu-Serif;writing-mode:lr-tb;fill:#000000;fill-opacity:1;fill-rule:nonzero;stroke:none"
                 transform="translate(83,423.43086)"><tspan
                   id="tspan54"
                   y="0"
                   x="0 14.6 26.52 37.720001 50.599998 56.959999 69.760002 79.32 91.360001 97.559998 109.4 120.6 128.64 135 142.39999 154.44 160.84 173.64 185.48 195.03999 201.39999 211.66 224.53999 236.58 249.46001 255.86 268.66 275.01999 287.82001 299.66 312.45999 318.85999 331.73999 338.10001 355.22 361.62 369.66 382.54001 388.89999 400.82001 407.17999 420.06 432.94 439.34 452.14001 465.01999 476.85999 483.22 496.01999 505.57999 517.62 523.82001 535.65997 546.85999 554.90002 561.26001 572.46002 584.5 597.29999 609.14001">Each project folder should begin with a unique project code,</tspan></text>
<text
                 id="text60"
                 style="font-variant:normal;font-size:20px;font-family:'DejaVu Serif';-inkscape-font-specification:DejaVu-Serif;writing-mode:lr-tb;fill:#000000;fill-opacity:1;fill-rule:nonzero;stroke:none"
                 transform="translate(83,446.71211)"><tspan
                   id="tspan58"
                   y="0"
                   x="0 7.4000001 19.440001 25.84 32.240002 44.279999 61.400002 73.239998 86.040001 92.400002 105.2 116.5 122.86 130.89999 143.78 155.62 161.98 174.78 187.66 199.58 209.14 217.17999 229.02 238.58 245.32001 256.62 268.45999 280.38 287.76001 294.12 300.48001 312.39999 325.28 338.07999 344.44 357.78 370.66 382.57999 388.98001 395.38 406.67999 413.04001 421.07999 433.95999 445.79999 452.16 464.95999 477 488.20001 501.07999 520.03998 531.88 544.76001 552.79999 559.15997">followed by the quarter/year, and fnally the document’s</tspan></text>
<text
                 id="text64"
                 style="font-variant:normal;font-size:20px;font-family:'DejaVu Serif';-inkscape-font-specification:DejaVu-Serif;writing-mode:lr-tb;fill:#000000;fill-opacity:1;fill-rule:nonzero;stroke:none"
                 transform="translate(83,469.99336)"><tspan
                   id="tspan62"
                   y="0"
                   x="0 11.2 23.24 36.119999 44.16 56 68.879997 76.919998 83.279999 91.32 102.62 115.42 127.26">content type.</tspan></text>
<text
                 id="text68"
                 style="font-variant:normal;font-weight:bold;font-size:20px;font-family:'DejaVu Serif';-inkscape-font-specification:DejaVu-Serif-Bold;writing-mode:lr-tb;fill:#000000;fill-opacity:1;fill-rule:nonzero;stroke:none"
                 transform="translate(83,496.09004)"><tspan
                   id="tspan66"
                   y="0"
                   x="0 13.12 26.459999 37 58.16 71.120003 80.360001">Format:</tspan></text>
<text
                 id="text72"
                 style="font-variant:normal;font-size:20px;font-family:'Noto Sans Mono';-inkscape-font-specification:Noto-Sans-Mono;writing-mode:lr-tb;fill:#000000;fill-opacity:1;fill-rule:nonzero;stroke:none"
                 transform="translate(177.08203,496.09004)"><tspan
                   id="tspan70"
                   y="0"
                   x="0 12 24 36 48 60 72 84 96 108 120 132 144 156 168 180 192 204 216 228 240 252 264 276 288 300 312 324 336 348 360 372 384 396 408">ProjectCode_YearQuarter_ContentType</tspan></text>
<text
                 id="text76"
                 style="font-variant:normal;font-weight:bold;font-size:20px;font-family:'DejaVu Serif';-inkscape-font-specification:DejaVu-Serif-Bold;writing-mode:lr-tb;fill:#000000;fill-opacity:1;fill-rule:nonzero;stroke:none"
                 transform="translate(83,523.33027)"><tspan
                   id="tspan74"
                   y="0"
                   x="0 15.24 27.16 40.119999 61.279999 75.260002 82.860001 95.580002">Example:</tspan></text>
<text
                 id="text80"
                 style="font-variant:normal;font-size:20px;font-family:'Noto Sans Mono';-inkscape-font-specification:Noto-Sans-Mono;writing-mode:lr-tb;fill:#000000;fill-opacity:1;fill-rule:nonzero;stroke:none"
                 transform="translate(192.33594,523.33027)"><tspan
                   id="tspan78"
                   y="0"
                   x="0 12 24 36 48 60 72 84 96 108 120 132 144 156 168 180 192 204 216 228 240">PRJ5678_2023Q4_Report</tspan></text>
<text
                 id="text84"
                 style="font-variant:normal;font-weight:bold;font-size:23.39999962px;font-family:'DejaVu Serif';-inkscape-font-specification:DejaVu-Serif-Bold;writing-mode:lr-tb;fill:#000000;fill-opacity:1;fill-rule:nonzero;stroke:none"
                 transform="translate(83,574.5623)"><tspan
                   id="tspan82"
                   y="0"
                   x="0 20.2878 35.451 46.261799 61.144199">Dates</tspan></text>
<text
                 id="text88"
                 style="font-variant:normal;font-size:20px;font-family:'DejaVu Serif';-inkscape-font-specification:DejaVu-Serif;writing-mode:lr-tb;fill:#000000;fill-opacity:1;fill-rule:nonzero;stroke:none"
                 transform="translate(83,622.04531)"><tspan
                   id="tspan86"
                   y="0"
                   x="0 12.8 24.84 34.400002 40.759998 53.560001 65.599998 76.800003 89.68 108.64 120.48 133.36 141.39999 151.66 158.02 167.58 179.42 192.22 205.10001 211.5 221.06 227.46001 240.34 253.14 259.5 269.76001 282.56 294.39999 305.60001 312 325.34 336.54001 342.89999 355.70001 367.62 375.66 387.5 397.76001 404.12 411.92001 422.17999 435.06 446.26001 459.14001 465.5 477.42001 487.67999 494.04001 513 524.84003 536.67999 544.71997 551.12 564">For documents requiring specifc dates (such as meeting</tspan></text>
<text
                 id="text92"
                 style="font-variant:normal;font-size:20px;font-family:'DejaVu Serif';-inkscape-font-specification:DejaVu-Serif;writing-mode:lr-tb;fill:#000000;fill-opacity:1;fill-rule:nonzero;stroke:none"
                 transform="translate(83,648.14199)"><tspan
                   id="tspan90"
                   y="0"
                   x="0 18.959999 25.360001 38.240002 51.119999 59.16 71 81.260002 87.620003 99.660004 109.22 115.58 134.53999 140.94 147.34 159.17999 169.44 177.48 189.52 202.39999 214.24001 220.60001 233.48 246.28 259.07999 271 279.04001 290.88 301.14001 308.94 315.29999 321.66 333.57999 346.38 359.17999 371.01999 383.89999 396.70001 403.06 411.10001 423.98001 435.82001 442.17999 454.98001 466.89999 474.94 486.78 493.14001 499.54001 512.41998">minutes or milestone updates), append the date in </tspan></text>
<text
                 id="text96"
                 style="font-variant:normal;font-size:20px;font-family:'Noto Sans Mono';-inkscape-font-specification:Noto-Sans-Mono;writing-mode:lr-tb;fill:#000000;fill-opacity:1;fill-rule:nonzero;stroke:none"
                 transform="translate(601.75977,648.14199)"><tspan
                   id="tspan94"
                   y="0"
                   x="0 12 24 36 48 60 72 84">YYYYMMDD</tspan></text>
<text
                 id="text100"
                 style="font-variant:normal;font-size:20px;font-family:'DejaVu Serif';-inkscape-font-specification:DejaVu-Serif;writing-mode:lr-tb;fill:#000000;fill-opacity:1;fill-rule:nonzero;stroke:none"
                 transform="translate(83,672.5668)"><tspan
                   id="tspan98"
                   y="0"
                   x="0 7.4000001 19.440001 29 47.959999 59.880001 67.919998 74.279999 86.199997 94.239998 100.6 108.64 121.52 133.36 139.72 151.56 164.44 177.24001 183.60001 195.64 203.03999 209.39999 217.44 230.32001 242.16 248.52 261.85999 268.26001 280.10001 286.45999 299.34 311.26001 330.22 342.06">format at the end of the fle name.</tspan></text>
<text
                 id="text104"
                 style="font-variant:normal;font-weight:bold;font-size:20px;font-family:'DejaVu Serif';-inkscape-font-specification:DejaVu-Serif-Bold;writing-mode:lr-tb;fill:#000000;fill-opacity:1;fill-rule:nonzero;stroke:none"
                 transform="translate(83,698.66348)"><tspan
                   id="tspan102"
                   y="0"
                   x="0 15.24 27.16 40.119999 61.279999 75.260002 82.860001 95.580002">Example:</tspan></text>
<text
                 id="text108"
                 style="font-variant:normal;font-size:20px;font-family:'Noto Sans Mono';-inkscape-font-specification:Noto-Sans-Mono;writing-mode:lr-tb;fill:#000000;fill-opacity:1;fill-rule:nonzero;stroke:none"
                 transform="translate(192.33594,698.66348)"><tspan
                   id="tspan106"
                   y="0"
                   x="0 12 24 36 48 60 72 84 96 108 120 132 144 156 168 180 192 204 216 228 240 252 264 276 288 300 312 324 336 348 360 372 384 396 408 420 432 444">PRJ5678_2023Q4_MeetingMinutes_20231015</tspan></text>
<text
                 id="text112"
                 style="font-variant:normal;font-weight:bold;font-size:23.39999962px;font-family:'DejaVu Serif';-inkscape-font-specification:DejaVu-Serif-Bold;writing-mode:lr-tb;fill:#000000;fill-opacity:1;fill-rule:nonzero;stroke:none"
                 transform="translate(83,749.89551)"><tspan
                   id="tspan110"
                   y="0"
                   x="0 17.5968 29.9286 45.5364 54.007198 68.889603 83.140198 93.950996 102.0942 119.691 136.7028 151.866 165.04021 179.92261">Project Phases</tspan></text>
<text
                 id="text116"
                 style="font-variant:normal;font-size:20px;font-family:'DejaVu Serif';-inkscape-font-specification:DejaVu-Serif;writing-mode:lr-tb;fill:#000000;fill-opacity:1;fill-rule:nonzero;stroke:none"
                 transform="translate(83,797.37852)"><tspan
                   id="tspan114"
                   y="0"
                   x="0 20.219999 26.620001 34.66 47.540001 53.939999 66.82 73.18 85.019997 96.940002 108.14 121.02 127.38 140.17999 149.74001 161.78 167.98 179.82001 191.02 199.06 205.42 212.82001 224.86 231.25999 244.06 255.89999 263.28 269.64001 276 288.04001 297.60001 310.39999 322.32001 335.20001 341.60001 352.14001 363.98001 370.34 383.67999 390.07999 401.92001 412.17999 418.54001 431.34 442.64001 449 457.04001 469.92001 481.76001 488.12 498.38 511.17999 523.02002 534.21997 540.62 553.96002">Within each project folder, organize fles by the specifc</tspan></text>
<text
                 id="text120"
                 style="font-variant:normal;font-size:20px;font-family:'DejaVu Serif';-inkscape-font-specification:DejaVu-Serif;writing-mode:lr-tb;fill:#000000;fill-opacity:1;fill-rule:nonzero;stroke:none"
                 transform="translate(83,823.47519)"><tspan
                   id="tspan118"
                   y="0"
                   x="0 12.8 22.360001 34.400002 40.599998 52.439999 63.639999 71.68 78.040001 90.839996 103.72 115.64 125.9 137.74001 144.10001 150.46001 165.75999 177.8 196.75999 215.72 227.75999 240.64 247 259.79999 272.67999 284.60001 294.85999 306.70001 316.95999 323.32001 329.72 342.60001 353.79999 360.20001 373.07999 385.88 397.72 404.45999 410.82001 417.57999">project phase. Common phases include: - </tspan></text>
<text
                 id="text124"
                 style="font-variant:normal;font-size:20px;font-family:'Noto Sans Mono';-inkscape-font-specification:Noto-Sans-Mono;writing-mode:lr-tb;fill:#000000;fill-opacity:1;fill-rule:nonzero;stroke:none"
                 transform="translate(506.94531,823.47519)"><tspan
                   id="tspan122"
                   y="0"
                   x="0 12 24 36 48 60 72 84 96 108 120 132 144 156 168">Phase1_Research</tspan></text>
<text
                 id="text128"
                 style="font-variant:normal;font-size:20px;font-family:'DejaVu Serif';-inkscape-font-specification:DejaVu-Serif;writing-mode:lr-tb;fill:#000000;fill-opacity:1;fill-rule:nonzero;stroke:none"
                 transform="translate(693.30531,823.47519)"><tspan
                   id="tspan126"
                   y="0"
                   x="0 6.7600002">- </tspan></text>
<text
                 id="text132"
                 style="font-variant:normal;font-size:20px;font-family:'Noto Sans Mono';-inkscape-font-specification:Noto-Sans-Mono;writing-mode:lr-tb;fill:#000000;fill-opacity:1;fill-rule:nonzero;stroke:none"
                 transform="translate(83,850.71543)"><tspan
                   id="tspan130"
                   y="0"
                   x="0 12 24 36 48 60 72 84 96 108 120 132 144">Phase2_Design</tspan></text>
<text
                 id="text136"
                 style="font-variant:normal;font-size:20px;font-family:'DejaVu Serif';-inkscape-font-specification:DejaVu-Serif;writing-mode:lr-tb;fill:#000000;fill-opacity:1;fill-rule:nonzero;stroke:none"
                 transform="translate(245.36,850.71543)"><tspan
                   id="tspan134"
                   y="0"
                   x="0 6.7600002">- </tspan></text>
<text
                 id="text140"
                 style="font-variant:normal;font-size:20px;font-family:'Noto Sans Mono';-inkscape-font-specification:Noto-Sans-Mono;writing-mode:lr-tb;fill:#000000;fill-opacity:1;fill-rule:nonzero;stroke:none"
                 transform="translate(258.47266,850.71543)"><tspan
                   id="tspan138"
                   y="0"
                   x="0 12 24 36 48 60 72 84 96 108 120 132 144 156 168 180 192 204 216 228 240">Phase3_Implementation</tspan></text>
<text
                 id="text144"
                 style="font-variant:normal;font-size:20px;font-family:'DejaVu Serif';-inkscape-font-specification:DejaVu-Serif;writing-mode:lr-tb;fill:#000000;fill-opacity:1;fill-rule:nonzero;stroke:none"
                 transform="translate(516.83266,850.71543)"><tspan
                   id="tspan142"
                   y="0"
                   x="0 6.7600002">- </tspan></text>
<text
                 id="text148"
                 style="font-variant:normal;font-size:20px;font-family:'Noto Sans Mono';-inkscape-font-specification:Noto-Sans-Mono;writing-mode:lr-tb;fill:#000000;fill-opacity:1;fill-rule:nonzero;stroke:none"
                 transform="translate(83,877.95566)"><tspan
                   id="tspan146"
                   y="0"
                   x="0 12 24 36 48 60 72 84 96 108 120 132 144 156 168 180 192">Phase4_Evaluation</tspan></text>
<text
                 id="text152"
                 style="font-variant:normal;font-size:20px;font-family:'DejaVu Serif';-inkscape-font-specification:DejaVu-Serif;writing-mode:lr-tb;fill:#000000;fill-opacity:1;fill-rule:nonzero;stroke:none"
                 transform="translate(83,922.38047)"><tspan
                   id="tspan150"
                   y="0"
                   x="0 13.34 26.219999 32.619999 42.880001 49.240002 62.119999 73.959999 80.360001 93.160004 103.42 109.78 117.82 129.86 136.22 148.34 160.17999 172.02 184.82001 191.17999 203.10001 209.46001 220.66 227.06 238.89999 250.82001 260.38 266.73999 283.85999 295.89999 305.45999 317.57999 330.92001 342.95999 360.07999 366.44 378.35999 391.23999 404.04001 410.39999 422.32001 428.72 435.12 447.16 464.28 474.54001 480.89999 488.94 500.78 512.70001">This helps to keep a clear workfow and allows team</tspan></text>
<text
                 id="text156"
                 style="font-variant:normal;font-size:20px;font-family:'DejaVu Serif';-inkscape-font-specification:DejaVu-Serif;writing-mode:lr-tb;fill:#000000;fill-opacity:1;fill-rule:nonzero;stroke:none"
                 transform="translate(83,945.66172)"><tspan
                   id="tspan154"
                   y="0"
                   x="0 18.959999 30.799999 49.759998 62.560001 74.400002 83.959999 94.220001 100.58 108.62 120.66 127.02 139.89999 152.78 165.58 177.42 186.98 197.24001 205.28 217.2 230.08 242.88 249.24001 257.28 270.16 282 288.35999 301.16 310.72 322.76001 328.95999 340.79999 352 360.04001 366.39999 376.66 383.01999 394.22 407.10001 416.66 426.22 438.06 450.94 458.98001 465.34 478.14001 491.01999 502.94 513.20001 525.03998 531.40002 543.32001 551.35999 557.71997">members to understand the project’s current phase at a</tspan></text>
<text
                 id="text160"
                 style="font-variant:normal;font-size:20px;font-family:'DejaVu Serif';-inkscape-font-specification:DejaVu-Serif;writing-mode:lr-tb;fill:#000000;fill-opacity:1;fill-rule:nonzero;stroke:none"
                 transform="translate(83,968.94297)"><tspan
                   id="tspan158"
                   y="0"
                   x="0 12.8 19.200001 31.120001 44 55.200001 67.040001">glance.</tspan></text>
</g></g></g></g></g></g></svg>