<svg width="27" height="34" viewBox="0 0 27 34" fill="none" xmlns="http://www.w3.org/2000/svg">
<path d="M21.2214 30.4771L16.9272 32.9194L16.9153 32.9243L16.8979 32.9322C16.7368 33.0056 16.5569 33.0176 16.3986 32.9769C16.2236 32.9304 16.0889 32.8282 16.0085 32.695C16.0081 32.6943 16.0077 32.6937 16.0073 32.693L11.8291 25.6009L11.1387 24.4289L10.2261 25.4375L6.25006 29.8313C6.25002 29.8314 6.24997 29.8314 6.24993 29.8315C5.77295 30.3583 5.26495 30.7158 4.83278 30.8872L4.83212 30.8875C4.50902 31.0159 4.2461 31.0337 4.04481 30.9926C3.83694 30.9486 3.6579 30.8408 3.50321 30.5994L3.50296 30.599C3.37732 30.4031 3.25575 30.081 3.2172 29.5719L3.21703 29.5697L1.00009 1.14341L1.00004 1.13975C0.999389 1.09896 1.00743 1.07561 1.01151 1.06681L1.0116 1.06685L1.01734 1.05398C1.02454 1.03784 1.0352 1.0223 1.04758 1.00933C1.08065 0.999104 1.10247 0.999428 1.11209 1.00055L1.11208 1.00064L1.12503 1.00198C1.15981 1.00558 1.18446 1.01479 1.20041 1.02372L1.2338 1.04242L1.24269 1.04654L1.26767 1.06338L25.118 17.1418C25.1181 17.1419 25.1182 17.142 25.1183 17.142C25.5493 17.4333 25.7753 17.7006 25.8881 17.9088C26.0204 18.154 26.0232 18.3497 25.9597 18.5407L25.9582 18.5452C25.9004 18.7219 25.7594 18.9324 25.4818 19.1471C25.1218 19.4256 24.5552 19.6814 23.8509 19.8253C23.848 19.8259 23.8449 19.8264 23.8416 19.827C23.8295 19.8292 23.8141 19.8322 23.7962 19.8363L17.9896 21.0196L16.6229 21.2981L17.3253 22.5031L21.4755 29.6222C21.4755 29.6223 21.4755 29.6223 21.4755 29.6223C21.55 29.7502 21.5708 29.9085 21.5267 30.0702C21.4836 30.2269 21.3841 30.3713 21.2386 30.4674L21.2214 30.4771ZM23.889 19.8194L23.8829 19.8203C23.8874 19.8196 23.8911 19.8191 23.889 19.8194Z" fill="white" stroke="black" stroke-width="2"/>
</svg>
