<svg width="12" height="15" viewBox="0 0 12 15" fill="none" xmlns="http://www.w3.org/2000/svg">
<path d="M9.40564 13.3939L7.50012 14.4697L7.49706 14.4709L7.48841 14.4748C7.42834 14.502 7.36077 14.5065 7.30165 14.4916C7.23595 14.4742 7.18887 14.4372 7.16175 14.3927C7.16157 14.3924 7.16139 14.3921 7.16121 14.3918L5.30444 11.2632L4.95984 10.6826L4.50496 11.1816L2.73785 13.12C2.73783 13.1201 2.73781 13.1201 2.73779 13.1201C2.53029 13.3476 2.31129 13.4996 2.12859 13.5716L2.12826 13.5717C1.99237 13.6253 1.88596 13.6311 1.80833 13.6155C1.72975 13.5989 1.66305 13.5598 1.60285 13.4666L1.60273 13.4664C1.55354 13.3903 1.50179 13.2586 1.48524 13.0417L1.48515 13.0406L0.500004 0.501529C0.500003 0.501476 0.500003 0.501424 0.500002 0.501372C0.505226 0.502376 0.507605 0.503656 0.507745 0.503733L0.524397 0.512989L0.526295 0.513862L0.533773 0.518866L11.1339 7.61227C11.3204 7.73742 11.4135 7.84914 11.4578 7.93058L11.8967 7.69157L11.4577 7.93025C11.5086 8.02387 11.5079 8.0924 11.4853 8.16013L11.4845 8.16237C11.4636 8.22591 11.4097 8.30979 11.2927 8.39964C11.1411 8.51605 10.8977 8.62615 10.5907 8.68855C10.5895 8.68876 10.5883 8.68898 10.587 8.68922C10.5811 8.69027 10.5737 8.69172 10.5651 8.69365L7.98497 9.21556L7.29805 9.35452L7.65295 9.95884L9.49746 13.0996C9.52171 13.141 9.52953 13.1934 9.51413 13.2496C9.49903 13.3043 9.4639 13.3558 9.41162 13.3905L9.40564 13.3939Z" fill="white" stroke="black"/>
</svg>
