<?xml version="1.0" encoding="UTF-8" standalone="no"?><!DOCTYPE svg PUBLIC "-//W3C//DTD SVG 1.1//EN" "http://www.w3.org/Graphics/SVG/1.1/DTD/svg11.dtd"><svg width="100%" height="100%" viewBox="0 0 330 330" version="1.1" xmlns="http://www.w3.org/2000/svg" xmlns:xlink="http://www.w3.org/1999/xlink" xml:space="preserve" xmlns:serif="http://www.serif.com/" style="fill-rule:evenodd;clip-rule:evenodd;stroke-linejoin:round;stroke-miterlimit:2;"><g id="Adventurer"><path d="M202.956,202.959c-88.397,88.397 -177.056,143.272 -197.862,122.466c-20.806,-20.805 34.07,-109.464 122.467,-197.861c88.397,-88.397 177.056,-143.273 197.862,-122.467c20.806,20.806 -34.07,109.465 -122.467,197.862Zm-8.304,-8.305c-68.924,68.924 -138.053,111.711 -154.275,95.489c-16.223,-16.223 26.564,-85.351 95.488,-154.275c68.924,-68.924 138.053,-111.711 154.275,-95.489c16.223,16.223 -26.564,85.351 -95.488,154.275Z" style="fill:#f8f100;"/><g transform="matrix(-1,1.22465e-16,-1.22465e-16,-1,4932.46,1100.86)"><g transform="matrix(556.626,0,0,556.626,4915.06,1057.22)"></g><text x="4616.63px" y="1057.22px" style="font-family:'Bahnschrift-Regular', 'Bahnschrift';font-size:556.626px;fill:#0d79f2;">e</text></g><path d="M311.431,0.738l-32.201,36.243c-27.01,0.865 -86.102,41.624 -143.365,98.887c-68.924,68.924 -111.711,138.052 -95.488,154.275c4.514,4.514 13.386,4.55 25.927,0.104l-27.958,35.313c-16.084,5.701 -27.462,5.655 -33.252,-0.135c-20.806,-20.805 34.07,-109.464 122.467,-197.861c73.441,-73.442 149.229,-125.717 183.87,-126.826Z" style="fill:#f8f100;"/></g></svg>