<?xml version="1.0" encoding="UTF-8" standalone="no"?>
<!DOCTYPE svg PUBLIC "-//W3C//DTD SVG 1.1//EN" "http://www.w3.org/Graphics/SVG/1.1/DTD/svg11.dtd">
<svg width="100%" height="100%" viewBox="0 0 353 321" version="1.1" xmlns="http://www.w3.org/2000/svg" xmlns:xlink="http://www.w3.org/1999/xlink" xml:space="preserve" xmlns:serif="http://www.serif.com/" style="fill-rule:evenodd;clip-rule:evenodd;stroke-linejoin:round;stroke-miterlimit:2;">
    <g transform="matrix(1,0,0,1,-513,-430)">
        <g id="BowerApp" transform="matrix(0.580363,0,0,0.580363,453.545,229.124)">
            <g transform="matrix(1.445,0,0,1.445,-227.796,-399.087)">
                <circle cx="457.801" cy="706.956" r="190.653" style="fill:#e66854;"/>
            </g>
            <g transform="matrix(0.707107,0.707107,-0.707107,0.707107,567.184,-124.375)">
                <path d="M433.726,346.971L433.726,622.464L238.923,817.268C187.258,765.603 158.233,695.53 158.233,622.464C158.233,470.313 281.575,346.971 433.726,346.971Z" style="fill:#c95d56;"/>
            </g>
            <g transform="matrix(1.11022e-16,-1,1,1.11022e-16,-188.738,1056.19)">
                <path d="M433.726,346.971L433.726,622.464L238.923,817.268C187.258,765.603 158.233,695.53 158.233,622.464C158.233,470.313 281.575,346.971 433.726,346.971Z" style="fill:#db503b;"/>
            </g>
            <g transform="matrix(1.03768,0,0,0.962178,-152.814,-64.0091)">
                <path d="M608.746,563.497L608.746,877.613C608.746,890.582 598.984,901.11 586.959,901.11L269.423,901.11C257.399,901.11 247.636,890.582 247.636,877.613L247.636,563.497C247.636,550.529 257.399,540 269.423,540L586.959,540C598.984,540 608.746,550.529 608.746,563.497Z" style="fill:#b34d4d;"/>
            </g>
            <g transform="matrix(1,0,0,1,-143.483,-98.091)">
                <path d="M608.746,573.355L608.746,867.755C608.746,886.164 593.8,901.11 575.391,901.11L280.991,901.11C262.582,901.11 247.636,886.164 247.636,867.755L247.636,573.355C247.636,554.946 262.582,540 280.991,540L575.391,540C593.8,540 608.746,554.946 608.746,573.355Z" style="fill:#e61a1a;"/>
            </g>
            <g transform="matrix(1.14734,0,0,1.14734,-41.464,-76.182)">
                <g transform="matrix(229.607,0,0,229.607,364.447,691.108)">
                </g>
                <text x="198.632px" y="691.108px" style="font-family:'Arial-BoldMT', 'Arial';font-weight:700;font-size:229.607px;fill:#fff;">B</text>
            </g>
        </g>
    </g>
</svg>
