<?xml version="1.0" encoding="UTF-8" standalone="no"?><!DOCTYPE svg PUBLIC "-//W3C//DTD SVG 1.1//EN" "http://www.w3.org/Graphics/SVG/1.1/DTD/svg11.dtd"><svg width="100%" height="100%" viewBox="0 0 193 354" version="1.1" xmlns="http://www.w3.org/2000/svg" xmlns:xlink="http://www.w3.org/1999/xlink" xml:space="preserve" xmlns:serif="http://www.serif.com/" style="fill-rule:evenodd;clip-rule:evenodd;stroke-linecap:round;stroke-linejoin:round;stroke-miterlimit:1.5;"><g id="Bunny"><path d="M167.07,222.12c15.567,9.795 23.093,22.366 21.995,37.915" style="fill:none;stroke:#fff;stroke-width:6.37px;"/><ellipse cx="95.582" cy="222.12" rx="78.775" ry="95.961" style="fill:#fff;"/><path d="M122.164,82.196c9.811,47.499 8.171,88.046 -3.659,90.49c-11.83,2.443 -29.4,-34.136 -39.21,-81.635c-9.811,-47.499 -8.171,-88.046 3.659,-90.49c11.83,-2.443 29.4,34.136 39.21,81.635Z" style="fill:#fff;"/><path d="M71.824,84.961c24.251,42.004 35.446,81.009 24.984,87.049c-10.461,6.04 -38.643,-23.158 -62.894,-65.161c-24.251,-42.004 -35.446,-81.01 -24.984,-87.049c10.461,-6.04 38.643,23.158 62.894,65.161Z" style="fill:#fff;"/><path d="M60.956,94.12c15.56,26.951 24.881,50.745 20.801,53.101c-4.08,2.356 -20.026,-17.613 -35.586,-44.565c-15.561,-26.952 -24.882,-50.745 -20.801,-53.101c4.08,-2.356 20.025,17.613 35.586,44.565Z" style="fill:#bf406d;"/><path d="M106.749,77.156c5.749,30.586 6.658,56.124 2.028,56.994c-4.63,0.871 -13.057,-23.254 -18.807,-53.839c-5.749,-30.586 -6.658,-56.124 -2.028,-56.994c4.63,-0.871 13.057,23.254 18.807,53.839Z" style="fill:#bf406d;"/><ellipse cx="156.175" cy="213.513" rx="21.945" ry="18.407"/><ellipse cx="125.371" cy="180.085" rx="11.683" ry="4.9"/><ellipse cx="155.564" cy="177.701" rx="11.683" ry="4.9"/><path d="M72.888,302.832c-9.667,16.284 -9.894,30.934 -0,43.833" style="fill:none;stroke:#fff;stroke-width:6.37px;"/><path d="M23.2,229.125c-15.793,10.448 -22.379,23.537 -19.09,39.457" style="fill:none;stroke:#fff;stroke-width:6.37px;"/><path d="M122.082,306.076c8.551,16.284 8.753,30.934 0,43.833" style="fill:none;stroke:#fff;stroke-width:6.37px;"/><path d="M139.485,170.619c-0.097,0.088 -0.147,0.219 -0.244,0.307c-0.029,0.026 -1.188,0.328 -2.215,0.358c-5.781,0.164 -11.016,-3.371 -15.308,-2.672c-5.796,0.944 -12.254,7.248 -16.65,6.676c-0.038,-0.005 -0.083,0.006 -0.113,-0.017c-0.108,-0.081 -0.18,-0.204 -0.287,-0.286c0.105,-0.084 0.179,-0.202 0.285,-0.287c0.034,-0.028 1.087,-0.067 2.834,-1.594c3.432,-2.999 7.452,-8.665 13.407,-9.566c6.044,-0.915 11.359,5.48 16.77,6.665c0.666,0.146 1.212,0.173 1.215,0.174c0.118,0.054 0.187,0.188 0.306,0.242Z"/><path d="M171.84,167.615c-0.097,0.087 -0.147,0.219 -0.244,0.306c-0.029,0.026 -1.188,0.329 -2.215,0.358c-5.781,0.164 -11.016,-3.37 -15.307,-2.671c-5.796,0.944 -12.254,7.247 -16.651,6.675c-0.037,-0.005 -0.082,0.007 -0.113,-0.016c-0.107,-0.082 -0.179,-0.205 -0.287,-0.286c0.105,-0.084 0.18,-0.203 0.285,-0.287c0.034,-0.028 1.088,-0.068 2.834,-1.594c3.433,-2.999 7.453,-8.666 13.408,-9.567c6.044,-0.914 11.358,5.48 16.769,6.666c0.667,0.146 1.213,0.173 1.215,0.174c0.118,0.054 0.188,0.188 0.306,0.242Z"/></g></svg>