<?xml version="1.0" encoding="UTF-8" standalone="no"?>
<!DOCTYPE svg PUBLIC "-//W3C//DTD SVG 1.1//EN" "http://www.w3.org/Graphics/SVG/1.1/DTD/svg11.dtd">
<svg width="100%" height="100%" viewBox="0 0 327 205" version="1.1" xmlns="http://www.w3.org/2000/svg" xmlns:xlink="http://www.w3.org/1999/xlink" xml:space="preserve" xmlns:serif="http://www.serif.com/" style="fill-rule:evenodd;clip-rule:evenodd;stroke-linejoin:round;stroke-miterlimit:2;">
    <g transform="matrix(1,0,0,1,-1324,-815)">
        <g id="Files">
            <g transform="matrix(-1,0,0,1.06987,2974.63,-71.2051)">
                <path d="M1612.83,832.029L1630.57,1019.08L1341.93,1019.08L1324.2,832.029L1612.83,832.029Z" style="fill:#e0c036;"/>
            </g>
            <g transform="matrix(1,0,0,1,0,-18.1197)">
                <rect x="1341.93" y="843.99" width="288.634" height="175.09" style="fill:#fff;"/>
            </g>
            <g transform="matrix(-1,0,0,0.914259,2974.63,87.3774)">
                <path d="M1650.43,817.487L1630.57,1019.08L1341.93,1019.08L1361.8,817.487L1547.37,817.487L1555.81,797.089L1623.19,796.923L1630.57,817.487L1650.43,817.487Z" style="fill:#ffe05e;"/>
            </g>
            <g transform="matrix(1.32601,0,0,1.41957,-428.725,-414.336)">
                <g transform="matrix(131.453,0,0,131.453,1484.09,990.302)">
                </g>
                <text x="1392.47px" y="990.302px" style="font-family:'DisketMono', 'Disket Mono';font-size:131.453px;fill:#fff;">X</text>
            </g>
        </g>
    </g>
</svg>
