<?xml version="1.0" encoding="UTF-8" standalone="no"?>
<!DOCTYPE svg PUBLIC "-//W3C//DTD SVG 1.1//EN" "http://www.w3.org/Graphics/SVG/1.1/DTD/svg11.dtd">
<svg width="100%" height="100%" viewBox="0 0 335 284" version="1.1" xmlns="http://www.w3.org/2000/svg" xmlns:xlink="http://www.w3.org/1999/xlink" xml:space="preserve" xmlns:serif="http://www.serif.com/" style="fill-rule:evenodd;clip-rule:evenodd;stroke-linejoin:round;stroke-miterlimit:2;">
    <g transform="matrix(1,0,0,1,-115,-448)">
        <g id="KooloutAppUnread" transform="matrix(1.09759,0,0,1.09759,-402.785,-124.536)">
            <g transform="matrix(1.02149,0,0,1,353.678,0)">
                <path d="M413.705,621.606L413.705,765.739C413.705,773.551 407.496,779.894 399.848,779.894L186.515,779.894C178.867,779.894 172.657,773.551 172.657,765.739L172.657,621.606C172.657,613.794 178.867,607.451 186.515,607.451L399.848,607.451C407.496,607.451 413.705,613.794 413.705,621.606Z" style="fill:#337bcc;"/>
                <clipPath id="_clip1">
                    <path d="M413.705,621.606L413.705,765.739C413.705,773.551 407.496,779.894 399.848,779.894L186.515,779.894C178.867,779.894 172.657,773.551 172.657,765.739L172.657,621.606C172.657,613.794 178.867,607.451 186.515,607.451L399.848,607.451C407.496,607.451 413.705,613.794 413.705,621.606Z"/>
                </clipPath>
                <g clip-path="url(#_clip1)">
                    <g transform="matrix(-0.978964,0,0,1,932.601,0)">
                        <path d="M530.045,649.609L753.164,779.894L530.045,779.894L530.045,649.609Z" style="fill:#2665d9;"/>
                    </g>
                    <g transform="matrix(0.978964,0,0,1,-346.238,0)">
                        <path d="M530.045,649.609L753.164,779.894L530.045,779.894L530.045,649.609Z" style="fill:#2274e0;"/>
                    </g>
                </g>
            </g>
            <g transform="matrix(1,0,0,1,27.4659,42.713)">
                <path d="M707.302,479.056C712.181,479.056 716.86,480.994 720.31,484.443C723.76,487.893 725.698,492.572 725.698,497.451L725.698,620.438L625.693,678.663L513.705,600.415L513.705,499.08C513.705,488.021 522.67,479.056 533.729,479.056C574.733,479.056 667.718,479.056 707.302,479.056Z" style="fill:#a5cef5;"/>
                <clipPath id="_clip2">
                    <path d="M707.302,479.056C712.181,479.056 716.86,480.994 720.31,484.443C723.76,487.893 725.698,492.572 725.698,497.451L725.698,620.438L625.693,678.663L513.705,600.415L513.705,499.08C513.705,488.021 522.67,479.056 533.729,479.056C574.733,479.056 667.718,479.056 707.302,479.056Z"/>
                </clipPath>
                <g clip-path="url(#_clip2)">
                    <g transform="matrix(1.19801,0,0,1.19801,-37.8556,-84.6806)">
                        <rect x="460.399" y="470.562" width="44.474" height="44.474" style="fill:#2278e0;"/>
                    </g>
                    <g transform="matrix(1.19801,0,0,1.19801,-37.8556,-31.0468)">
                        <rect x="460.399" y="470.562" width="44.474" height="44.474" style="fill:#2274e0;"/>
                    </g>
                    <g transform="matrix(1.19801,0,0,1.19801,-37.3559,22.7536)">
                        <rect x="460.399" y="470.562" width="44.474" height="44.474" style="fill:#2274e0;"/>
                    </g>
                    <g transform="matrix(1.19801,0,0,1.19801,-37.3559,76.3875)">
                        <rect x="460.399" y="470.562" width="44.474" height="44.474" style="fill:#2274e0;"/>
                    </g>
                    <g transform="matrix(1.19801,0,0,1.19801,15.4241,-84.6806)">
                        <rect x="460.399" y="470.562" width="44.474" height="44.474" style="fill:#2284e0;"/>
                    </g>
                    <g transform="matrix(1.19801,0,0,1.19801,15.4241,-31.9578)">
                        <rect x="460.399" y="470.562" width="44.474" height="44.474" style="fill:#228fe0;"/>
                    </g>
                    <g transform="matrix(1.19801,0,0,1.19801,15.9238,20.9315)">
                        <rect x="460.399" y="470.562" width="44.474" height="44.474" style="fill:#229be0;"/>
                    </g>
                    <g transform="matrix(1.19801,0,0,1.19801,15.9238,73.6542)">
                        <rect x="460.399" y="470.562" width="44.474" height="44.474" style="fill:#2274e0;"/>
                    </g>
                    <g transform="matrix(1.19801,0,0,1.19801,67.5782,-84.6806)">
                        <rect x="460.399" y="470.562" width="44.474" height="44.474" style="fill:#226fe0;"/>
                    </g>
                    <g transform="matrix(1.19801,0,0,1.19801,67.5782,-31.9578)">
                        <rect x="460.399" y="470.562" width="44.474" height="44.474" style="fill:#227fe0;"/>
                    </g>
                    <g transform="matrix(1.19801,0,0,1.19801,68.0779,20.9315)">
                        <rect x="460.399" y="470.562" width="44.474" height="44.474" style="fill:#2282e0;"/>
                    </g>
                    <g transform="matrix(1.19801,0,0,1.19801,68.0779,73.6542)">
                        <rect x="460.399" y="470.562" width="44.474" height="44.474" style="fill:#2293e0;"/>
                    </g>
                    <g transform="matrix(1.19801,0,0,1.19801,120.858,-84.6806)">
                        <rect x="460.399" y="470.562" width="44.474" height="44.474" style="fill:#2281e0;"/>
                    </g>
                    <g transform="matrix(1.19801,0,0,1.19801,120.858,-31.9578)">
                        <rect x="460.399" y="470.562" width="44.474" height="44.474" style="fill:#2283e0;"/>
                    </g>
                    <g transform="matrix(1.19801,0,0,1.19801,121.358,20.9315)">
                        <rect x="460.399" y="470.562" width="44.474" height="44.474" style="fill:#009fe5;"/>
                    </g>
                    <g transform="matrix(1.19801,0,0,1.19801,121.358,73.6542)">
                        <rect x="460.399" y="470.562" width="44.474" height="44.474" style="fill:#2274e0;"/>
                    </g>
                </g>
            </g>
            <g transform="matrix(1,0,0,1,7.59646,-36.6258)">
                <path d="M633.663,625.733L633.663,750.213C633.663,760.304 625.471,768.496 615.38,768.496L490.9,768.496C480.81,768.496 472.617,760.304 472.617,750.213L472.617,625.733C472.617,615.643 480.81,607.451 490.9,607.451L615.38,607.451C625.471,607.451 633.663,615.643 633.663,625.733Z" style="fill:#094f45;"/>
            </g>
            <g transform="matrix(1,0,0,1,5.68434e-14,-36.6258)">
                <path d="M633.663,625.733L633.663,750.213C633.663,760.304 625.471,768.496 615.38,768.496L490.9,768.496C480.81,768.496 472.617,760.304 472.617,750.213L472.617,625.733C472.617,615.643 480.81,607.451 490.9,607.451L615.38,607.451C625.471,607.451 633.663,615.643 633.663,625.733Z" style="fill:#1a7ae6;"/>
            </g>
            <g transform="matrix(1,0,0,1,23.0946,-31.8027)">
                <g transform="matrix(120.229,0,0,120.229,575.612,721.023)">
                </g>
                <text x="484.479px" y="721.023px" style="font-family:'NotoSansSymbols2-Regular', 'Noto Sans Symbols 2';font-size:120.229px;fill:#fff;">❄</text>
            </g>
            <g transform="matrix(1.07879,0,0,1.07879,291.629,15.8181)">
                <circle cx="414.979" cy="503.265" r="34.267" style="fill:#e61a1a;"/>
            </g>
        </g>
    </g>
</svg>
