<?xml version="1.0" encoding="UTF-8" standalone="no"?>
<!DOCTYPE svg PUBLIC "-//W3C//DTD SVG 1.1//EN" "http://www.w3.org/Graphics/SVG/1.1/DTD/svg11.dtd">
<svg width="100%" height="100%" viewBox="0 0 218 217" version="1.1" xmlns="http://www.w3.org/2000/svg" xmlns:xlink="http://www.w3.org/1999/xlink" xml:space="preserve" xmlns:serif="http://www.serif.com/" style="fill-rule:evenodd;clip-rule:evenodd;stroke-linejoin:round;stroke-miterlimit:2;">
    <g transform="matrix(1,0,0,1,-836,-77)">
        <g id="MoozApp" transform="matrix(0.766667,0,0,0.766667,46.2959,-411.9)">
            <g transform="matrix(1.03383,0,0,1.03383,-144.352,-59.879)">
                <circle cx="1273.53" cy="811.578" r="136.52" style="fill:#3490e6;"/>
            </g>
            <g transform="matrix(1.35795,0,0,1.35795,-427.513,-278.898)">
                <g transform="matrix(0.713946,0,0,1,326.443,2.7427)">
                    <path d="M1263.56,735.336C1267.3,735.336 1270.88,736.396 1273.53,738.282C1276.17,740.169 1277.65,742.728 1277.65,745.396C1277.65,761.192 1277.65,791.636 1277.65,807.432C1277.65,810.1 1276.17,812.659 1273.53,814.545C1270.88,816.432 1267.3,817.492 1263.56,817.492C1235.78,817.492 1174.24,817.492 1146.46,817.492C1142.72,817.492 1139.14,816.432 1136.49,814.545C1133.85,812.659 1132.37,810.1 1132.37,807.432C1132.37,791.636 1132.37,761.192 1132.37,745.396C1132.37,742.728 1133.85,740.169 1136.49,738.282C1139.14,736.396 1142.72,735.336 1146.46,735.336C1174.24,735.336 1235.78,735.336 1263.56,735.336Z" style="fill:#fff;"/>
                </g>
                <g transform="matrix(4.16334e-17,-0.640938,0.598214,1.38778e-17,641.032,1448.98)">
                    <path d="M1045.07,769.495L1101.66,866.353L988.466,866.353L1045.07,769.495Z" style="fill:#fff;"/>
                </g>
            </g>
        </g>
    </g>
</svg>
