<?xml version="1.0" encoding="UTF-8" standalone="no"?>
<!DOCTYPE svg PUBLIC "-//W3C//DTD SVG 1.1//EN" "http://www.w3.org/Graphics/SVG/1.1/DTD/svg11.dtd">
<svg width="100%" height="100%" viewBox="0 0 733 161" version="1.1" xmlns="http://www.w3.org/2000/svg" xmlns:xlink="http://www.w3.org/1999/xlink" xml:space="preserve" xmlns:serif="http://www.serif.com/" style="fill-rule:evenodd;clip-rule:evenodd;stroke-linejoin:round;stroke-miterlimit:2;">
    <g transform="matrix(1,0,0,1,-72,-105)">
        <g id="Mooz" transform="matrix(0.766667,0,0,0.766667,46.2959,-411.9)">
            <g transform="matrix(1,0,0,1,199.507,32.8477)">
                <path d="M591.123,644.76C591.249,659.584 597.088,669.868 610.523,674.113L719.498,675.575L598.373,808.905C595.693,822.469 600.238,837.837 614.622,846.965L788.668,848.056C791.332,833.202 775.224,821.887 759.11,811.13L648.232,811.169L775.332,673.745C776.005,658.896 769.705,649.513 757.752,644.562L591.123,644.76Z" style="fill:#3490e6;"/>
            </g>
            <g transform="matrix(1,0,0,1,-441.482,42.7441)">
                <path d="M879.464,635.363C935.235,635.363 980.514,680.642 980.514,736.412C980.514,792.183 935.235,837.462 879.464,837.462C823.693,837.462 778.414,792.183 778.414,736.412C778.414,680.642 823.693,635.363 879.464,635.363ZM879.464,668.167C917.13,668.167 947.709,698.747 947.709,736.412C947.709,774.078 917.13,804.658 879.464,804.658C841.799,804.658 811.219,774.078 811.219,736.412C811.219,698.747 841.799,668.167 879.464,668.167Z" style="fill:#3490e6;"/>
            </g>
            <g transform="matrix(1,0,0,1,-218.879,42.7441)">
                <path d="M879.464,635.363C935.235,635.363 980.514,680.642 980.514,736.412C980.514,792.183 935.235,837.462 879.464,837.462C823.693,837.462 778.414,792.183 778.414,736.412C778.414,680.642 823.693,635.363 879.464,635.363ZM879.464,668.167C917.13,668.167 947.709,698.747 947.709,736.412C947.709,774.078 917.13,804.658 879.464,804.658C841.799,804.658 811.219,774.078 811.219,736.412C811.219,698.747 841.799,668.167 879.464,668.167Z" style="fill:#3490e6;"/>
            </g>
            <g transform="matrix(1,0,0,1,-1185.66,34.4842)">
                <path d="M1221.55,640.587L1219.99,848.056C1235.98,850.361 1249.56,847.387 1258.73,834.787L1258.73,704.506C1272.95,685.007 1286.69,676.8 1300.86,676.8C1315.02,676.8 1329.56,687.163 1343.71,704.506L1343.71,831.663C1356.43,842.669 1370.18,849.42 1385.88,848.056L1385.88,704.506C1414.02,669.152 1441.71,669.904 1468.99,704.506L1468.99,828.851C1475.75,841.233 1488.86,844.404 1502.88,845.722L1502.88,702.172C1502.88,702.172 1496.07,641.42 1431.65,640.587C1382.42,639.95 1370.58,665.141 1370.58,665.141C1351.31,649.31 1326.46,640.181 1302.47,640.587C1280.94,640.951 1261.33,643.514 1249.36,655.143C1243.25,646.979 1233.39,642.744 1221.55,640.587Z" style="fill:#3490e6;"/>
            </g>
            <ellipse cx="470.568" cy="774.779" rx="11.992" ry="18.634" style="fill:#3490e6;"/>
            <g transform="matrix(1,0,0,1,227.662,3.32085)">
                <ellipse cx="470.568" cy="774.779" rx="11.992" ry="18.634" style="fill:#3490e6;"/>
            </g>
        </g>
    </g>
</svg>
