<?xml version="1.0" encoding="UTF-8" standalone="no"?><!DOCTYPE svg PUBLIC "-//W3C//DTD SVG 1.1//EN" "http://www.w3.org/Graphics/SVG/1.1/DTD/svg11.dtd"><svg width="100%" height="100%" viewBox="0 0 151 573" version="1.1" xmlns="http://www.w3.org/2000/svg" xmlns:xlink="http://www.w3.org/1999/xlink" xml:space="preserve" xmlns:serif="http://www.serif.com/" style="fill-rule:evenodd;clip-rule:evenodd;stroke-linejoin:round;stroke-miterlimit:2;"><g id="Roskis"><rect x="0.862" y="0.954" width="149.506" height="571.983" style="fill:url(#_Linear1);"/><g><path d="M132.299,54.965c0,5.159 -25.24,8.394 -56.684,8.394c-31.443,-0 -57.259,-3.235 -57.259,-8.394l113.943,0Z" style="fill:#8d8d8d;"/><path d="M18.556,54.965l113.743,0l-1.664,-4.919l-110.414,0l-1.665,4.919Z" style="fill:#8d8d8d;"/><path d="M18.356,54.965l0,-50.412l4.919,4.919l0,40.574l-4.919,4.919Z" style="fill:#787878;"/><rect x="23.275" y="9.472" width="104.105" height="40.574" style="fill:url(#_Linear2);"/><path d="M132.299,54.965l0,-50.412l-4.918,4.919l-0,40.574l4.918,4.919Z" style="fill:#727272;"/><rect x="18.356" y="0.954" width="113.943" height="8.518" style="fill:#8d8d8d;"/></g></g><defs><linearGradient id="_Linear1" x1="0" y1="0" x2="1" y2="0" gradientUnits="userSpaceOnUse" gradientTransform="matrix(149.506,0,0,366.484,0.862379,356.344)"><stop offset="0" style="stop-color:#2e4f36;stop-opacity:1"/><stop offset="0.5" style="stop-color:#2e6c3d;stop-opacity:1"/><stop offset="1" style="stop-color:#175326;stop-opacity:1"/></linearGradient><linearGradient id="_Linear2" x1="0" y1="0" x2="1" y2="0" gradientUnits="userSpaceOnUse" gradientTransform="matrix(104.105,0,0,104.105,23.2752,29.7593)"><stop offset="0" style="stop-color:#444;stop-opacity:1"/><stop offset="0.5" style="stop-color:#5e5e5e;stop-opacity:1"/><stop offset="1" style="stop-color:#282828;stop-opacity:1"/></linearGradient></defs></svg>