<?xml version="1.0" encoding="UTF-8" standalone="no"?>
<!DOCTYPE svg PUBLIC "-//W3C//DTD SVG 1.1//EN" "http://www.w3.org/Graphics/SVG/1.1/DTD/svg11.dtd">
<svg width="100%" height="100%" viewBox="0 0 1920 1080" version="1.1" xmlns="http://www.w3.org/2000/svg" xmlns:xlink="http://www.w3.org/1999/xlink" xml:space="preserve" xmlns:serif="http://www.serif.com/" style="fill-rule:evenodd;clip-rule:evenodd;stroke-linecap:square;stroke-linejoin:round;stroke-miterlimit:1.5;">
    <rect id="Floor" x="0" y="790.035" width="1920" height="289.965" style="fill:#beaa9c;"/>
    <g id="Wall" transform="matrix(0.9895,0,0,1,1.08002e-12,0)">
        <rect x="0" y="0" width="1940.37" height="825.197" style="fill:#e0d8cd;"/>
    </g>
    <g id="Whiteboard" transform="matrix(1,0,0,1,6.48926,-24.1031)">
        <rect x="1259.42" y="171.591" width="569.261" height="368.409" style="fill:#f2eeeb;"/>
        <g id="Whiteboard1" serif:id="Whiteboard" transform="matrix(0.953195,0,0,0.923474,72.269,27.2276)">
            <rect x="1259.42" y="171.591" width="569.261" height="368.409" style="fill:#f2eeeb;"/>
        </g>
    </g>
    <g id="Plant">
        <path d="M1827.59,598.941L1759.73,870.375L1623.2,870.375L1555.34,598.941C1560.78,609.775 1619.69,618.318 1691.47,618.318C1763.24,618.318 1822.15,609.775 1827.59,598.941Z" style="fill:#3c3c3c;"/>
        <g transform="matrix(1,0,0,1,0,36.2871)">
            <ellipse cx="1691.47" cy="561.016" rx="136.536" ry="21.016" style="fill:#808080;"/>
        </g>
        <path d="M1691.47,598.941L1691.47,285.515" style="fill:none;"/>
        <path d="M1691.47,285.012C1691.54,285.717 1691.89,286.376 1691.97,287.082C1693.31,298.974 1694.46,310.888 1695.74,322.788C1696.83,332.838 1697.87,342.892 1699.06,352.93C1699.97,360.671 1700.88,368.417 1702.06,376.122C1702.45,378.651 1703.72,386.87 1708.75,407.398C1711.63,419.165 1714.71,430.885 1717.57,442.657C1722.77,464.039 1724.52,475.049 1724.97,477.893C1725.83,483.32 1726.47,488.783 1727.02,494.25C1727.28,496.788 1727.32,499.344 1727.38,501.894C1727.44,504.294 1727.49,506.698 1727.38,509.098C1727.3,511.156 1727.09,513.21 1726.82,515.252C1726.6,516.869 1725.68,523.806 1722.12,535.104C1720.67,539.713 1718.98,544.245 1717.2,548.738C1715.43,553.208 1713.56,557.644 1711.49,561.983C1702.56,580.696 1702.38,580.607 1692.14,598.64C1692.09,598.741 1692.04,598.852 1691.97,598.941C1691.81,599.122 1691.62,599.263 1691.47,599.444C1691.29,599.141 1690.96,598.943 1690.79,598.64C1688.13,594.084 1685.44,589.544 1682.98,584.88C1679,577.321 1675.12,569.696 1671.44,561.983C1669.37,557.644 1667.5,553.208 1665.73,548.738C1663.95,544.245 1662.26,539.713 1660.81,535.104C1657.25,523.806 1656.33,516.869 1656.11,515.252C1655.84,513.21 1655.63,511.156 1655.55,509.098C1655.44,506.698 1655.49,504.294 1655.55,501.894C1655.61,499.344 1655.65,496.788 1655.91,494.25C1656.46,488.783 1657.1,483.32 1657.96,477.893C1658.41,475.049 1660.16,464.039 1665.36,442.657C1668.22,430.885 1671.3,419.165 1674.18,407.398C1679.21,386.87 1680.48,378.651 1680.87,376.122C1682.05,368.417 1682.96,360.671 1683.87,352.93C1685.06,342.892 1686.1,332.838 1687.19,322.788C1688.47,310.888 1689.62,298.974 1690.96,287.082C1691.04,286.376 1691.38,285.717 1691.47,285.012Z" style="fill:#6b9d59;"/>
    </g>
    <g id="Table" transform="matrix(1.38356,0,0,0.518288,-335.07,535.742)">
        <path d="M1879.24,1078.1L-7.151,1078.1L445.554,392.335L1426.54,392.335L1879.24,1078.1Z" style="fill:url(#_Radial1);"/>
    </g>
    <g id="Screen" transform="matrix(1.41015,0,0,1.41015,-393.742,-253.982)">
        <g transform="matrix(1.70605,0,0,1.32775,-681.176,-330.902)">
            <ellipse cx="965.514" cy="820.738" rx="93.247" ry="32.608" style="fill:url(#_Radial2);"/>
        </g>
        <g transform="matrix(0.635932,0,0,0.635932,349.505,212.706)">
            <path d="M908.514,807.187L908.514,633.473L1011.49,633.473L1011.49,807.187C1011.49,816.126 988.416,823.383 960,823.383C931.584,823.383 908.514,816.126 908.514,807.187Z" style="fill:#909090;"/>
        </g>
        <g transform="matrix(1.03874,0,0,1.12375,-90.1229,-20.7248)">
            <path d="M1380.12,262.397L1380.12,587.66C1380.12,606.187 1363.85,621.23 1343.8,621.23L678.113,621.23C658.069,621.23 641.796,606.187 641.796,587.66L641.796,262.397C641.796,243.87 658.069,228.827 678.113,228.827L1343.8,228.827C1363.85,228.827 1380.12,243.87 1380.12,262.397Z" style="fill:url(#_Radial3);"/>
        </g>
        <g transform="matrix(1.03874,0,0,1.1174,-90.1229,-41.3808)">
            <path d="M1380.12,262.397L1380.12,614.899L641.796,614.899L641.796,262.397C641.796,243.87 656.525,228.827 674.667,228.827L1347.25,228.827C1365.39,228.827 1380.12,243.87 1380.12,262.397Z" style="fill:#3c3c3c;"/>
        </g>
        <path d="M965.473,665.084C965.674,665.498 965.806,665.871 965.836,666.198C966.137,669.469 963.944,672.349 960.941,672.626C957.939,672.902 955.256,670.471 954.955,667.2C954.814,665.674 956.062,662.864 956.652,659.738C957.328,656.164 957.457,652.332 959.059,652.185C960.666,652.037 960.882,655.787 962.2,659.191C962.415,659.746 962.673,660.287 962.95,660.808C962.133,661.225 961.583,662.006 961.583,662.899C961.583,664.231 962.807,665.312 964.313,665.312C964.728,665.312 965.121,665.23 965.473,665.084ZM958.035,648.324C958.09,648.387 958.215,648.594 958.27,648.657C958.277,648.665 958.704,649.531 958.887,649.96C959.313,650.963 958.977,651.186 958.701,651.639C958.27,651.331 957.872,651.255 957.873,650.166C957.873,649.7 957.928,648.736 957.932,648.725C957.958,648.646 958.008,648.403 958.035,648.324Z" style="fill:#818181;"/>
    </g>
    <g id="Keyboard">
        <g id="body" transform="matrix(1.34139,0,0,1.2263,-414.433,-220.652)">
            <path d="M1370.11,1033.28L679.157,1033.28L746.773,908.092L1302.49,908.092L1370.11,1033.28Z" style="fill:#878fa5;"/>
            <clipPath id="_clip4">
                <path d="M1370.11,1033.28L679.157,1033.28L746.773,908.092L1302.49,908.092L1370.11,1033.28Z"/>
            </clipPath>
            <g clip-path="url(#_clip4)">
                <g transform="matrix(0.745494,0,0,0.815458,308.957,171.658)">
                    <g transform="matrix(0.783562,0,0,0.783562,149.096,489.447)">
                        <g>
                            <g>
                                <g transform="matrix(1,0,0,1,-0.342769,-1.59961)">
                                    <path d="M723.221,545.122C720.934,550.848 718.646,556.574 716.358,562.301C715.807,563.683 712.527,564.879 708.92,564.869C694.491,564.828 680.062,564.787 665.632,564.747C661.948,564.736 659.806,563.492 660.438,562.142C663.121,556.416 665.804,550.69 668.487,544.964C669.113,543.629 672.375,542.474 675.888,542.484C689.922,542.525 703.956,542.565 717.99,542.605C721.575,542.616 723.743,543.816 723.221,545.122Z" style="fill:#e0d8cd;"/>
                                </g>
                                <g transform="matrix(1,0,0,1,69.3948,-1.59961)">
                                    <path d="M718.103,545.307C716.283,551.034 714.462,556.761 712.641,562.488C712.202,563.867 709.027,565.067 705.415,565.057C690.988,565.016 676.561,564.975 662.135,564.934C658.459,564.924 656.207,563.683 656.731,562.33C658.947,556.603 661.163,550.877 663.379,545.15C663.895,543.817 667.057,542.66 670.575,542.67C684.607,542.71 698.638,542.75 712.669,542.791C716.246,542.801 718.52,543.998 718.103,545.307Z" style="fill:#e0d8cd;"/>
                                </g>
                                <g transform="matrix(1,0,0,1,139.395,-1.59961)">
                                    <path d="M712.955,545.494C711.602,551.221 710.25,556.949 708.897,562.676C708.572,564.053 705.502,565.255 701.884,565.245C687.46,565.204 673.036,565.163 658.612,565.122C654.945,565.112 652.583,563.874 652.997,562.518C654.745,556.791 656.493,551.063 658.241,545.336C658.647,544.006 661.708,542.846 665.231,542.856C679.26,542.896 693.289,542.937 707.318,542.977C710.886,542.987 713.265,544.181 712.955,545.494Z" style="fill:#e0d8cd;"/>
                                </g>
                                <g transform="matrix(1,0,0,1,209.395,-1.59961)">
                                    <path d="M707.795,545.68C706.911,551.408 706.026,557.136 705.141,562.864C704.929,564.238 701.965,565.443 698.34,565.433C683.919,565.392 669.498,565.351 655.076,565.31C651.418,565.3 648.948,564.066 649.252,562.705C650.531,556.978 651.811,551.25 653.09,545.523C653.387,544.194 656.347,543.032 659.876,543.042C673.902,543.082 687.929,543.123 701.955,543.163C705.515,543.173 707.998,544.364 707.795,545.68Z" style="fill:#e0d8cd;"/>
                                </g>
                                <g transform="matrix(1,0,0,1,279.395,-1.59961)">
                                    <path d="M702.624,545.866C702.207,551.595 701.79,557.323 701.373,563.052C701.274,564.423 698.415,565.631 694.785,565.621C680.366,565.58 665.947,565.539 651.529,565.499C647.879,565.488 645.301,564.257 645.494,562.893C646.306,557.165 647.117,551.437 647.929,545.709C648.117,544.383 650.974,543.218 654.509,543.228C668.533,543.268 682.557,543.309 696.581,543.349C700.133,543.359 702.72,544.548 702.624,545.866Z" style="fill:#e0d8cd;"/>
                                </g>
                                <g transform="matrix(1,0,0,1,349.395,-1.59961)">
                                    <path d="M697.441,546.052C697.492,551.782 697.543,557.511 697.594,563.24C697.606,564.608 694.854,565.819 691.217,565.809C676.801,565.768 662.385,565.727 647.969,565.687C644.328,565.676 641.642,564.448 641.724,563.081C642.068,557.353 642.412,551.624 642.756,545.895C642.835,544.572 645.589,543.404 649.13,543.414C663.152,543.454 677.173,543.495 691.195,543.535C694.739,543.545 697.429,544.731 697.441,546.052Z" style="fill:#e0d8cd;"/>
                                </g>
                                <g transform="matrix(1,0,0,1,419.395,-1.59961)">
                                    <path d="M692.247,546.239C692.765,551.968 693.283,557.698 693.801,563.428C693.925,564.793 691.281,566.007 687.637,565.997C673.224,565.956 658.811,565.915 644.397,565.875C640.764,565.864 637.972,564.639 637.943,563.269C637.819,557.54 637.695,551.811 637.571,546.082C637.542,544.761 640.193,543.59 643.741,543.6C657.76,543.64 671.779,543.681 685.798,543.721C689.335,543.731 692.127,544.914 692.247,546.239Z" style="fill:#e0d8cd;"/>
                                </g>
                                <g transform="matrix(1,0,0,1,489.395,-1.59961)">
                                    <path d="M687.041,546.425C688.026,552.155 689.012,557.885 689.997,563.615C690.232,564.978 687.696,566.195 684.046,566.185C669.635,566.144 655.224,566.103 640.813,566.063C637.187,566.052 634.29,564.83 634.149,563.457C633.557,557.727 632.966,551.997 632.375,546.268C632.239,544.95 634.786,543.776 638.339,543.786C652.356,543.826 666.373,543.867 680.389,543.907C683.919,543.917 686.813,545.097 687.041,546.425Z" style="fill:#e0d8cd;"/>
                                </g>
                                <g transform="matrix(1,0,0,1,559.395,-1.59961)">
                                    <path d="M681.824,546.611C683.276,552.342 684.729,558.072 686.181,563.803C686.526,565.162 684.099,566.383 680.441,566.373C666.033,566.332 651.625,566.291 637.217,566.251C633.599,566.24 630.597,565.02 630.343,563.645C629.284,557.914 628.226,552.184 627.167,546.454C626.924,545.139 629.366,543.962 632.927,543.972C646.941,544.012 660.955,544.053 674.969,544.093C678.492,544.103 681.487,545.281 681.824,546.611Z" style="fill:#e0d8cd;"/>
                                </g>
                                <g transform="matrix(1,0,0,1,629.395,-1.59961)">
                                    <path d="M676.595,546.797C678.514,552.528 680.433,558.26 682.353,563.991C682.807,565.347 680.49,566.571 676.825,566.561C662.42,566.52 648.014,566.479 633.609,566.439C629.997,566.428 626.891,565.211 626.524,563.832C624.999,558.102 623.474,552.371 621.948,546.64C621.599,545.329 623.935,544.148 627.503,544.158C641.515,544.198 655.526,544.239 669.538,544.279C673.054,544.289 676.149,545.464 676.595,546.797Z" style="fill:#e0d8cd;"/>
                                </g>
                                <g transform="matrix(1,0,0,1,699.395,-1.59961)">
                                    <path d="M671.355,546.983C673.741,552.715 676.126,558.447 678.512,564.178C679.075,565.531 676.869,566.759 673.196,566.749C658.794,566.708 644.391,566.667 629.988,566.627C626.384,566.616 623.174,565.401 622.694,564.02C620.702,558.289 618.71,552.558 616.718,546.826C616.263,545.518 618.493,544.333 622.068,544.344C636.077,544.384 650.086,544.424 664.095,544.465C667.605,544.475 670.799,545.648 671.355,546.983Z" style="fill:#e0d8cd;"/>
                                </g>
                                <g transform="matrix(1,0,0,1,769.395,-1.59961)">
                                    <path d="M666.103,547.169C668.955,552.902 671.807,558.634 674.66,564.366C675.331,565.715 673.236,566.947 669.556,566.937C655.156,566.896 640.755,566.855 626.355,566.814C622.757,566.804 619.445,565.592 618.852,564.208C616.393,558.476 613.934,552.744 611.476,547.012C610.916,545.707 613.038,544.519 616.621,544.53C630.628,544.57 644.635,544.61 658.641,544.651C662.144,544.661 665.437,545.831 666.103,547.169Z" style="fill:#e0d8cd;"/>
                                </g>
                                <g transform="matrix(1,0,0,1,839.395,-1.59961)">
                                    <path d="M660.84,547.355C664.158,553.088 667.477,558.821 670.795,564.554C671.574,565.899 669.591,567.135 665.903,567.125C651.505,567.084 637.108,567.043 622.71,567.002C619.119,566.992 615.705,565.782 614.997,564.395C612.072,558.663 609.147,552.931 606.222,547.198C605.558,545.897 607.573,544.705 611.163,544.715C625.167,544.756 639.172,544.796 653.176,544.836C656.673,544.846 660.064,546.015 660.84,547.355Z" style="fill:#e0d8cd;"/>
                                </g>
                                <g transform="matrix(1.6047,0,0,1,-490.483,-1.58882)">
                                    <path d="M716.293,544.931C714.58,550.657 712.866,556.383 711.153,562.109C710.734,563.508 708.609,564.687 706.387,564.677C690.345,564.604 674.303,564.531 658.261,564.458C656.014,564.448 654.711,563.237 655.22,561.854C657.329,556.129 659.438,550.404 661.547,544.679C662.045,543.327 664.186,542.189 666.35,542.199C681.953,542.271 697.555,542.343 713.158,542.415C715.347,542.425 716.693,543.596 716.293,544.931Z" style="fill:#e0d8cd;"/>
                                </g>
                            </g>
                            <g transform="matrix(1,0,0,1,-105.881,67.9319)">
                                <g transform="matrix(1,0,0,1,-0.342769,-1.59961)">
                                    <path d="M717.469,502.703C714.335,508.691 711.202,514.679 708.068,520.667C707.31,522.115 703.752,523.362 700.035,523.352C685.128,523.311 670.22,523.269 655.312,523.228C651.493,523.217 649.463,521.912 650.296,520.506C653.843,514.519 657.391,508.531 660.938,502.544C661.768,501.144 665.303,499.94 668.921,499.95C683.415,499.991 697.909,500.032 712.403,500.073C716.118,500.083 718.181,501.343 717.469,502.703Z" style="fill:#e0d8cd;"/>
                                </g>
                                <g transform="matrix(1,0,0,1,69.3948,-1.59961)">
                                    <path d="M714.473,502.892C711.827,508.88 709.182,514.868 706.536,520.856C705.897,522.303 702.447,523.552 698.726,523.542C683.821,523.501 668.916,523.459 654.011,523.418C650.201,523.407 648.055,522.105 648.775,520.696C651.834,514.708 654.893,508.72 657.952,502.732C658.666,501.334 662.097,500.127 665.72,500.138C680.212,500.179 694.703,500.22 709.194,500.26C712.9,500.271 715.075,501.528 714.473,502.892Z" style="fill:#e0d8cd;"/>
                                </g>
                                <g transform="matrix(1,0,0,1,139.395,-1.59961)">
                                    <path d="M711.453,503.08C709.297,509.069 707.141,515.058 704.986,521.047C704.466,522.49 701.125,523.743 697.398,523.732C682.496,523.691 667.594,523.65 652.692,523.608C648.892,523.598 646.629,522.299 647.236,520.886C649.805,514.898 652.374,508.909 654.942,502.921C655.541,501.525 658.867,500.316 662.496,500.326C676.984,500.367 691.473,500.408 705.962,500.449C709.658,500.459 711.945,501.713 711.453,503.08Z" style="fill:#e0d8cd;"/>
                                </g>
                                <g transform="matrix(1,0,0,1,209.395,-1.59961)">
                                    <path d="M708.42,503.269C706.754,509.258 705.088,515.247 703.423,521.237C703.022,522.678 699.79,523.933 696.057,523.923C681.157,523.882 666.258,523.84 651.359,523.799C647.568,523.788 645.191,522.493 645.683,521.076C647.762,515.087 649.841,509.099 651.92,503.11C652.404,501.716 655.625,500.504 659.259,500.515C673.745,500.556 688.231,500.597 702.717,500.637C706.404,500.648 708.801,501.898 708.42,503.269Z" style="fill:#e0d8cd;"/>
                                </g>
                                <g transform="matrix(1,0,0,1,279.395,-1.59961)">
                                    <path d="M705.375,503.458C704.199,509.447 703.022,515.437 701.846,521.427C701.564,522.866 698.441,524.124 694.703,524.113C679.806,524.072 664.91,524.031 650.013,523.989C646.232,523.979 643.741,522.687 644.118,521.266C645.707,515.277 647.297,509.288 648.886,503.298C649.255,501.907 652.37,500.693 656.009,500.703C670.493,500.744 684.976,500.785 699.459,500.826C703.138,500.836 705.645,502.083 705.375,503.458Z" style="fill:#e0d8cd;"/>
                                </g>
                                <g transform="matrix(1,0,0,1,349.395,-1.59961)">
                                    <path d="M702.318,503.646C701.631,509.637 700.944,515.627 700.257,521.617C700.092,523.053 697.08,524.314 693.335,524.304C678.442,524.262 663.548,524.221 648.655,524.18C644.882,524.169 642.278,522.881 642.54,521.457C643.639,515.467 644.739,509.477 645.839,503.487C646.094,502.099 649.102,500.881 652.748,500.892C667.228,500.933 681.709,500.973 696.19,501.014C699.86,501.025 702.476,502.268 702.318,503.646Z" style="fill:#e0d8cd;"/>
                                </g>
                                <g transform="matrix(1,0,0,1,419.395,-1.59961)">
                                    <path d="M699.248,503.835C699.05,509.826 698.852,515.816 698.654,521.807C698.607,523.24 695.707,524.505 691.955,524.494C677.064,524.453 662.174,524.412 647.283,524.37C643.519,524.36 640.803,523.075 640.948,521.647C641.559,515.656 642.169,509.666 642.78,503.676C642.921,502.29 645.822,501.07 649.474,501.08C663.952,501.121 678.43,501.162 692.908,501.203C696.57,501.213 699.294,502.454 699.248,503.835Z" style="fill:#e0d8cd;"/>
                                </g>
                                <g transform="matrix(1,0,0,1,489.395,-1.59961)">
                                    <path d="M696.166,504.023C696.457,510.015 696.748,516.006 697.039,521.997C697.108,523.427 694.32,524.695 690.562,524.684C675.674,524.643 660.786,524.602 645.898,524.561C642.142,524.55 639.315,523.268 639.344,521.837C639.465,515.846 639.587,509.855 639.708,503.864C639.736,502.481 642.529,501.258 646.187,501.268C660.663,501.309 675.138,501.35 689.613,501.391C693.268,501.401 696.099,502.639 696.166,504.023Z" style="fill:#e0d8cd;"/>
                                </g>
                                <g transform="matrix(1,0,0,1,559.395,-1.59961)">
                                    <path d="M693.071,504.212C693.851,510.204 694.631,516.196 695.41,522.187C695.596,523.614 692.92,524.885 689.155,524.875C674.27,524.833 659.385,524.792 644.5,524.751C640.752,524.74 637.814,523.461 637.726,522.027C637.359,516.036 636.991,510.044 636.624,504.053C636.539,502.673 639.224,501.446 642.889,501.457C657.361,501.498 671.834,501.538 686.307,501.579C689.954,501.59 692.891,502.825 693.071,504.212Z" style="fill:#e0d8cd;"/>
                                </g>
                                <g transform="matrix(1,0,0,1,629.395,-1.59961)">
                                    <path d="M689.964,504.401C691.233,510.393 692.501,516.385 693.769,522.377C694.07,523.801 691.508,525.075 687.735,525.065C672.853,525.024 657.971,524.982 643.089,524.941C639.349,524.931 636.301,523.655 636.096,522.217C635.24,516.225 634.384,510.233 633.527,504.241C633.331,502.865 635.906,501.635 639.578,501.645C654.048,501.686 668.518,501.727 682.988,501.768C686.627,501.778 689.67,503.01 689.964,504.401Z" style="fill:#e0d8cd;"/>
                                </g>
                                <g transform="matrix(1,0,0,1,699.395,-1.59961)">
                                    <path d="M686.845,504.589C688.601,510.582 690.358,516.575 692.114,522.567C692.531,523.988 690.083,525.266 686.303,525.255C671.423,525.214 656.544,525.173 641.665,525.131C637.932,525.121 634.775,523.848 634.452,522.407C633.108,516.415 631.763,510.422 630.419,504.43C630.11,503.056 632.576,501.823 636.255,501.833C650.722,501.874 665.189,501.915 679.657,501.956C683.289,501.966 686.437,503.196 686.845,504.589Z" style="fill:#e0d8cd;"/>
                                </g>
                                <g transform="matrix(1,0,0,1,769.395,-1.59961)">
                                    <path d="M683.713,504.777C685.958,510.771 688.202,516.764 690.447,522.757C690.977,524.174 688.645,525.456 684.857,525.445C669.981,525.404 655.104,525.363 640.228,525.322C636.503,525.311 633.237,524.04 632.796,522.597C630.963,516.604 629.13,510.611 627.297,504.618C626.878,503.248 629.233,502.011 632.919,502.022C647.384,502.062 661.849,502.103 676.313,502.144C679.939,502.154 683.191,503.382 683.713,504.777Z" style="fill:#e0d8cd;"/>
                                </g>
                                <g transform="matrix(1,0,0,1,839.395,-1.59961)">
                                    <path d="M680.569,504.966C683.302,510.96 686.034,516.954 688.766,522.947C689.411,524.361 687.194,525.646 683.398,525.636C668.524,525.594 653.651,525.553 638.777,525.512C635.059,525.501 631.686,524.233 631.126,522.787C628.805,516.794 626.485,510.8 624.164,504.807C623.634,503.44 625.878,502.199 629.571,502.21C644.033,502.251 658.495,502.291 672.957,502.332C676.576,502.342 679.932,503.567 680.569,504.966Z" style="fill:#e0d8cd;"/>
                                </g>
                            </g>
                            <g transform="matrix(1.6047,0,0,1,418.229,66.3322)">
                                <path d="M683.589,505.251C685.752,511.245 687.914,517.24 690.076,523.235C690.599,524.683 689.253,525.933 686.94,525.923C670.411,525.85 653.883,525.776 637.355,525.702C635.066,525.692 632.878,524.442 632.45,522.977C630.699,516.984 628.948,510.99 627.197,504.996C626.788,503.597 628.179,502.388 630.433,502.398C646.504,502.471 662.575,502.544 678.646,502.617C680.874,502.627 683.078,503.834 683.589,505.251Z" style="fill:#e0d8cd;"/>
                            </g>
                            <g transform="matrix(1,0,0,1,0,135.98)">
                                <g transform="matrix(1,0,0,1,-0.342769,-1.59961)">
                                    <path d="M702.118,461.966C699.617,468.226 697.115,474.487 694.614,480.747C694.01,482.258 690.496,483.565 686.649,483.555C671.249,483.513 655.849,483.471 640.449,483.429C636.519,483.418 634.245,482.06 634.937,480.584C637.87,474.325 640.804,468.065 643.737,461.805C644.422,460.344 647.918,459.081 651.662,459.091C666.63,459.133 681.598,459.174 696.565,459.216C700.387,459.226 702.689,460.538 702.118,461.966Z" style="fill:#e0d8cd;"/>
                                </g>
                                <g transform="matrix(1,0,0,1,69.3948,-1.59961)">
                                    <path d="M701.305,462.156C699.314,468.417 697.322,474.678 695.331,480.938C694.851,482.447 691.451,483.757 687.598,483.747C672.201,483.705 656.804,483.663 641.407,483.621C637.487,483.61 635.093,482.256 635.666,480.776C638.089,474.516 640.512,468.256 642.935,461.995C643.5,460.536 646.887,459.271 650.636,459.281C665.601,459.323 680.566,459.364 695.531,459.406C699.344,459.416 701.76,460.724 701.305,462.156Z" style="fill:#e0d8cd;"/>
                                </g>
                                <g transform="matrix(1,0,0,1,139.395,-1.59961)">
                                    <path d="M700.475,462.347C698.996,468.609 697.517,474.87 696.037,481.131C695.681,482.636 692.395,483.95 688.536,483.939C673.142,483.897 657.748,483.856 642.355,483.814C638.444,483.803 635.931,482.452 636.383,480.969C638.295,474.708 640.206,468.447 642.117,462.186C642.562,460.73 645.838,459.462 649.593,459.472C664.555,459.514 679.518,459.555 694.48,459.596C698.283,459.607 700.815,460.912 700.475,462.347Z" style="fill:#e0d8cd;"/>
                                </g>
                                <g transform="matrix(1,0,0,1,209.395,-1.59961)">
                                    <path d="M699.633,462.538C698.665,468.8 697.697,475.062 696.729,481.323C696.497,482.826 693.326,484.142 689.46,484.132C674.07,484.09 658.679,484.048 643.288,484.006C639.386,483.996 636.755,482.648 637.087,481.161C638.487,474.9 639.886,468.638 641.286,462.377C641.61,460.924 644.776,459.653 648.537,459.663C663.496,459.704 678.456,459.746 693.415,459.787C697.209,459.798 699.855,461.099 699.633,462.538Z" style="fill:#e0d8cd;"/>
                                </g>
                                <g transform="matrix(1,0,0,1,279.395,-1.59961)">
                                    <path d="M698.777,462.729C698.32,468.991 697.864,475.254 697.407,481.516C697.298,483.015 694.243,484.335 690.371,484.324C674.983,484.283 659.595,484.241 644.207,484.199C640.315,484.188 637.566,482.845 637.777,481.353C638.665,475.092 639.553,468.83 640.441,462.568C640.646,461.117 643.7,459.843 647.468,459.854C662.424,459.895 677.381,459.936 692.337,459.978C696.123,459.988 698.882,461.286 698.777,462.729Z" style="fill:#e0d8cd;"/>
                                </g>
                                <g transform="matrix(1,0,0,1,349.395,-1.59961)">
                                    <path d="M697.907,462.92C697.962,469.183 698.017,475.445 698.071,481.708C698.084,483.205 695.146,484.527 691.267,484.517C675.882,484.475 660.498,484.433 645.113,484.392C641.229,484.381 638.363,483.04 638.453,481.546C638.829,475.284 639.206,469.021 639.583,462.759C639.67,461.311 642.611,460.034 646.385,460.044C661.339,460.086 676.292,460.127 691.246,460.168C695.023,460.179 697.895,461.474 697.907,462.92Z" style="fill:#e0d8cd;"/>
                                </g>
                                <g transform="matrix(1,0,0,1,419.395,-1.59961)">
                                    <path d="M697.025,463.111C697.59,469.374 698.156,475.637 698.722,481.9C698.856,483.394 696.035,484.72 692.149,484.709C676.768,484.668 661.386,484.626 646.004,484.584C642.129,484.574 639.147,483.236 639.115,481.738C638.98,475.475 638.846,469.213 638.711,462.95C638.68,461.505 641.509,460.225 645.29,460.235C660.24,460.276 675.191,460.318 690.141,460.359C693.911,460.37 696.894,461.662 697.025,463.111Z" style="fill:#e0d8cd;"/>
                                </g>
                                <g transform="matrix(1,0,0,1,489.395,-1.59961)">
                                    <path d="M696.129,463.302C697.205,469.565 698.281,475.829 699.358,482.093C699.614,483.583 696.911,484.913 693.017,484.902C677.639,484.86 662.26,484.818 646.882,484.777C643.014,484.766 639.918,483.432 639.763,481.93C639.117,475.667 638.472,469.404 637.826,463.141C637.678,461.699 640.393,460.415 644.181,460.426C659.128,460.467 674.076,460.508 689.024,460.55C692.786,460.56 695.879,461.849 696.129,463.302Z" style="fill:#e0d8cd;"/>
                                </g>
                                <g transform="matrix(1,0,0,1,559.395,-1.59961)">
                                    <path d="M695.219,463.492C696.806,469.757 698.393,476.021 699.98,482.285C700.357,483.771 697.772,485.105 693.872,485.094C678.496,485.053 663.121,485.011 647.745,484.969C643.886,484.959 640.675,483.627 640.397,482.123C639.241,475.859 638.085,469.595 636.928,463.331C636.663,461.893 639.263,460.606 643.058,460.616C658.003,460.657 672.948,460.699 687.893,460.74C691.647,460.751 694.851,462.037 695.219,463.492Z" style="fill:#e0d8cd;"/>
                                </g>
                                <g transform="matrix(1,0,0,1,629.395,-1.59961)">
                                    <path d="M694.297,463.683C696.394,469.948 698.491,476.212 700.589,482.477C701.085,483.96 698.62,485.297 694.712,485.287C679.339,485.245 663.967,485.203 648.594,485.162C644.743,485.151 641.418,483.822 641.017,482.315C639.35,476.051 637.684,469.786 636.017,463.522C635.635,462.087 638.12,460.796 641.923,460.807C656.865,460.848 671.807,460.889 686.749,460.931C690.496,460.941 693.808,462.225 694.297,463.683Z" style="fill:#e0d8cd;"/>
                                </g>
                                <g transform="matrix(1,0,0,1,699.395,-1.59961)">
                                    <path d="M693.361,463.874C695.968,470.139 698.576,476.404 701.183,482.669C701.799,484.148 699.455,485.49 695.538,485.479C680.169,485.437 664.799,485.396 649.43,485.354C645.586,485.343 642.148,484.017 641.623,482.507C639.446,476.242 637.269,469.978 635.092,463.713C634.595,462.281 636.964,460.987 640.774,460.997C655.713,461.038 670.653,461.08 685.592,461.121C689.332,461.131 692.753,462.413 693.361,463.874Z" style="fill:#e0d8cd;"/>
                                </g>
                                <g transform="matrix(1,0,0,1,769.395,-1.59961)">
                                    <path d="M692.412,464.064C695.529,470.33 698.646,476.596 701.764,482.861C702.498,484.337 700.275,485.682 696.35,485.671C680.984,485.63 665.617,485.588 650.251,485.546C646.414,485.536 642.865,484.212 642.216,482.699C639.529,476.434 636.842,470.169 634.154,463.904C633.542,462.476 635.794,461.177 639.612,461.188C654.549,461.229 669.485,461.27 684.421,461.312C688.154,461.322 691.683,462.601 692.412,464.064Z" style="fill:#e0d8cd;"/>
                                </g>
                                <g transform="matrix(1,0,0,1,839.395,-1.59961)">
                                    <path d="M691.449,464.255C695.076,470.521 698.703,476.787 702.331,483.053C703.182,484.525 701.082,485.874 697.149,485.864C681.785,485.822 666.422,485.78 651.058,485.739C647.228,485.728 643.568,484.407 642.794,482.891C639.597,476.626 636.4,470.36 633.203,464.094C632.476,462.67 634.611,461.367 638.437,461.378C653.371,461.419 668.304,461.461 683.237,461.502C686.964,461.512 690.6,462.789 691.449,464.255Z" style="fill:#e0d8cd;"/>
                                </g>
                                <g transform="matrix(1.6047,0,0,1,-490.483,-1.28167)">
                                    <path d="M700.45,461.589C698.577,467.85 696.703,474.111 694.83,480.372C694.372,481.903 692.092,483.191 689.722,483.18C672.598,483.106 655.474,483.031 638.35,482.956C635.955,482.946 634.571,481.625 635.129,480.111C637.435,473.851 639.741,467.591 642.047,461.33C642.592,459.85 644.889,458.606 647.196,458.617C663.839,458.69 680.483,458.764 697.126,458.838C699.458,458.849 700.888,460.126 700.45,461.589Z" style="fill:#e0d8cd;"/>
                                </g>
                            </g>
                            <g transform="matrix(1,0,0,1,17.6049,204.597)">
                                <g transform="matrix(1,0,0,1,-0.342769,-1.59961)">
                                    <path d="M691.116,421.888C688.636,428.432 686.156,434.975 683.676,441.519C683.078,443.098 679.467,444.465 675.489,444.454C659.567,444.412 643.645,444.369 627.722,444.327C623.662,444.316 621.285,442.899 621.977,441.355C624.909,434.811 627.84,428.268 630.772,421.725C631.456,420.198 635.049,418.877 638.92,418.887C654.391,418.929 669.861,418.971 685.332,419.013C689.279,419.024 691.683,420.393 691.116,421.888Z" style="fill:#e0d8cd;"/>
                                </g>
                                <g transform="matrix(1,0,0,1,69.3948,-1.59961)">
                                    <path d="M692.621,422.08C690.674,428.625 688.727,435.169 686.78,441.713C686.311,443.289 682.819,444.659 678.835,444.648C662.916,444.606 646.997,444.564 631.078,444.521C627.028,444.51 624.526,443.097 625.093,441.549C627.492,435.005 629.89,428.461 632.289,421.917C632.848,420.393 636.326,419.069 640.202,419.08C655.67,419.122 671.138,419.163 686.605,419.205C690.542,419.216 693.067,420.582 692.621,422.08Z" style="fill:#e0d8cd;"/>
                                </g>
                                <g transform="matrix(1,0,0,1,139.395,-1.59961)">
                                    <path d="M694.117,422.274C692.705,428.818 691.293,435.363 689.881,441.907C689.541,443.481 686.169,444.853 682.178,444.843C666.263,444.801 650.347,444.758 634.431,444.716C630.391,444.705 627.764,443.295 628.206,441.743C630.07,435.199 631.933,428.655 633.797,422.111C634.23,420.589 637.593,419.262 641.476,419.273C656.94,419.315 672.405,419.356 687.869,419.398C691.797,419.409 694.441,420.771 694.117,422.274Z" style="fill:#e0d8cd;"/>
                                </g>
                                <g transform="matrix(1,0,0,1,209.395,-1.59961)">
                                    <path d="M695.599,422.467C694.721,429.012 693.844,435.557 692.966,442.102C692.756,443.672 689.504,445.048 685.507,445.038C669.594,444.995 653.682,444.953 637.769,444.911C633.739,444.9 630.989,443.494 631.305,441.938C632.633,435.393 633.962,428.848 635.291,422.304C635.599,420.785 638.846,419.455 642.735,419.466C658.196,419.507 673.658,419.549 689.119,419.591C693.038,419.602 695.801,420.961 695.599,422.467Z" style="fill:#e0d8cd;"/>
                                </g>
                                <g transform="matrix(1,0,0,1,279.395,-1.59961)">
                                    <path d="M697.067,422.66C696.723,429.205 696.38,435.751 696.037,442.296C695.955,443.863 692.824,445.243 688.82,445.232C672.911,445.19 657.002,445.148 641.093,445.106C637.071,445.095 634.199,443.692 634.388,442.132C635.182,435.587 635.976,429.042 636.77,422.497C636.954,420.981 640.085,419.648 643.98,419.659C659.438,419.7 674.896,419.742 690.355,419.784C694.265,419.795 697.146,421.15 697.067,422.66Z" style="fill:#e0d8cd;"/>
                                </g>
                                <g transform="matrix(1,0,0,1,349.395,-1.59961)">
                                    <path d="M698.52,422.853C698.711,429.399 698.902,435.945 699.093,442.491C699.139,444.055 696.13,445.438 692.119,445.427C676.213,445.385 660.307,445.343 644.401,445.3C640.389,445.29 637.395,443.89 637.457,442.327C637.716,435.781 637.976,429.236 638.236,422.69C638.296,421.177 641.309,419.841 645.21,419.851C660.666,419.893 676.121,419.935 691.576,419.977C695.478,419.987 698.476,421.34 698.52,422.853Z" style="fill:#e0d8cd;"/>
                                </g>
                                <g transform="matrix(1,0,0,1,419.395,-1.59961)">
                                    <path d="M699.959,423.046C700.684,429.592 701.409,436.139 702.135,442.685C702.307,444.246 699.421,445.632 695.403,445.622C679.5,445.579 663.597,445.537 647.694,445.495C643.691,445.484 640.576,444.088 640.511,442.521C640.236,435.975 639.961,429.429 639.687,422.883C639.624,421.373 642.518,420.034 646.427,420.044C661.879,420.086 677.331,420.128 692.784,420.17C696.677,420.18 699.791,421.53 699.959,423.046Z" style="fill:#e0d8cd;"/>
                                </g>
                                <g transform="matrix(1,0,0,1,489.395,-1.59961)">
                                    <path d="M701.384,423.239C702.643,429.786 703.902,436.333 705.161,442.88C705.46,444.437 702.698,445.827 698.672,445.816C682.772,445.774 666.873,445.732 650.973,445.69C646.978,445.679 643.743,444.286 643.55,442.716C642.741,436.169 641.932,429.623 641.124,423.076C640.938,421.57 643.714,420.226 647.629,420.237C663.079,420.279 678.528,420.321 693.977,420.363C697.862,420.373 701.092,421.719 701.384,423.239Z" style="fill:#e0d8cd;"/>
                                </g>
                                <g transform="matrix(1,0,0,1,559.395,-1.59961)">
                                    <path d="M702.795,423.432C704.587,429.979 706.38,436.527 708.172,443.074C708.598,444.627 705.959,446.022 701.925,446.011C686.029,445.969 670.133,445.926 654.237,445.884C650.25,445.874 646.896,444.484 646.574,442.91C645.231,436.363 643.889,429.816 642.547,423.269C642.238,421.766 644.894,420.419 648.818,420.43C664.264,420.472 679.71,420.513 695.156,420.555C699.034,420.566 702.378,421.909 702.795,423.432Z" style="fill:#e0d8cd;"/>
                                </g>
                                <g transform="matrix(1,0,0,1,629.395,-1.59961)">
                                    <path d="M704.191,423.625C706.517,430.173 708.843,436.721 711.169,443.268C711.72,444.818 709.206,446.216 705.164,446.205C689.271,446.163 673.378,446.121 657.485,446.079C653.506,446.068 650.035,444.681 649.583,443.104C647.707,436.557 645.831,430.009 643.955,423.462C643.525,421.962 646.061,420.612 649.992,420.622C665.435,420.664 680.878,420.706 696.321,420.748C700.191,420.758 703.649,422.099 704.191,423.625Z" style="fill:#e0d8cd;"/>
                                </g>
                                <g transform="matrix(1,0,0,1,699.395,-1.59961)">
                                    <path d="M705.574,423.818C708.433,430.366 711.292,436.914 714.151,443.463C714.826,445.008 712.439,446.411 708.388,446.4C692.499,446.358 676.609,446.315 660.719,446.273C656.748,446.263 653.158,444.879 652.577,443.299C650.168,436.751 647.759,430.203 645.349,423.655C644.799,422.159 647.213,420.804 651.152,420.815C666.592,420.857 682.032,420.899 697.472,420.941C701.335,420.951 704.906,422.289 705.574,423.818Z" style="fill:#e0d8cd;"/>
                                </g>
                                <g transform="matrix(1.93946,0,0,1,167.467,-2.42322)">
                                    <path d="M702.296,424.628C704.25,431.174 706.204,437.72 708.157,444.266C708.636,445.87 707.421,447.212 705.405,447.202C687.25,447.108 669.094,447.015 650.939,446.921C648.931,446.911 646.995,445.558 646.625,443.948C645.121,437.403 643.617,430.858 642.112,424.313C641.756,422.764 643.023,421.464 644.988,421.475C662.629,421.567 680.271,421.66 697.912,421.753C699.866,421.763 701.831,423.071 702.296,424.628Z" style="fill:#e0d8cd;"/>
                                </g>
                                <g transform="matrix(1.88555,0,0,1,-687.11,-2.40797)">
                                    <path d="M692.914,422.16C691.316,428.7 689.718,435.24 688.119,441.779C687.726,443.387 685.723,444.723 683.65,444.713C665.517,444.622 647.384,444.531 629.251,444.44C627.167,444.43 625.926,443.069 626.427,441.47C628.477,434.931 630.527,428.392 632.577,421.853C633.064,420.298 635.097,419.007 637.114,419.017C654.733,419.107 672.352,419.197 689.971,419.287C692,419.297 693.292,420.615 692.914,422.16Z" style="fill:#e0d8cd;"/>
                                </g>
                            </g>
                            <g transform="matrix(1,0,0,1,52.8983,272.508)">
                                <g transform="matrix(1,0,0,1,-0.342769,-1.59961)">
                                    <path d="M681.927,383.54C679.618,390.374 677.31,397.207 675.002,404.041C674.445,405.688 670.769,407.117 666.653,407.106C650.192,407.063 633.731,407.02 617.269,406.978C613.078,406.967 610.559,405.49 611.216,403.875C613.996,397.042 616.776,390.209 619.556,383.375C620.204,381.781 623.865,380.4 627.868,380.411C643.858,380.453 659.847,380.496 675.837,380.538C679.911,380.549 682.455,381.977 681.927,383.54Z" style="fill:#e0d8cd;"/>
                                </g>
                                <g transform="matrix(1,0,0,1,-69.5524,0.707371)">
                                    <path d="M677.616,382.064C674.751,388.907 671.886,395.75 669.021,402.593C668.329,404.246 664.525,405.673 660.411,405.662C643.928,405.62 627.444,405.577 610.961,405.534C606.754,405.523 604.363,404.04 605.149,402.427C608.487,395.584 611.824,388.742 615.161,381.899C615.941,380.299 619.725,378.92 623.726,378.93C639.737,378.973 655.749,379.015 671.76,379.057C675.848,379.068 678.27,380.502 677.616,382.064Z" style="fill:#e0d8cd;"/>
                                </g>
                                <g transform="matrix(1,0,0,1,69.3948,-1.59961)">
                                    <path d="M685.824,383.735C684.072,390.569 682.32,397.403 680.568,404.237C680.147,405.881 676.594,407.313 672.472,407.302C656.015,407.259 639.557,407.217 623.099,407.174C618.918,407.163 616.269,405.69 616.796,404.071C619.019,397.237 621.242,390.404 623.466,383.57C623.983,381.979 627.525,380.595 631.533,380.605C647.52,380.648 663.506,380.69 679.493,380.732C683.557,380.743 686.226,382.167 685.824,383.735Z" style="fill:#e0d8cd;"/>
                                </g>
                                <g transform="matrix(1,0,0,1,139.395,-1.59961)">
                                    <path d="M689.721,383.93C688.527,390.764 687.334,397.599 686.14,404.433C685.853,406.075 682.426,407.509 678.298,407.499C661.843,407.456 645.389,407.413 628.935,407.371C624.764,407.36 621.986,405.89 622.381,404.267C624.046,397.433 625.71,390.599 627.375,383.765C627.762,382.177 631.182,380.79 635.198,380.8C651.181,380.843 667.164,380.885 683.147,380.927C687.202,380.938 689.995,382.359 689.721,383.93Z" style="fill:#e0d8cd;"/>
                                </g>
                                <g transform="matrix(1,0,0,1,209.395,-1.59961)">
                                    <path d="M693.602,384.125C692.967,390.96 692.332,397.795 691.696,404.63C691.544,406.268 688.242,407.706 684.107,407.696C667.656,407.653 651.205,407.61 634.755,407.567C630.593,407.557 627.687,406.091 627.951,404.464C629.057,397.63 630.163,390.795 631.269,383.961C631.526,382.375 634.825,380.985 638.847,380.995C654.827,381.038 670.807,381.08 686.786,381.122C690.832,381.133 693.749,382.55 693.602,384.125Z" style="fill:#e0d8cd;"/>
                                </g>
                                <g transform="matrix(1,0,0,1,279.395,-1.59961)">
                                    <path d="M697.469,384.32C697.391,391.156 697.314,397.991 697.236,404.826C697.218,406.461 694.043,407.903 689.901,407.892C673.453,407.85 657.006,407.807 640.558,407.764C636.406,407.753 633.373,406.291 633.504,404.661C634.052,397.826 634.6,390.991 635.149,384.156C635.276,382.573 638.452,381.18 642.481,381.19C658.457,381.233 674.434,381.275 690.411,381.317C694.447,381.328 697.487,382.742 697.469,384.32Z" style="fill:#e0d8cd;"/>
                                </g>
                                <g transform="matrix(1,0,0,1,349.395,-1.59961)">
                                    <path d="M701.32,384.516C701.8,391.351 702.281,398.187 702.761,405.023C702.876,406.654 699.828,408.1 695.679,408.089C679.235,408.046 662.791,408.004 646.347,407.961C642.204,407.95 639.044,406.492 639.042,404.857C639.032,398.022 639.022,391.186 639.013,384.351C639.01,382.772 642.064,381.375 646.1,381.385C662.073,381.428 678.047,381.47 694.02,381.512C698.047,381.523 701.209,382.933 701.32,384.516Z" style="fill:#e0d8cd;"/>
                                </g>
                                <g transform="matrix(1,0,0,1,419.395,-1.59961)">
                                    <path d="M705.156,384.711C706.194,391.547 707.232,398.383 708.27,405.219C708.517,406.847 705.598,408.296 701.44,408.286C685,408.243 668.559,408.2 652.119,408.158C647.985,408.147 644.7,406.692 644.564,405.054C643.997,398.218 643.429,391.382 642.862,384.546C642.731,382.97 645.661,381.57 649.704,381.58C665.674,381.623 681.644,381.665 697.614,381.707C701.633,381.718 704.915,383.125 705.156,384.711Z" style="fill:#e0d8cd;"/>
                                </g>
                                <g transform="matrix(1,0,0,1,489.395,-1.59961)">
                                    <path d="M708.977,384.906C710.572,391.742 712.168,398.579 713.763,405.416C714.142,407.04 711.352,408.493 707.187,408.482C690.749,408.439 674.312,408.397 657.875,408.354C653.75,408.343 650.34,406.892 650.07,405.25C648.945,398.414 647.82,391.577 646.695,384.741C646.437,383.169 649.242,381.764 653.293,381.775C669.26,381.817 685.226,381.86 701.193,381.902C705.204,381.913 708.606,383.317 708.977,384.906Z" style="fill:#e0d8cd;"/>
                                </g>
                                <g transform="matrix(1,0,0,1,559.395,-1.59961)">
                                    <path d="M712.783,385.101C714.935,391.938 717.088,398.775 719.24,405.612C719.75,407.232 717.091,408.689 712.917,408.679C696.483,408.636 680.049,408.593 663.616,408.551C659.499,408.54 655.966,407.091 655.561,405.446C653.879,398.61 652.196,391.773 650.514,384.936C650.128,383.368 652.808,381.959 656.866,381.97C672.83,382.012 688.794,382.055 704.757,382.097C708.76,382.107 712.282,383.508 712.783,385.101Z" style="fill:#e0d8cd;"/>
                                </g>
                                <g transform="matrix(1,0,0,1,629.395,-1.59961)">
                                    <path d="M716.574,385.296C719.283,392.133 721.992,398.971 724.702,405.808C725.342,407.424 722.813,408.886 718.631,408.875C702.201,408.833 685.771,408.79 669.341,408.747C665.232,408.737 661.576,407.291 661.036,405.643C658.796,398.805 656.557,391.968 654.317,385.131C653.805,383.567 656.359,382.154 660.425,382.165C676.386,382.207 692.346,382.249 708.306,382.292C712.301,382.302 715.942,383.7 716.574,385.296Z" style="fill:#e0d8cd;"/>
                                </g>
                                <g transform="matrix(2.45371,0,0,1,-229.307,-1.59961)">
                                    <path d="M708.046,385.724C709.648,392.562 711.251,399.401 712.853,406.239C713.252,407.942 712.228,409.317 710.606,409.307C691.301,409.184 671.997,409.061 652.692,408.938C651.066,408.928 649.49,407.532 649.209,405.833C648.076,398.996 646.943,392.158 645.81,385.32C645.538,383.677 646.62,382.344 648.202,382.354C666.955,382.476 685.708,382.598 704.46,382.719C706.043,382.73 707.661,384.081 708.046,385.724Z" style="fill:#e0d8cd;"/>
                                </g>
                                <g transform="matrix(1.28835,0,0,1,-341.729,0.187764)">
                                    <path d="M678.744,382.153C676.079,388.994 673.413,395.834 670.747,402.675C670.099,404.338 667.038,405.753 663.865,405.743C646.29,405.684 628.715,405.625 611.141,405.567C607.909,405.556 606.128,404.092 606.877,402.461C610.015,395.621 613.153,388.781 616.291,381.941C617.03,380.331 620.093,378.963 623.179,378.974C640.25,379.032 657.321,379.09 674.392,379.148C677.534,379.159 679.36,380.575 678.744,382.153Z" style="fill:#e0d8cd;"/>
                                </g>
                            </g>
                            <g transform="matrix(1,0,0,1,51.7047,336.928)">
                                <g transform="matrix(1,0,0,1,-12.8449,0.450292)">
                                    <path d="M670.51,347.133C667.988,354.258 665.467,361.384 662.946,368.51C662.337,370.229 658.507,371.717 654.256,371.706C637.242,371.663 620.228,371.62 603.214,371.577C598.881,371.566 596.309,370.026 597.02,368.342C600.033,361.217 603.046,354.092 606.059,346.966C606.763,345.302 610.576,343.863 614.71,343.874C631.232,343.916 647.755,343.959 664.277,344.002C668.487,344.013 671.087,345.502 670.51,347.133Z" style="fill:#e0d8cd;"/>
                                </g>
                                <g transform="matrix(1,0,0,1,-85.8139,0.450292)">
                                    <path d="M663.847,346.927C660.718,354.052 657.589,361.178 654.461,368.303C653.704,370.025 649.74,371.51 645.495,371.499C628.477,371.456 611.46,371.413 594.442,371.37C590.098,371.359 587.668,369.814 588.521,368.135C592.141,361.01 595.762,353.885 599.383,346.76C600.229,345.094 604.172,343.658 608.3,343.668C624.826,343.711 641.352,343.754 657.878,343.797C662.099,343.807 664.561,345.301 663.847,346.927Z" style="fill:#e0d8cd;"/>
                                </g>
                                <g transform="matrix(1,0,0,1,-156.735,0.450292)">
                                    <path d="M657.354,346.727C653.635,353.852 649.916,360.977 646.196,368.102C645.296,369.827 641.201,371.308 636.963,371.298C619.941,371.254 602.92,371.211 585.899,371.168C581.544,371.157 579.253,369.608 580.242,367.934C584.454,360.81 588.665,353.685 592.876,346.561C593.863,344.891 597.931,343.458 602.053,343.468C618.583,343.511 635.112,343.554 651.642,343.597C655.873,343.608 658.201,345.106 657.354,346.727Z" style="fill:#e0d8cd;"/>
                                </g>
                                <g transform="matrix(1,0,0,1,61.7459,0.450292)">
                                    <path d="M677.303,347.343C675.402,354.469 673.501,361.595 671.6,368.722C671.143,370.437 667.451,371.929 663.192,371.918C646.182,371.875 629.172,371.832 612.162,371.789C607.841,371.778 605.124,370.242 605.69,368.554C608.082,361.428 610.475,354.302 612.867,347.176C613.424,345.516 617.104,344.073 621.245,344.084C637.763,344.126 654.282,344.169 670.8,344.212C675,344.223 677.739,345.708 677.303,347.343Z" style="fill:#e0d8cd;"/>
                                </g>
                                <g transform="matrix(1,0,0,1,578.884,0.450292)">
                                    <path d="M723.897,348.799C726.293,355.928 728.689,363.057 731.085,370.187C731.652,371.875 728.942,373.396 724.627,373.385C707.644,373.342 690.661,373.299 673.678,373.255C669.426,373.245 665.737,371.736 665.278,370.02C663.373,362.891 661.467,355.762 659.561,348.633C659.124,346.997 661.857,345.527 666.051,345.538C682.544,345.581 699.037,345.624 715.53,345.666C719.663,345.677 723.339,347.137 723.897,348.799Z" style="fill:#e0d8cd;"/>
                                </g>
                                <g transform="matrix(1,0,0,1,508.521,0.450292)">
                                    <path d="M717.609,348.601C719.421,355.73 721.233,362.859 723.044,369.988C723.475,371.68 720.628,373.196 716.322,373.185C699.335,373.142 682.348,373.099 665.362,373.056C661.101,373.045 657.541,371.533 657.224,369.82C655.902,362.692 654.581,355.563 653.259,348.435C652.955,346.796 655.82,345.33 660.006,345.341C676.502,345.383 692.999,345.426 709.495,345.469C713.636,345.479 717.187,346.942 717.609,348.601Z" style="fill:#e0d8cd;"/>
                                </g>
                                <g transform="matrix(1,0,0,1,648.884,0.450292)">
                                    <path d="M730.137,348.996C733.113,356.125 736.09,363.255 739.067,370.385C739.77,372.069 737.196,373.594 732.873,373.583C715.893,373.54 698.914,373.497 681.934,373.454C677.691,373.443 673.874,371.937 673.274,370.218C670.788,363.088 668.301,355.959 665.814,348.829C665.245,347.198 667.846,345.724 672.049,345.735C688.538,345.778 705.028,345.82 721.518,345.863C725.642,345.874 729.442,347.331 730.137,348.996Z" style="fill:#e0d8cd;"/>
                                </g>
                                <g transform="matrix(1,0,0,1,790.39,0.450292)">
                                    <path d="M742.702,349.393C746.852,356.524 751.002,363.655 755.152,370.785C756.127,372.461 753.832,373.995 749.49,373.984C732.518,373.941 715.546,373.898 698.574,373.855C694.347,373.844 690.274,372.344 689.388,370.618C685.727,363.488 682.067,356.358 678.407,349.227C677.574,347.605 679.906,346.122 684.126,346.133C700.608,346.175 717.091,346.218 733.573,346.261C737.683,346.271 741.729,347.723 742.702,349.393Z" style="fill:#e0d8cd;"/>
                                </g>
                                <g transform="matrix(1,0,0,1,716.671,0.450292)">
                                    <path d="M736.164,349.186C739.703,356.316 743.242,363.447 746.78,370.577C747.614,372.257 745.174,373.786 740.842,373.775C723.866,373.732 706.89,373.689 689.914,373.646C685.679,373.635 681.738,372.132 681.002,370.41C677.953,363.28 674.904,356.15 671.855,349.02C671.159,347.393 673.631,345.915 677.842,345.926C694.328,345.968 710.815,346.011 727.301,346.054C731.418,346.064 735.336,347.518 736.164,349.186Z" style="fill:#e0d8cd;"/>
                                </g>
                                <g transform="matrix(6.12721,0,0,1,-3133.67,0.450292)">
                                    <path d="M698.894,348.4C699.093,355.529 699.293,362.658 699.492,369.786C699.545,371.68 698.962,372.993 698.351,372.984C677.143,372.654 655.935,372.325 634.727,371.995C634.114,371.986 633.549,370.651 633.627,368.761C633.918,361.634 634.21,354.508 634.501,347.382C634.576,345.55 635.232,344.279 635.825,344.289C656.421,344.615 677.016,344.942 697.612,345.269C698.205,345.278 698.843,346.571 698.894,348.4Z" style="fill:#e0d8cd;"/>
                                </g>
                            </g>
                        </g>
                    </g>
                </g>
            </g>
        </g>
        <g transform="matrix(1,0,0,1,-1.7053e-13,-10.7207)">
            <rect x="496.583" y="1057.19" width="926.835" height="7.573" style="fill:#878fa5;"/>
        </g>
    </g>
    <g id="Mouse" transform="matrix(-0.889007,0.457894,-0.457894,-0.889007,3231.15,963.088)">
        <path d="M1488.05,761.165C1514.57,761.165 1533.61,780.417 1533.61,817.49C1533.61,854.562 1515.04,877.748 1488.52,877.748C1462,877.748 1443.84,851.067 1443.84,813.995C1443.84,776.922 1461.53,761.165 1488.05,761.165Z" style="fill:#909090;"/>
        <clipPath id="_clip5">
            <path d="M1488.05,761.165C1514.57,761.165 1533.61,780.417 1533.61,817.49C1533.61,854.562 1515.04,877.748 1488.52,877.748C1462,877.748 1443.84,851.067 1443.84,813.995C1443.84,776.922 1461.53,761.165 1488.05,761.165Z"/>
        </clipPath>
        <g clip-path="url(#_clip5)">
            <g transform="matrix(-0.889007,-0.457894,0.457894,-0.889007,2426.58,2325.7)">
                <path d="M1505.93,864.348C1509.59,866.619 1512.7,869.341 1515.07,872.605C1517.07,875.362 1518.55,878.505 1519.38,882.09" style="fill:#99e5bd;"/>
                <path d="M1520.13,885.307C1518.84,885.604 1518.77,885.591 1517.65,884.89C1516.14,883.951 1516.41,883.677 1515.94,881.962C1513.74,873.864 1507.96,869.52 1504.18,867.152C1503.06,866.448 1503.02,866.391 1502.72,865.1C1502.71,865.084 1503.12,862.606 1503.12,862.601C1503.81,862.111 1504.36,861.329 1505.17,861.137C1506.68,860.784 1506.73,860.946 1508.04,861.772C1518.75,868.555 1521.54,876.908 1522.6,881.34C1522.91,882.657 1522.29,883.66 1522.18,883.832C1522.08,884.004 1521.46,885.002 1520.13,885.307Z" style="fill:#a7a7a7;"/>
            </g>
        </g>
    </g>
    <g id="Mug" transform="matrix(1.54678,0,0,1.54678,-406.319,-435.397)">
        <g transform="matrix(1,0,0,1,-545.316,-56.1629)">
            <ellipse cx="975.811" cy="807.187" rx="51.486" ry="16.196" style="fill:url(#_Radial6);"/>
        </g>
        <g transform="matrix(1,0,0,1,-545.316,-48.0271)">
            <ellipse cx="975.811" cy="807.187" rx="51.486" ry="16.196" style="fill:#493131;"/>
        </g>
        <g transform="matrix(1,0,0,1,-529.505,57.0972)">
            <path d="M1011.49,790.953L1011.49,807.187C1011.49,816.126 988.416,823.383 960,823.383C931.584,823.383 908.514,816.126 908.514,807.187L908.514,693.927C908.514,702.866 931.584,710.123 960,710.123C988.416,710.123 1011.49,702.866 1011.49,693.927L1011.49,718.259C1031.55,718.259 1047.83,734.545 1047.83,754.606C1047.83,774.666 1031.55,790.953 1011.49,790.953ZM1011.49,736.432L1011.49,772.779C1021.52,772.779 1029.66,764.636 1029.66,754.606C1029.66,744.576 1021.52,736.432 1011.49,736.432Z" style="fill:url(#_Radial7);"/>
        </g>
    </g>
    <g id="Post-it" transform="matrix(1,0,0,1,9.51339,45.1207)">
        <rect x="496.604" y="630.863" width="107.697" height="107.697" style="fill:#f7b86e;"/>
        <clipPath id="_clip8">
            <rect x="496.604" y="630.863" width="107.697" height="107.697"/>
        </clipPath>
        <g clip-path="url(#_clip8)">
            <g transform="matrix(1,0,0,1,-9.51339,-45.1207)">
                <rect x="506.118" y="675.984" width="107.697" height="17.399" style="fill:#ecb26c;"/>
            </g>
            <g transform="matrix(3.35989,0,0,3.25816,-1458.05,-1814.8)">
                <path d="M608.767,783.681L613.815,779.662L613.815,783.681" style="fill:#edb067;"/>
            </g>
        </g>
    </g>
    <g id="Clock" transform="matrix(1,0,0,1,-1.5786,8.23896)">
        <g id="Clock1" serif:id="Clock" transform="matrix(1.11937,0,0,1.11937,-125.756,-51.6333)">
            <circle cx="297.979" cy="228.124" r="106.963" style="fill:#d5c9bd;"/>
        </g>
        <g id="Clock2" serif:id="Clock" transform="matrix(1.07582,0,0,1.07582,-112.779,-41.6988)">
            <circle cx="297.979" cy="228.124" r="106.963" style="fill:#f2eeeb;"/>
        </g>
        <g transform="matrix(1.04141,0,0,1.04141,-8.60459,-8.43601)">
            <g transform="matrix(1.00535e-15,-3.28059,1.98401,7.4811e-16,-90.2923,885.406)">
                <path d="M207.793,203.722L207.793,96.766" style="fill:none;stroke:#000;stroke-width:1.05px;"/>
            </g>
            <g transform="matrix(-1.6403,-2.84107,1.7182,-0.992003,290.486,943.121)">
                <path d="M207.793,203.722L207.793,96.766" style="fill:none;stroke:#000;stroke-width:1.05px;"/>
            </g>
            <g transform="matrix(-2.84107,-1.6403,0.992003,-1.7182,649.106,802.714)">
                <path d="M207.793,203.722L207.793,96.766" style="fill:none;stroke:#000;stroke-width:1.05px;"/>
            </g>
            <g transform="matrix(-3.28059,-7.03373e-15,4.3939e-15,-1.98401,889.477,501.808)">
                <path d="M207.793,203.722L207.793,96.766" style="fill:none;stroke:#000;stroke-width:1.05px;"/>
            </g>
            <g transform="matrix(-2.84107,1.6403,-0.992003,-1.7182,947.192,121.03)">
                <path d="M207.793,203.722L207.793,96.766" style="fill:none;stroke:#000;stroke-width:1.05px;"/>
            </g>
            <g transform="matrix(-1.6403,2.84107,-1.7182,-0.992003,806.785,-237.591)">
                <path d="M207.793,203.722L207.793,96.766" style="fill:none;stroke:#000;stroke-width:1.05px;"/>
            </g>
            <g transform="matrix(-1.30621e-14,3.28059,-1.98401,-8.03968e-15,505.879,-477.962)">
                <path d="M207.793,203.722L207.793,96.766" style="fill:none;stroke:#000;stroke-width:1.05px;"/>
            </g>
            <g transform="matrix(1.6403,2.84107,-1.7182,0.992003,125.101,-535.676)">
                <path d="M207.793,203.722L207.793,96.766" style="fill:none;stroke:#000;stroke-width:1.05px;"/>
            </g>
        </g>
        <g id="Clock3" serif:id="Clock" transform="matrix(0.893724,0,0,0.904231,-58.5181,-2.55497)">
            <circle cx="297.979" cy="228.124" r="106.963" style="fill:#f2eeeb;"/>
        </g>
        <g transform="matrix(1,0,0,0.834862,0,33.6422)">
            <path d="M207.793,203.722L207.793,96.766" style="fill:none;stroke:#000;stroke-width:5.77px;"/>
        </g>
        <g transform="matrix(3.26992e-16,-1,0.511344,1.8699e-16,103.614,411.515)">
            <path d="M207.793,203.722L207.793,96.766" style="fill:none;stroke:#000;stroke-width:6.69px;"/>
        </g>
    </g>
    <defs>
        <radialGradient id="_Radial1" cx="0" cy="0" r="1" gradientUnits="userSpaceOnUse" gradientTransform="matrix(1030.97,44.3461,-6.40743,1061.51,935.86,647.56)"><stop offset="0" style="stop-color:#f2eeeb;stop-opacity:1"/><stop offset="0.52" style="stop-color:#eee9e4;stop-opacity:1"/><stop offset="1" style="stop-color:#e0d8cd;stop-opacity:1"/></radialGradient>
        <radialGradient id="_Radial2" cx="0" cy="0" r="1" gradientUnits="userSpaceOnUse" gradientTransform="matrix(8.91015e-14,63.9408,-163.133,2.27326e-13,965.514,800.058)"><stop offset="0" style="stop-color:#cbcbcb;stop-opacity:1"/><stop offset="1" style="stop-color:#898989;stop-opacity:1"/></radialGradient>
        <radialGradient id="_Radial3" cx="0" cy="0" r="1" gradientUnits="userSpaceOnUse" gradientTransform="matrix(369.162,2.01456,-2.17942,341.237,1010.96,598.966)"><stop offset="0" style="stop-color:#cbcbcb;stop-opacity:1"/><stop offset="0.52" style="stop-color:#bcbcbc;stop-opacity:1"/><stop offset="1" style="stop-color:#898989;stop-opacity:1"/></radialGradient>
        <radialGradient id="_Radial6" cx="0" cy="0" r="1" gradientUnits="userSpaceOnUse" gradientTransform="matrix(69.5793,0,0,240.273,975.811,863.817)"><stop offset="0" style="stop-color:#f39ba3;stop-opacity:1"/><stop offset="1" style="stop-color:#ed6673;stop-opacity:1"/></radialGradient>
        <radialGradient id="_Radial7" cx="0" cy="0" r="1" gradientUnits="userSpaceOnUse" gradientTransform="matrix(42.3188,0,0,240.273,960,750.557)"><stop offset="0" style="stop-color:#ed6673;stop-opacity:1"/><stop offset="1" style="stop-color:#d15b6f;stop-opacity:1"/></radialGradient>
    </defs>
</svg>
