
<svg width="55" height="37" viewBox="0 0 55 37" fill="none" xmlns="http://www.w3.org/2000/svg">
<path d="M10.0205 20.2642H7.09742V4.44544C7.09742 4.3117 7.04966 4.24484 6.95414 4.24484C6.87772 4.24484 6.81085 4.26394 6.75354 4.30215C6.69622 4.34036 6.63891 4.37857 6.5816 4.41678L2.16839 6.90995L0.850159 4.15886L5.77919 1.43643C6.16129 1.22628 6.54339 1.05434 6.92548 0.920602C7.30758 0.786868 7.68012 0.720001 8.04311 0.720001C8.65447 0.720001 9.13208 0.911049 9.47597 1.29314C9.83896 1.67524 10.0205 2.22928 10.0205 2.95526V20.2642Z" fill="black"/>
<path d="M15.391 20.5794C14.0919 20.5794 12.9456 20.3215 11.9521 19.8057C10.9778 19.2899 10.2231 18.5066 9.68821 17.4558L11.8662 16.2522C12.2292 16.9591 12.6877 17.4558 13.2417 17.7424C13.8148 18.0289 14.4931 18.1722 15.2764 18.1722C15.8304 18.1722 16.3176 18.1054 16.7379 17.9716C17.1582 17.8188 17.4925 17.5991 17.7409 17.3125C17.9892 17.0259 18.1134 16.6821 18.1134 16.2809C18.1134 15.7841 17.9128 15.4116 17.5116 15.1632C17.1295 14.9149 16.6328 14.7238 16.0215 14.5901C15.4292 14.4372 14.7796 14.294 14.0728 14.1602C13.385 14.0074 12.7354 13.7877 12.1241 13.5011C11.5318 13.2145 11.0351 12.8133 10.6339 12.2975C10.2518 11.7817 10.0608 11.0844 10.0608 10.2055C10.0608 9.38402 10.2805 8.65804 10.7199 8.02758C11.1784 7.37802 11.7993 6.87174 12.5826 6.50875C13.385 6.12666 14.2925 5.93561 15.305 5.93561C16.1838 5.93561 16.9576 6.05979 17.6263 6.30815C18.314 6.55651 18.8967 6.9004 19.3743 7.33981C19.8711 7.76012 20.2723 8.23774 20.5779 8.77267L18.4 10.0049C18.0943 9.39358 17.674 8.96372 17.1391 8.71536C16.6041 8.46699 16.0119 8.34281 15.3623 8.34281C14.9229 8.34281 14.5122 8.41923 14.1301 8.57207C13.7671 8.7058 13.471 8.9064 13.2417 9.17387C13.0124 9.44134 12.8978 9.76612 12.8978 10.1482C12.8978 10.6067 13.0889 10.9602 13.471 11.2085C13.8722 11.4569 14.3689 11.6575 14.9611 11.8103C15.5725 11.9632 16.2221 12.116 16.9098 12.2688C17.6167 12.4217 18.2663 12.6414 18.8585 12.928C19.4699 13.1954 19.9666 13.5871 20.3487 14.1029C20.7499 14.6187 20.9505 15.3256 20.9505 16.2235C20.9505 17.1024 20.6926 17.8761 20.1767 18.5448C19.68 19.1943 19.0018 19.7006 18.1421 20.0636C17.3015 20.4075 16.3844 20.5794 15.391 20.5794Z" fill="black"/>
<path d="M25.8869 20.6367C24.7406 20.6367 23.7663 20.4075 22.9639 19.949C22.1615 19.4905 21.5501 18.86 21.1298 18.0576C20.7286 17.2361 20.528 16.2904 20.528 15.2205V2.58272H23.3651V15.1346C23.3651 16.0516 23.6134 16.768 24.1102 17.2839C24.626 17.7997 25.3042 18.0576 26.1448 18.0576C26.6033 18.0576 27.0619 17.9812 27.5204 17.8283C27.998 17.6755 28.4087 17.4749 28.7526 17.2265V19.8343C28.3896 20.0636 27.9502 20.2546 27.4344 20.4075C26.9186 20.5603 26.4027 20.6367 25.8869 20.6367ZM28.7526 8.6867H17.7483V6.22218H28.7526V8.6867Z" fill="black"/>
<path d="M29.6466 20.5221C29.3218 20.5221 29.0161 20.4361 28.7296 20.2642C28.443 20.1114 28.2137 19.8917 28.0418 19.6051C27.8699 19.3185 27.7839 19.0033 27.7839 18.6594C27.7839 18.2964 27.8699 17.9812 28.0418 17.7137C28.2137 17.4462 28.443 17.2361 28.7296 17.0833C29.0161 16.9113 29.3218 16.8253 29.6466 16.8253C29.9905 16.8253 30.2962 16.9113 30.5636 17.0833C30.8502 17.2361 31.0795 17.4462 31.2514 17.7137C31.4233 17.9812 31.5093 18.2964 31.5093 18.6594C31.5093 19.0033 31.4233 19.3185 31.2514 19.6051C31.0795 19.8917 30.8502 20.1114 30.5636 20.2642C30.2962 20.4361 29.9905 20.5221 29.6466 20.5221Z" fill="#9682FF"/>
<path d="M36.4276 20.6081C35.0712 20.6081 33.858 20.2738 32.7881 19.6051C31.7374 18.9364 30.9063 18.048 30.295 16.94C29.6836 15.8128 29.3779 14.571 29.3779 13.2145C29.3779 11.8772 29.7027 10.6545 30.3523 9.54642C31.0209 8.41923 31.9189 7.53086 33.0461 6.8813C34.1732 6.21263 35.4437 5.87829 36.8575 5.87829C38.2712 5.87829 39.5417 6.20308 40.6689 6.85264C41.7961 7.4831 42.6844 8.35237 43.334 9.46044C44.0027 10.5685 44.337 11.8199 44.337 13.2145V20.2642H41.6432V15.0199L42.6176 14.2749C42.6176 15.4593 42.3501 16.5292 41.8152 17.4845C41.2993 18.4397 40.5733 19.2039 39.6372 19.777C38.7202 20.3311 37.6503 20.6081 36.4276 20.6081ZM36.8575 17.9143C37.7363 17.9143 38.5291 17.7042 39.236 17.2839C39.9429 16.8635 40.4969 16.3 40.8981 15.5931C41.2993 14.8671 41.4999 14.0838 41.4999 13.2432C41.4999 12.3835 41.2993 11.6002 40.8981 10.8933C40.4969 10.1864 39.9429 9.62283 39.236 9.20253C38.5291 8.76312 37.7363 8.54341 36.8575 8.54341C35.9786 8.54341 35.1858 8.76312 34.4789 9.20253C33.7911 9.62283 33.2371 10.1864 32.8168 10.8933C32.4156 11.6002 32.215 12.3835 32.215 13.2432C32.215 14.0838 32.4156 14.8671 32.8168 15.5931C33.2371 16.3 33.7911 16.8635 34.4789 17.2839C35.1858 17.7042 35.9786 17.9143 36.8575 17.9143Z" fill="black"/>
<path d="M49.9198 20.6367C48.7735 20.6367 47.7991 20.4075 46.9967 19.949C46.1943 19.4905 45.583 18.86 45.1627 18.0576C44.7615 17.2361 44.5609 16.2904 44.5609 15.2205V2.58272H47.3979V15.1346C47.3979 16.0516 47.6463 16.768 48.143 17.2839C48.6589 17.7997 49.3371 18.0576 50.1777 18.0576C50.6362 18.0576 51.0947 17.9812 51.5532 17.8283C52.0308 17.6755 52.4416 17.4749 52.7855 17.2265V19.8343C52.4225 20.0636 51.9831 20.2546 51.4673 20.4075C50.9514 20.5603 50.4356 20.6367 49.9198 20.6367ZM52.7855 8.6867H41.7811V6.22218H52.7855V8.6867Z" fill="black"/>
<path d="M10.0187 37C9.14755 37 8.33942 36.851 7.59433 36.553C6.84924 36.2435 6.19586 35.8193 5.63418 35.2806C5.08396 34.7304 4.6541 34.0884 4.3446 33.3548C4.04657 32.6097 3.89755 31.8073 3.89755 30.9476C3.89755 30.0879 4.04657 29.2912 4.3446 28.5576C4.6541 27.8125 5.08396 27.1706 5.63418 26.6318C6.19586 26.0816 6.84924 25.6575 7.59433 25.3595C8.33942 25.05 9.14755 24.8952 10.0187 24.8952C10.9014 24.8952 11.7095 25.05 12.4431 25.3595C13.1882 25.6575 13.8359 26.0816 14.3861 26.6318C14.9478 27.1706 15.3776 27.8125 15.6757 28.5576C15.9852 29.2912 16.1399 30.0879 16.1399 30.9476C16.1399 31.8073 15.9852 32.6097 15.6757 33.3548C15.3776 34.0884 14.9478 34.7304 14.3861 35.2806C13.8359 35.8193 13.1882 36.2435 12.4431 36.553C11.7095 36.851 10.9014 37 10.0187 37ZM10.0187 33.991C10.4199 33.991 10.7925 33.9165 11.1364 33.7675C11.4917 33.607 11.7955 33.3892 12.0477 33.1141C12.3113 32.839 12.5119 32.518 12.6495 32.1512C12.7985 31.7729 12.873 31.3717 12.873 30.9476C12.873 30.512 12.7985 30.1108 12.6495 29.744C12.5119 29.3772 12.3113 29.0562 12.0477 28.7811C11.7955 28.506 11.4917 28.294 11.1364 28.1449C10.7925 27.9845 10.4199 27.9042 10.0187 27.9042C9.61753 27.9042 9.23925 27.9845 8.8839 28.1449C8.54002 28.294 8.23625 28.506 7.9726 28.7811C7.72042 29.0562 7.51982 29.3772 7.3708 29.744C7.23325 30.1108 7.16447 30.512 7.16447 30.9476C7.16447 31.3717 7.23325 31.7729 7.3708 32.1512C7.51982 32.518 7.72042 32.839 7.9726 33.1141C8.23625 33.3892 8.54002 33.607 8.8839 33.7675C9.23925 33.9165 9.61753 33.991 10.0187 33.991Z" fill="black"/>
<path d="M23.0256 36.7421H19.8446V27.8011C19.8446 26.9872 20.0567 26.3395 20.4808 25.8581C20.9164 25.3767 21.6213 25.1359 22.5957 25.1359H28.4418V28.059H23.0256V36.7421ZM28.0463 33.2345H22.3378L21.9079 30.3114H28.0463V33.2345Z" fill="black"/>
<path d="M35.2268 36.7421H32.0458V27.8011C32.0458 26.9872 32.2579 26.3395 32.682 25.8581C33.1176 25.3767 33.8226 25.1359 34.7969 25.1359H40.643V28.059H35.2268V36.7421ZM40.2475 33.2345H34.539L34.1092 30.3114H40.2475V33.2345Z" fill="black"/>
<path d="M52.5347 34.7819H45.8806V31.9449H52.5347V34.7819ZM43.2154 36.7421L46.2072 26.9757C46.425 26.265 46.8033 25.7377 47.3421 25.3939C47.8808 25.05 48.4482 24.878 49.0443 24.878C49.6518 24.878 50.2192 25.05 50.7465 25.3939C51.2853 25.7377 51.6636 26.265 51.8814 26.9757L54.8732 36.7421H51.6235L49.1991 27.9042C49.1647 27.7896 49.1188 27.7323 49.0615 27.7323C49.0042 27.7323 48.9583 27.7896 48.9239 27.9042L46.4652 36.7421H43.2154Z" fill="black"/>
</svg>
