<svg width="956" height="642" viewBox="0 0 956 642" fill="none" xmlns="http://www.w3.org/2000/svg">
<path d="M162.275 345.848H110.55V65.9241C110.55 63.5576 109.705 62.3744 108.014 62.3744C106.662 62.3744 105.479 62.7125 104.464 63.3886C103.45 64.0648 102.436 64.7409 101.422 65.417L23.327 109.536L0 60.8531L87.2227 12.6777C93.9842 8.95893 100.746 5.91627 107.507 3.54978C114.269 1.18326 120.861 0 127.284 0C138.103 0 146.554 3.38072 152.64 10.1422C159.063 16.9036 162.275 26.7077 162.275 39.5545V345.848Z" fill="#42669B"/>
<path d="M257.31 351.426C234.321 351.426 214.037 346.862 196.457 337.734C179.215 328.607 165.862 314.746 156.396 296.152L194.936 274.853C201.359 287.362 209.473 296.152 219.277 301.223C229.419 306.294 241.421 308.829 255.282 308.829C265.086 308.829 273.707 307.646 281.144 305.28C288.582 302.575 294.498 298.687 298.893 293.616C303.288 288.545 305.486 282.46 305.486 275.36C305.486 266.57 301.936 259.978 294.836 255.583C288.075 251.188 279.285 247.807 268.467 245.441C257.986 242.736 246.492 240.201 233.983 237.834C221.813 235.129 210.318 231.242 199.5 226.171C189.02 221.099 180.23 214 173.13 204.872C166.369 195.744 162.988 183.404 162.988 167.853C162.988 153.316 166.876 140.469 174.651 129.313C182.765 117.818 193.753 108.859 207.613 102.436C221.813 95.6745 237.871 92.2938 255.789 92.2938C271.34 92.2938 285.032 94.4913 296.865 98.8862C309.035 103.281 319.347 109.366 327.798 117.142C336.588 124.58 343.688 133.032 349.097 142.498L310.557 164.303C305.147 153.485 297.71 145.878 288.244 141.483C278.778 137.088 268.298 134.891 256.803 134.891C249.027 134.891 241.759 136.243 234.997 138.948C228.574 141.314 223.334 144.864 219.277 149.597C215.22 154.33 213.192 160.077 213.192 166.839C213.192 174.953 216.572 181.207 223.334 185.602C230.433 189.997 239.223 193.547 249.704 196.251C260.522 198.956 272.016 201.66 284.187 204.365C296.696 207.069 308.19 210.957 318.67 216.028C329.489 220.761 338.279 227.692 345.04 236.82C352.14 245.948 355.689 258.456 355.689 274.346C355.689 289.897 351.125 303.589 341.997 315.422C333.207 326.916 321.206 335.875 305.993 342.298C291.117 348.384 274.89 351.426 257.31 351.426Z" fill="#42669B"/>
<path d="M443.043 352.441C422.758 352.441 405.517 348.384 391.318 340.27C377.119 332.156 366.3 321 358.863 306.801C351.763 292.264 348.213 275.529 348.213 256.597V32.9621H398.417V255.076C398.417 271.303 402.812 283.981 411.602 293.109C420.73 302.237 432.732 306.801 447.607 306.801C455.72 306.801 463.834 305.449 471.948 302.744C480.4 300.039 487.668 296.49 493.754 292.095V338.242C487.33 342.298 479.555 345.679 470.427 348.384C461.299 351.088 452.171 352.441 443.043 352.441ZM493.754 140.976H299.024V97.3649H493.754V140.976Z" fill="#42669B"/>
<path d="M509.573 350.412C503.826 350.412 498.417 348.891 493.346 345.848C488.274 343.144 484.218 339.256 481.175 334.185C478.132 329.114 476.611 323.535 476.611 317.45C476.611 311.027 478.132 305.449 481.175 300.716C484.218 295.983 488.274 292.264 493.346 289.559C498.417 286.517 503.826 284.995 509.573 284.995C515.658 284.995 521.068 286.517 525.801 289.559C530.872 292.264 534.928 295.983 537.971 300.716C541.014 305.449 542.535 311.027 542.535 317.45C542.535 323.535 541.014 329.114 537.971 334.185C534.928 339.256 530.872 343.144 525.801 345.848C521.068 348.891 515.658 350.412 509.573 350.412Z" fill="#F79839"/>
<path d="M629.568 351.934C605.565 351.934 584.097 346.017 565.165 334.185C546.571 322.352 531.865 306.632 521.046 287.024C510.228 267.077 504.819 245.103 504.819 221.099C504.819 197.434 510.566 175.798 522.061 156.19C533.893 136.243 549.783 120.523 569.729 109.028C589.675 97.1959 612.157 91.2796 637.174 91.2796C662.192 91.2796 684.674 97.0268 704.62 108.521C724.566 119.678 740.286 135.06 751.781 154.668C763.613 174.276 769.53 196.42 769.53 221.099V345.848H721.861V253.047L739.103 239.863C739.103 260.823 734.37 279.755 724.904 296.659C715.776 313.562 702.929 327.085 686.364 337.227C670.136 347.032 651.204 351.934 629.568 351.934ZM637.174 304.265C652.726 304.265 666.756 300.547 679.264 293.109C691.773 285.671 701.577 275.698 708.677 263.19C715.776 250.343 719.326 236.482 719.326 221.607C719.326 206.393 715.776 192.532 708.677 180.024C701.577 167.515 691.773 157.542 679.264 150.104C666.756 142.329 652.726 138.441 637.174 138.441C621.623 138.441 607.593 142.329 595.084 150.104C582.914 157.542 573.11 167.515 565.672 180.024C558.572 192.532 555.023 206.393 555.023 221.607C555.023 236.482 558.572 250.343 565.672 263.19C573.11 275.698 582.914 285.671 595.084 293.109C607.593 300.547 621.623 304.265 637.174 304.265Z" fill="#2A4060"/>
<path d="M868.321 352.441C848.036 352.441 830.795 348.384 816.596 340.27C802.397 332.156 791.578 321 784.141 306.801C777.041 292.264 773.492 275.529 773.492 256.597V32.9621H823.695V255.076C823.695 271.303 828.09 283.981 836.88 293.109C846.008 302.237 858.01 306.801 872.885 306.801C880.999 306.801 889.112 305.449 897.226 302.744C905.678 300.039 912.946 296.49 919.032 292.095V338.242C912.608 342.298 904.833 345.679 895.705 348.384C886.577 351.088 877.449 352.441 868.321 352.441ZM919.032 140.976H821.667H724.302V97.3649H919.032V140.976Z" fill="#2A4060"/>
<path d="M162.242 642.003C146.826 642.003 132.526 639.366 119.341 634.092C106.156 628.615 94.594 621.11 84.6546 611.577C74.9181 601.84 67.3115 590.481 61.8347 577.499C56.5608 564.314 53.9238 550.115 53.9238 534.902C53.9238 519.688 56.5608 505.591 61.8347 492.609C67.3115 479.424 74.9181 468.065 84.6546 458.531C94.594 448.795 106.156 441.289 119.341 436.016C132.526 430.539 146.826 427.8 162.242 427.8C177.861 427.8 192.162 430.539 205.144 436.016C218.328 441.289 229.789 448.795 239.526 458.531C249.465 468.065 257.072 479.424 262.346 492.609C267.822 505.591 270.561 519.688 270.561 534.902C270.561 550.115 267.822 564.314 262.346 577.499C257.072 590.481 249.465 601.84 239.526 611.577C229.789 621.11 218.328 628.615 205.144 634.092C192.162 639.366 177.861 642.003 162.242 642.003ZM162.242 588.757C169.342 588.757 175.934 587.438 182.02 584.801C188.308 581.961 193.683 578.107 198.146 573.239C202.811 568.371 206.361 562.691 208.795 556.2C211.432 549.506 212.75 542.407 212.75 534.902C212.75 527.194 211.432 520.094 208.795 513.603C206.361 507.112 202.811 501.433 198.146 496.564C193.683 491.696 188.308 487.943 182.02 485.307C175.934 482.467 169.342 481.047 162.242 481.047C155.143 481.047 148.449 482.467 142.161 485.307C136.075 487.943 130.7 491.696 126.035 496.564C121.572 501.433 118.022 507.112 115.385 513.603C112.951 520.094 111.734 527.194 111.734 534.902C111.734 542.407 112.951 549.506 115.385 556.2C118.022 562.691 121.572 568.371 126.035 573.239C130.7 578.107 136.075 581.961 142.161 584.801C148.449 587.438 155.143 588.757 162.242 588.757Z" fill="#36537D"/>
<path d="M392.407 637.439H336.118V479.221C336.118 464.819 339.871 453.359 347.376 444.839C355.084 436.32 367.559 432.06 384.8 432.06H488.251V483.785H392.407V637.439ZM481.253 575.369H380.236L372.63 523.644H481.253V575.369Z" fill="#36537D"/>
<path d="M608.317 637.439H552.027V479.221C552.027 464.819 555.78 453.359 563.285 444.839C570.993 436.32 583.468 432.06 600.71 432.06H704.16V483.785H608.317V637.439ZM697.162 575.369H596.146L588.539 523.644H697.162V575.369Z" fill="#36537D"/>
<path d="M914.593 602.753H796.842V552.549H914.593V602.753ZM749.681 637.439L802.623 464.616C806.477 452.04 813.171 442.709 822.705 436.624C832.238 430.539 842.279 427.496 852.827 427.496C863.578 427.496 873.618 430.539 882.949 436.624C892.483 442.709 899.177 452.04 903.031 464.616L955.973 637.439H898.467L855.565 481.047C854.957 479.018 854.145 478.004 853.131 478.004C852.117 478.004 851.306 479.018 850.697 481.047L807.187 637.439H749.681Z" fill="#36537D"/>
</svg>
