<?xml version="1.0" encoding="UTF-8" standalone="no"?><!DOCTYPE svg PUBLIC "-//W3C//DTD SVG 1.1//EN" "http://www.w3.org/Graphics/SVG/1.1/DTD/svg11.dtd"><svg width="100%" height="100%" viewBox="0 0 928 163" version="1.1" xmlns="http://www.w3.org/2000/svg" xmlns:xlink="http://www.w3.org/1999/xlink" xml:space="preserve" xmlns:serif="http://www.serif.com/" style="fill-rule:evenodd;clip-rule:evenodd;stroke-linejoin:round;stroke-miterlimit:2;"><g id="Keyboard"><path id="body" d="M927.417,154.468l-926.834,-0l90.7,-153.522l745.434,-0l90.7,153.522Z" style="fill:#878fa5;"/><clipPath id="_clip1"><path d="M927.417,154.468l-926.834,-0l90.7,-153.522l745.434,-0l90.7,153.522Z"/></clipPath><g clip-path="url(#_clip1)"><g><g><g><g><path d="M219.517,13.184c-1.793,4.487 -3.585,8.974 -5.378,13.461c-0.432,1.083 -3.002,2.02 -5.828,2.012c-11.306,-0.032 -22.612,-0.064 -33.919,-0.096c-2.887,-0.008 -4.565,-0.983 -4.07,-2.04c2.103,-4.487 4.205,-8.974 6.307,-13.46c0.491,-1.047 3.047,-1.952 5.799,-1.944c10.997,0.032 21.993,0.064 32.989,0.095c2.81,0.008 4.508,0.949 4.1,1.972Z" style="fill:#e0d8cd;"/></g><g><path d="M270.15,13.329c-1.426,4.488 -2.853,8.975 -4.28,13.463c-0.344,1.08 -2.831,2.02 -5.662,2.012c-11.304,-0.032 -22.608,-0.064 -33.913,-0.096c-2.88,-0.008 -4.644,-0.98 -4.234,-2.041c1.737,-4.487 3.473,-8.974 5.21,-13.461c0.404,-1.044 2.882,-1.951 5.638,-1.943c10.995,0.031 21.989,0.063 32.984,0.095c2.802,0.008 4.583,0.946 4.257,1.971Z" style="fill:#e0d8cd;"/></g><g><path d="M320.966,13.475c-1.06,4.488 -2.12,8.976 -3.18,13.464c-0.255,1.079 -2.66,2.021 -5.496,2.013c-11.302,-0.032 -22.604,-0.064 -33.906,-0.096c-2.873,-0.008 -4.723,-0.978 -4.399,-2.041c1.37,-4.488 2.739,-8.975 4.108,-13.463c0.319,-1.043 2.717,-1.951 5.478,-1.944c10.992,0.032 21.985,0.064 32.978,0.095c2.796,0.008 4.66,0.944 4.417,1.972Z" style="fill:#e0d8cd;"/></g><g><path d="M371.772,13.621c-0.693,4.489 -1.386,8.977 -2.08,13.465c-0.166,1.077 -2.489,2.021 -5.329,2.013c-11.3,-0.032 -22.6,-0.064 -33.9,-0.096c-2.866,-0.008 -4.801,-0.975 -4.563,-2.041c1.002,-4.488 2.005,-8.976 3.007,-13.464c0.233,-1.041 2.552,-1.952 5.317,-1.944c10.991,0.032 21.981,0.064 32.972,0.095c2.789,0.008 4.735,0.942 4.576,1.972Z" style="fill:#e0d8cd;"/></g><g><path d="M422.569,13.767c-0.326,4.489 -0.653,8.978 -0.98,13.466c-0.078,1.075 -2.317,2.022 -5.162,2.013c-11.298,-0.032 -22.596,-0.064 -33.894,-0.095c-2.86,-0.009 -4.88,-0.973 -4.728,-2.042c0.635,-4.488 1.271,-8.976 1.907,-13.465c0.147,-1.039 2.386,-1.952 5.156,-1.944c10.989,0.032 21.977,0.063 32.966,0.095c2.783,0.008 4.81,0.939 4.735,1.972Z" style="fill:#e0d8cd;"/></g><g><path d="M473.358,13.913c0.039,4.489 0.079,8.978 0.119,13.468c0.009,1.072 -2.146,2.021 -4.996,2.013c-11.296,-0.032 -22.592,-0.064 -33.888,-0.096c-2.853,-0.008 -4.957,-0.971 -4.893,-2.042c0.269,-4.488 0.539,-8.977 0.808,-13.466c0.062,-1.037 2.221,-1.952 4.995,-1.944c10.987,0.032 21.974,0.063 32.96,0.095c2.777,0.008 4.885,0.937 4.895,1.972Z" style="fill:#e0d8cd;"/></g><g><path d="M524.137,14.059c0.406,4.49 0.812,8.979 1.218,13.469c0.097,1.07 -1.975,2.021 -4.83,2.013c-11.294,-0.032 -22.587,-0.064 -33.881,-0.096c-2.847,-0.008 -5.035,-0.968 -5.058,-2.041c-0.097,-4.49 -0.194,-8.979 -0.291,-13.468c-0.022,-1.035 2.055,-1.952 4.834,-1.944c10.985,0.031 21.97,0.063 32.955,0.095c2.771,0.008 4.959,0.934 5.053,1.972Z" style="fill:#e0d8cd;"/></g><g><path d="M574.907,14.205c0.772,4.49 1.544,8.98 2.317,13.47c0.183,1.068 -1.804,2.022 -4.664,2.013c-11.292,-0.032 -22.583,-0.063 -33.875,-0.095c-2.841,-0.008 -5.111,-0.967 -5.222,-2.042c-0.464,-4.49 -0.927,-8.979 -1.39,-13.469c-0.107,-1.032 1.889,-1.953 4.673,-1.945c10.983,0.032 21.966,0.064 32.949,0.095c2.766,0.008 5.033,0.933 5.212,1.973Z" style="fill:#e0d8cd;"/></g><g><path d="M625.668,14.351c1.139,4.49 2.277,8.981 3.415,13.471c0.27,1.065 -1.632,2.022 -4.498,2.014c-11.289,-0.032 -22.579,-0.064 -33.869,-0.096c-2.835,-0.008 -5.187,-0.964 -5.386,-2.042c-0.83,-4.49 -1.659,-8.98 -2.488,-13.47c-0.191,-1.03 1.723,-1.953 4.513,-1.945c10.981,0.032 21.962,0.063 32.943,0.095c2.76,0.008 5.106,0.931 5.37,1.973Z" style="fill:#e0d8cd;"/></g><g><path d="M676.421,14.497c1.504,4.491 3.007,8.981 4.511,13.472c0.356,1.063 -1.459,2.022 -4.331,2.014c-11.288,-0.032 -22.575,-0.064 -33.863,-0.096c-2.829,-0.008 -5.263,-0.962 -5.551,-2.042c-1.195,-4.49 -2.39,-8.981 -3.585,-13.471c-0.274,-1.028 1.557,-1.953 4.352,-1.945c10.979,0.031 21.958,0.063 32.937,0.095c2.755,0.008 5.18,0.928 5.53,1.973Z" style="fill:#e0d8cd;"/></g><g><path d="M727.164,14.643c1.87,4.491 3.739,8.982 5.608,13.473c0.442,1.06 -1.287,2.022 -4.165,2.014c-11.285,-0.032 -22.571,-0.064 -33.856,-0.096c-2.825,-0.008 -5.339,-0.96 -5.715,-2.042c-1.561,-4.491 -3.122,-8.982 -4.683,-13.472c-0.357,-1.026 1.39,-1.954 4.192,-1.946c10.977,0.032 21.954,0.064 32.931,0.095c2.75,0.008 5.252,0.927 5.688,1.974Z" style="fill:#e0d8cd;"/></g><g><path d="M777.898,14.788c2.235,4.492 4.47,8.984 6.705,13.475c0.526,1.057 -1.115,2.023 -3.999,2.014c-11.284,-0.032 -22.567,-0.063 -33.851,-0.095c-2.819,-0.008 -5.414,-0.959 -5.879,-2.043c-1.926,-4.491 -3.853,-8.982 -5.78,-13.474c-0.438,-1.022 1.225,-1.953 4.032,-1.945c10.975,0.032 21.951,0.063 32.926,0.095c2.744,0.008 5.325,0.925 5.846,1.973Z" style="fill:#e0d8cd;"/></g><g><path d="M828.624,14.934c2.6,4.492 5.2,8.984 7.8,13.476c0.611,1.055 -0.943,2.023 -3.833,2.015c-11.281,-0.032 -22.563,-0.064 -33.844,-0.096c-2.814,-0.008 -5.489,-0.957 -6.044,-2.043c-2.292,-4.492 -4.584,-8.983 -6.876,-13.475c-0.52,-1.02 1.059,-1.953 3.872,-1.945c10.973,0.031 21.946,0.063 32.919,0.094c2.74,0.008 5.398,0.924 6.006,1.974Z" style="fill:#e0d8cd;"/></g><path d="M169.427,13.043c-2.154,4.487 -4.309,8.973 -6.463,13.46c-0.526,1.096 -3.199,2.02 -5.993,2.012c-20.171,-0.057 -40.342,-0.114 -60.513,-0.171c-2.825,-0.008 -4.463,-0.957 -3.823,-2.04c2.652,-4.487 5.303,-8.973 7.955,-13.459c0.626,-1.059 3.319,-1.951 6.04,-1.943c19.618,0.057 39.236,0.113 58.855,0.17c2.752,0.008 4.444,0.925 3.942,1.971Z" style="fill:#e0d8cd;"/></g><g><g><path d="M132.045,33.175c-2.455,4.692 -4.91,9.384 -7.366,14.076c-0.594,1.135 -3.382,2.112 -6.294,2.104c-11.681,-0.032 -23.362,-0.065 -35.043,-0.097c-2.993,-0.008 -4.584,-1.032 -3.931,-2.133c2.78,-4.691 5.559,-9.383 8.339,-14.074c0.65,-1.098 3.42,-2.041 6.255,-2.033c11.357,0.032 22.714,0.064 34.071,0.096c2.911,0.008 4.527,0.996 3.969,2.061Z" style="fill:#e0d8cd;"/></g><g><path d="M184.341,33.323c-2.073,4.692 -4.145,9.384 -6.218,14.076c-0.501,1.134 -3.204,2.113 -6.121,2.105c-11.678,-0.033 -23.357,-0.065 -35.036,-0.097c-2.985,-0.009 -4.667,-1.029 -4.103,-2.133c2.397,-4.692 4.794,-9.384 7.191,-14.076c0.56,-1.096 3.248,-2.041 6.087,-2.033c11.355,0.032 22.71,0.064 34.064,0.096c2.904,0.008 4.608,0.993 4.136,2.062Z" style="fill:#e0d8cd;"/></g><g><path d="M236.824,33.471c-1.689,4.692 -3.378,9.385 -5.067,14.077c-0.407,1.132 -3.025,2.113 -5.946,2.105c-11.676,-0.032 -23.353,-0.065 -35.03,-0.097c-2.977,-0.008 -4.75,-1.026 -4.275,-2.133c2.013,-4.693 4.026,-9.385 6.039,-14.077c0.469,-1.094 3.075,-2.041 5.918,-2.033c11.353,0.032 22.706,0.064 34.059,0.096c2.896,0.008 4.688,0.99 4.302,2.062Z" style="fill:#e0d8cd;"/></g><g><path d="M289.297,33.619c-1.305,4.693 -2.61,9.386 -3.915,14.078c-0.315,1.13 -2.847,2.113 -5.772,2.105c-11.675,-0.032 -23.349,-0.064 -35.023,-0.097c-2.971,-0.008 -4.833,-1.023 -4.448,-2.133c1.629,-4.693 3.258,-9.386 4.887,-14.078c0.379,-1.092 2.903,-2.042 5.75,-2.034c11.351,0.033 22.702,0.065 34.052,0.097c2.89,0.008 4.768,0.987 4.469,2.062Z" style="fill:#e0d8cd;"/></g><g><path d="M341.761,33.766c-0.922,4.694 -1.844,9.387 -2.765,14.081c-0.222,1.127 -2.668,2.113 -5.598,2.105c-11.672,-0.033 -23.344,-0.065 -35.016,-0.098c-2.964,-0.008 -4.915,-1.02 -4.62,-2.133c1.245,-4.693 2.491,-9.386 3.736,-14.079c0.289,-1.09 2.73,-2.042 5.582,-2.034c11.348,0.032 22.697,0.064 34.045,0.096c2.883,0.008 4.847,0.985 4.636,2.062Z" style="fill:#e0d8cd;"/></g><g><path d="M394.215,33.914c-0.539,4.694 -1.077,9.388 -1.615,14.082c-0.129,1.125 -2.489,2.113 -5.424,2.105c-11.67,-0.033 -23.34,-0.065 -35.01,-0.097c-2.956,-0.009 -4.996,-1.018 -4.791,-2.134c0.861,-4.694 1.723,-9.387 2.585,-14.08c0.2,-1.088 2.557,-2.042 5.413,-2.034c11.347,0.032 22.693,0.064 34.04,0.096c2.876,0.008 4.925,0.983 4.802,2.062Z" style="fill:#e0d8cd;"/></g><g><path d="M446.659,34.062c-0.155,4.694 -0.311,9.388 -0.466,14.083c-0.037,1.122 -2.309,2.113 -5.249,2.105c-11.668,-0.033 -23.335,-0.065 -35.003,-0.097c-2.95,-0.008 -5.078,-1.015 -4.964,-2.134c0.478,-4.694 0.957,-9.388 1.435,-14.082c0.111,-1.085 2.384,-2.042 5.245,-2.034c11.345,0.032 22.689,0.065 34.034,0.097c2.869,0.008 5.003,0.98 4.968,2.062Z" style="fill:#e0d8cd;"/></g><g><path d="M499.093,34.21c0.228,4.694 0.456,9.389 0.684,14.083c0.054,1.121 -2.13,2.114 -5.075,2.106c-11.666,-0.032 -23.331,-0.065 -34.997,-0.097c-2.943,-0.008 -5.159,-1.013 -5.136,-2.134c0.095,-4.694 0.191,-9.389 0.286,-14.083c0.022,-1.083 2.21,-2.042 5.077,-2.034c11.342,0.032 22.684,0.064 34.027,0.096c2.863,0.008 5.081,0.978 5.134,2.063Z" style="fill:#e0d8cd;"/></g><g><path d="M551.517,34.358c0.611,4.695 1.222,9.389 1.833,14.084c0.146,1.118 -1.951,2.114 -4.901,2.106c-11.663,-0.032 -23.327,-0.065 -34.99,-0.097c-2.937,-0.008 -5.239,-1.01 -5.308,-2.134c-0.288,-4.695 -0.576,-9.389 -0.864,-14.084c-0.066,-1.081 2.038,-2.042 4.909,-2.034c11.341,0.032 22.681,0.064 34.021,0.096c2.858,0.008 5.159,0.975 5.3,2.063Z" style="fill:#e0d8cd;"/></g><g><path d="M603.932,34.505c0.994,4.696 1.988,9.391 2.981,14.086c0.236,1.116 -1.771,2.114 -4.727,2.106c-11.661,-0.032 -23.322,-0.065 -34.983,-0.097c-2.931,-0.008 -5.319,-1.008 -5.48,-2.134c-0.671,-4.695 -1.342,-9.39 -2.012,-14.085c-0.155,-1.079 1.864,-2.043 4.74,-2.035c11.339,0.032 22.677,0.064 34.015,0.096c2.852,0.008 5.236,0.974 5.466,2.063Z" style="fill:#e0d8cd;"/></g><g><path d="M656.338,34.653c1.376,4.696 2.752,9.391 4.128,14.087c0.327,1.113 -1.591,2.114 -4.553,2.106c-11.659,-0.032 -23.318,-0.064 -34.977,-0.097c-2.924,-0.008 -5.398,-1.006 -5.652,-2.134c-1.053,-4.696 -2.107,-9.391 -3.16,-14.087c-0.242,-1.076 1.69,-2.042 4.573,-2.034c11.336,0.032 22.672,0.064 34.008,0.096c2.846,0.008 5.313,0.971 5.633,2.063Z" style="fill:#e0d8cd;"/></g><g><path d="M708.733,34.801c1.759,4.696 3.517,9.392 5.276,14.088c0.416,1.11 -1.412,2.114 -4.38,2.106c-11.657,-0.032 -23.313,-0.064 -34.97,-0.097c-2.919,-0.008 -5.477,-1.004 -5.823,-2.135c-1.436,-4.695 -2.872,-9.391 -4.308,-14.087c-0.329,-1.074 1.516,-2.043 4.405,-2.035c11.334,0.032 22.668,0.064 34.002,0.096c2.84,0.008 5.388,0.97 5.798,2.064Z" style="fill:#e0d8cd;"/></g><g><path d="M761.119,34.948c2.141,4.697 4.282,9.393 6.423,14.09c0.505,1.107 -1.232,2.114 -4.207,2.106c-11.654,-0.032 -23.308,-0.064 -34.963,-0.097c-2.913,-0.008 -5.556,-1.002 -5.995,-2.135c-1.818,-4.696 -3.637,-9.392 -5.455,-14.088c-0.415,-1.072 1.343,-2.044 4.237,-2.035c11.332,0.032 22.664,0.064 33.995,0.096c2.836,0.008 5.465,0.967 5.965,2.063Z" style="fill:#e0d8cd;"/></g></g><path d="M840.338,35.171c2.719,4.698 5.438,9.395 8.157,14.092c0.657,1.135 -1.036,2.115 -3.944,2.107c-20.783,-0.058 -41.565,-0.116 -62.348,-0.173c-2.877,-0.008 -5.629,-0.988 -6.167,-2.136c-2.201,-4.696 -4.403,-9.393 -6.605,-14.089c-0.514,-1.097 1.235,-2.044 4.069,-2.036c20.208,0.058 40.415,0.115 60.623,0.172c2.801,0.008 5.573,0.953 6.215,2.063Z" style="fill:#e0d8cd;"/><g><g><path d="M202.981,54.575c-1.96,4.905 -3.92,9.811 -5.88,14.716c-0.473,1.184 -3.226,2.208 -6.241,2.2c-12.067,-0.033 -24.133,-0.066 -36.2,-0.098c-3.08,-0.009 -4.861,-1.073 -4.319,-2.229c2.298,-4.905 4.596,-9.81 6.895,-14.715c0.537,-1.145 3.276,-2.135 6.21,-2.127c11.728,0.033 23.456,0.065 35.184,0.098c2.995,0.008 4.798,1.036 4.351,2.155Z" style="fill:#e0d8cd;"/></g><g><path d="M256.988,54.724c-1.561,4.906 -3.121,9.811 -4.681,14.717c-0.376,1.182 -3.041,2.209 -6.06,2.2c-12.064,-0.032 -24.129,-0.065 -36.193,-0.098c-3.072,-0.008 -4.947,-1.07 -4.499,-2.229c1.899,-4.906 3.798,-9.811 5.696,-14.716c0.443,-1.143 3.097,-2.135 6.035,-2.127c11.726,0.033 23.452,0.065 35.178,0.098c2.987,0.008 4.88,1.033 4.524,2.155Z" style="fill:#e0d8cd;"/></g><g><path d="M311.187,54.874c-1.159,4.906 -2.318,9.812 -3.478,14.718c-0.278,1.18 -2.853,2.209 -5.877,2.2c-12.062,-0.032 -24.124,-0.065 -36.186,-0.098c-3.065,-0.008 -5.034,-1.067 -4.679,-2.229c1.498,-4.906 2.995,-9.812 4.493,-14.718c0.348,-1.141 2.915,-2.134 5.858,-2.126c11.724,0.032 23.447,0.065 35.171,0.097c2.98,0.008 4.964,1.031 4.698,2.156Z" style="fill:#e0d8cd;"/></g><g><path d="M365.376,55.023c-0.758,4.907 -1.517,9.813 -2.275,14.72c-0.182,1.177 -2.667,2.208 -5.696,2.2c-12.059,-0.033 -24.119,-0.065 -36.178,-0.098c-3.058,-0.008 -5.12,-1.064 -4.859,-2.23c1.096,-4.906 2.193,-9.812 3.289,-14.718c0.255,-1.139 2.735,-2.135 5.683,-2.127c11.721,0.033 23.443,0.065 35.164,0.098c2.973,0.008 5.046,1.028 4.872,2.155Z" style="fill:#e0d8cd;"/></g><g><path d="M419.555,55.173c-0.358,4.907 -0.716,9.814 -1.073,14.72c-0.086,1.175 -2.48,2.209 -5.514,2.201c-12.057,-0.033 -24.114,-0.065 -36.172,-0.098c-3.05,-0.008 -5.204,-1.061 -5.038,-2.23c0.695,-4.906 1.391,-9.813 2.087,-14.719c0.161,-1.137 2.554,-2.135 5.506,-2.127c11.719,0.032 23.439,0.065 35.158,0.097c2.966,0.008 5.128,1.025 5.046,2.156Z" style="fill:#e0d8cd;"/></g><g><path d="M473.723,55.322c0.043,4.908 0.086,9.815 0.128,14.722c0.011,1.173 -2.292,2.209 -5.331,2.201c-12.055,-0.033 -24.11,-0.065 -36.165,-0.098c-3.043,-0.008 -5.289,-1.059 -5.218,-2.23c0.295,-4.907 0.59,-9.814 0.885,-14.721c0.068,-1.134 2.373,-2.135 5.33,-2.127c11.717,0.033 23.434,0.065 35.151,0.097c2.96,0.009 5.21,1.023 5.22,2.156Z" style="fill:#e0d8cd;"/></g><g><path d="M527.881,55.472c0.443,4.908 0.886,9.815 1.329,14.723c0.106,1.17 -2.105,2.209 -5.15,2.201c-12.052,-0.033 -24.105,-0.066 -36.157,-0.098c-3.037,-0.009 -5.373,-1.057 -5.398,-2.23c-0.106,-4.908 -0.211,-9.815 -0.317,-14.722c-0.024,-1.132 2.192,-2.136 5.155,-2.127c11.715,0.032 23.429,0.064 35.144,0.097c2.954,0.008 5.291,1.02 5.394,2.156Z" style="fill:#e0d8cd;"/></g><g><path d="M582.028,55.621c0.843,4.908 1.687,9.816 2.53,14.724c0.201,1.168 -1.917,2.21 -4.968,2.202c-12.05,-0.033 -24.1,-0.066 -36.15,-0.099c-3.03,-0.008 -5.457,-1.053 -5.578,-2.23c-0.506,-4.907 -1.012,-9.815 -1.518,-14.723c-0.116,-1.129 2.011,-2.135 4.979,-2.127c11.713,0.032 23.425,0.065 35.138,0.097c2.947,0.008 5.371,1.018 5.567,2.156Z" style="fill:#e0d8cd;"/></g><g><path d="M636.165,55.771c1.243,4.908 2.487,9.817 3.73,14.725c0.295,1.165 -1.73,2.21 -4.786,2.201c-12.048,-0.032 -24.096,-0.065 -36.143,-0.098c-3.024,-0.008 -5.54,-1.051 -5.758,-2.23c-0.906,-4.908 -1.812,-9.816 -2.718,-14.724c-0.208,-1.127 1.83,-2.136 4.803,-2.128c11.711,0.033 23.421,0.065 35.131,0.097c2.942,0.009 5.452,1.017 5.741,2.157Z" style="fill:#e0d8cd;"/></g><g><path d="M690.291,55.92c1.644,4.909 3.287,9.818 4.93,14.727c0.389,1.162 -1.542,2.21 -4.604,2.201c-12.046,-0.032 -24.091,-0.065 -36.137,-0.098c-3.017,-0.008 -5.622,-1.049 -5.937,-2.23c-1.306,-4.909 -2.612,-9.817 -3.918,-14.726c-0.299,-1.124 1.649,-2.136 4.628,-2.127c11.708,0.032 23.416,0.064 35.124,0.097c2.936,0.008 5.532,1.014 5.914,2.156Z" style="fill:#e0d8cd;"/></g><g><path d="M744.407,56.07c2.043,4.909 4.086,9.818 6.13,14.727c0.482,1.159 -1.355,2.21 -4.424,2.202c-12.043,-0.033 -24.086,-0.065 -36.129,-0.098c-3.012,-0.008 -5.705,-1.047 -6.116,-2.231c-1.706,-4.909 -3.412,-9.817 -5.118,-14.726c-0.39,-1.122 1.467,-2.136 4.452,-2.128c11.706,0.032 23.412,0.065 35.118,0.097c2.93,0.008 5.611,1.012 6.087,2.157Z" style="fill:#e0d8cd;"/></g><g><path d="M798.513,56.219c2.443,4.91 4.885,9.819 7.328,14.729c0.575,1.156 -1.167,2.21 -4.242,2.202c-12.041,-0.033 -24.081,-0.066 -36.122,-0.098c-3.006,-0.009 -5.787,-1.046 -6.296,-2.231c-2.105,-4.91 -4.211,-9.819 -6.316,-14.728c-0.48,-1.119 1.285,-2.136 4.276,-2.128c11.704,0.032 23.407,0.065 35.111,0.097c2.925,0.008 5.69,1.01 6.261,2.157Z" style="fill:#e0d8cd;"/></g><g><path d="M852.608,56.369c2.842,4.909 5.684,9.819 8.526,14.729c0.668,1.153 -0.978,2.211 -4.06,2.202c-12.038,-0.032 -24.077,-0.065 -36.115,-0.098c-3.001,-0.008 -5.869,-1.043 -6.475,-2.231c-2.505,-4.909 -5.01,-9.819 -7.515,-14.728c-0.57,-1.116 1.103,-2.137 4.101,-2.129c11.701,0.033 23.402,0.065 35.104,0.097c2.92,0.008 5.769,1.008 6.434,2.158Z" style="fill:#e0d8cd;"/></g><path d="M149.507,54.529c-2.356,4.906 -4.712,9.811 -7.068,14.717c-0.576,1.2 -3.442,2.209 -6.422,2.201c-21.531,-0.059 -43.063,-0.117 -64.594,-0.176c-3.012,-0.008 -4.752,-1.043 -4.051,-2.229c2.9,-4.905 5.799,-9.811 8.699,-14.716c0.685,-1.16 3.574,-2.134 6.474,-2.126c20.928,0.057 41.855,0.115 62.782,0.173c2.932,0.008 4.73,1.01 4.18,2.156Z" style="fill:#e0d8cd;"/></g><g><g><path d="M208.155,76.937c-1.943,5.128 -3.886,10.255 -5.83,15.382c-0.469,1.238 -3.298,2.308 -6.415,2.3c-12.476,-0.033 -24.952,-0.066 -37.428,-0.099c-3.181,-0.009 -5.044,-1.119 -4.502,-2.329c2.297,-5.127 4.594,-10.254 6.892,-15.381c0.536,-1.197 3.351,-2.232 6.384,-2.224c12.122,0.033 24.244,0.066 36.367,0.099c3.092,0.008 4.976,1.081 4.532,2.252Z" style="fill:#e0d8cd;"/></g><g><path d="M263.978,77.088c-1.526,5.128 -3.051,10.256 -4.577,15.383c-0.368,1.235 -3.103,2.309 -6.226,2.3c-12.473,-0.033 -24.947,-0.066 -37.42,-0.099c-3.173,-0.009 -5.134,-1.116 -4.689,-2.329c1.879,-5.128 3.758,-10.255 5.638,-15.383c0.438,-1.194 3.163,-2.231 6.201,-2.223c12.119,0.033 24.239,0.065 36.359,0.098c3.085,0.009 5.063,1.079 4.714,2.253Z" style="fill:#e0d8cd;"/></g><g><path d="M320,77.239c-1.107,5.129 -2.214,10.257 -3.32,15.385c-0.266,1.232 -2.908,2.308 -6.035,2.3c-12.471,-0.033 -24.942,-0.066 -37.413,-0.099c-3.166,-0.009 -5.224,-1.114 -4.878,-2.33c1.461,-5.128 2.921,-10.255 4.381,-15.383c0.339,-1.193 2.975,-2.232 6.017,-2.224c12.117,0.033 24.234,0.066 36.352,0.098c3.078,0.009 5.149,1.076 4.896,2.253Z" style="fill:#e0d8cd;"/></g><g><path d="M376.01,77.391c-0.688,5.128 -1.375,10.257 -2.063,15.385c-0.165,1.231 -2.713,2.309 -5.845,2.3c-12.468,-0.033 -24.937,-0.066 -37.405,-0.099c-3.158,-0.008 -5.313,-1.11 -5.066,-2.329c1.042,-5.129 2.083,-10.257 3.124,-15.385c0.241,-1.19 2.786,-2.232 5.832,-2.224c12.115,0.033 24.23,0.066 36.345,0.099c3.071,0.008 5.236,1.073 5.078,2.253Z" style="fill:#e0d8cd;"/></g><g><path d="M432.009,77.542c-0.269,5.129 -0.537,10.258 -0.806,15.387c-0.065,1.227 -2.518,2.308 -5.655,2.3c-12.466,-0.033 -24.932,-0.066 -37.398,-0.099c-3.151,-0.009 -5.401,-1.108 -5.253,-2.33c0.622,-5.128 1.244,-10.257 1.866,-15.386c0.145,-1.188 2.597,-2.232 5.649,-2.224c12.113,0.033 24.225,0.066 36.338,0.099c3.064,0.008 5.321,1.07 5.259,2.253Z" style="fill:#e0d8cd;"/></g><g><path d="M487.998,77.693c0.149,5.13 0.299,10.259 0.449,15.388c0.035,1.225 -2.322,2.309 -5.465,2.301c-12.463,-0.034 -24.927,-0.067 -37.39,-0.1c-3.144,-0.008 -5.49,-1.105 -5.441,-2.33c0.203,-5.128 0.407,-10.257 0.61,-15.386c0.047,-1.186 2.408,-2.233 5.465,-2.224c12.11,0.032 24.22,0.065 36.331,0.098c3.057,0.008 5.406,1.068 5.441,2.253Z" style="fill:#e0d8cd;"/></g><g><path d="M543.975,77.845c0.568,5.129 1.136,10.259 1.704,15.388c0.135,1.223 -2.126,2.309 -5.275,2.301c-12.46,-0.033 -24.921,-0.066 -37.382,-0.099c-3.137,-0.009 -5.578,-1.102 -5.629,-2.33c-0.215,-5.129 -0.43,-10.259 -0.646,-15.388c-0.049,-1.183 2.219,-2.233 5.282,-2.224c12.107,0.032 24.215,0.065 36.323,0.098c3.051,0.008 5.491,1.065 5.623,2.254Z" style="fill:#e0d8cd;"/></g><g><path d="M599.94,77.996c0.987,5.13 1.973,10.26 2.96,15.39c0.234,1.219 -1.93,2.309 -5.085,2.301c-12.458,-0.034 -24.917,-0.067 -37.375,-0.1c-3.13,-0.008 -5.665,-1.099 -5.817,-2.33c-0.633,-5.129 -1.267,-10.259 -1.9,-15.389c-0.146,-1.18 2.029,-2.233 5.097,-2.224c12.106,0.032 24.211,0.065 36.316,0.098c3.045,0.008 5.575,1.063 5.804,2.254Z" style="fill:#e0d8cd;"/></g><g><path d="M655.895,78.147c1.405,5.13 2.809,10.261 4.214,15.391c0.333,1.217 -1.734,2.309 -4.895,2.301c-12.456,-0.033 -24.912,-0.066 -37.367,-0.099c-3.124,-0.009 -5.752,-1.098 -6.005,-2.331c-1.051,-5.13 -2.103,-10.26 -3.155,-15.39c-0.242,-1.177 1.84,-2.233 4.914,-2.224c12.103,0.032 24.206,0.065 36.309,0.098c3.038,0.008 5.658,1.061 5.985,2.254Z" style="fill:#e0d8cd;"/></g><g><path d="M711.839,78.298c1.822,5.131 3.645,10.262 5.467,15.392c0.432,1.214 -1.538,2.31 -4.705,2.301c-12.453,-0.033 -24.906,-0.066 -37.359,-0.099c-3.118,-0.008 -5.838,-1.095 -6.192,-2.33c-1.47,-5.131 -2.94,-10.261 -4.41,-15.391c-0.337,-1.175 1.65,-2.234 4.73,-2.225c12.101,0.032 24.201,0.065 36.302,0.098c3.032,0.008 5.742,1.059 6.167,2.254Z" style="fill:#e0d8cd;"/></g><g><path d="M767.771,78.449c2.241,5.131 4.481,10.262 6.721,15.393c0.529,1.211 -1.341,2.31 -4.515,2.302c-12.451,-0.033 -24.902,-0.066 -37.352,-0.099c-3.112,-0.009 -5.924,-1.093 -6.38,-2.331c-1.888,-5.131 -3.775,-10.261 -5.663,-15.392c-0.432,-1.172 1.46,-2.234 4.547,-2.225c12.098,0.032 24.196,0.065 36.294,0.098c3.027,0.008 5.825,1.057 6.348,2.254Z" style="fill:#e0d8cd;"/></g><path d="M865.384,78.439c2.969,5.129 5.938,10.258 8.906,15.387c0.728,1.257 -1.119,2.309 -4.182,2.301c-27.59,-0.074 -55.181,-0.147 -82.771,-0.22c-3.052,-0.008 -5.994,-1.068 -6.556,-2.33c-2.286,-5.128 -4.572,-10.256 -6.858,-15.385c-0.541,-1.214 1.384,-2.232 4.37,-2.224c26.809,0.073 53.619,0.145 80.429,0.218c2.968,0.008 5.955,1.033 6.662,2.253Z" style="fill:#e0d8cd;"/><path d="M152.241,76.517c-2.361,5.124 -4.723,10.249 -7.084,15.373c-0.581,1.26 -3.541,2.307 -6.603,2.299c-26.791,-0.072 -53.581,-0.143 -80.372,-0.214c-3.078,-0.008 -4.912,-1.074 -4.172,-2.328c3.029,-5.123 6.058,-10.247 9.086,-15.371c0.72,-1.218 3.723,-2.23 6.704,-2.222c26.031,0.071 52.061,0.141 78.092,0.212c2.998,0.008 4.907,1.041 4.349,2.251Z" style="fill:#e0d8cd;"/></g><g><g><path d="M228.609,100.102c-1.809,5.355 -3.617,10.709 -5.426,16.064c-0.436,1.29 -3.317,2.41 -6.542,2.401c-12.898,-0.033 -25.797,-0.067 -38.695,-0.1c-3.284,-0.009 -5.258,-1.166 -4.743,-2.432c2.178,-5.354 4.356,-10.708 6.534,-16.062c0.509,-1.249 3.377,-2.331 6.514,-2.323c12.529,0.033 25.057,0.066 37.586,0.1c3.192,0.008 5.186,1.127 4.772,2.352Z" style="fill:#e0d8cd;"/></g><g><path d="M171.001,100.753c-2.245,5.362 -4.49,10.724 -6.735,16.086c-0.542,1.295 -3.522,2.413 -6.746,2.405c-12.916,-0.034 -25.832,-0.067 -38.747,-0.101c-3.296,-0.008 -5.17,-1.171 -4.554,-2.434c2.615,-5.362 5.23,-10.724 7.845,-16.085c0.611,-1.254 3.576,-2.335 6.711,-2.327c12.546,0.034 25.092,0.067 37.637,0.1c3.204,0.008 5.101,1.132 4.589,2.356Z" style="fill:#e0d8cd;"/></g><g><path d="M286.307,100.254c-1.373,5.355 -2.746,10.71 -4.119,16.065c-0.33,1.289 -3.114,2.41 -6.343,2.402c-12.896,-0.034 -25.792,-0.067 -38.687,-0.101c-3.277,-0.008 -5.352,-1.162 -4.939,-2.431c1.742,-5.355 3.484,-10.709 5.226,-16.064c0.406,-1.247 3.18,-2.331 6.321,-2.323c12.527,0.034 25.053,0.067 37.58,0.1c3.184,0.008 5.275,1.124 4.961,2.352Z" style="fill:#e0d8cd;"/></g><g><path d="M344.209,100.407c-0.935,5.356 -1.87,10.711 -2.805,16.066c-0.225,1.286 -2.911,2.41 -6.146,2.402c-12.892,-0.033 -25.785,-0.067 -38.678,-0.1c-3.269,-0.009 -5.445,-1.16 -5.136,-2.432c1.305,-5.355 2.609,-10.71 3.914,-16.065c0.303,-1.244 2.983,-2.331 6.129,-2.323c12.524,0.033 25.048,0.067 37.571,0.1c3.177,0.008 5.366,1.121 5.151,2.352Z" style="fill:#e0d8cd;"/></g><g><path d="M402.1,100.56c-0.498,5.356 -0.996,10.712 -1.494,16.067c-0.119,1.284 -2.706,2.411 -5.946,2.402c-12.89,-0.033 -25.781,-0.067 -38.671,-0.1c-3.261,-0.009 -5.538,-1.157 -5.331,-2.432c0.867,-5.355 1.733,-10.71 2.6,-16.066c0.201,-1.242 2.786,-2.331 5.938,-2.323c12.521,0.033 25.042,0.066 37.563,0.1c3.17,0.008 5.456,1.118 5.341,2.352Z" style="fill:#e0d8cd;"/></g><g><path d="M459.979,100.713c-0.061,5.356 -0.121,10.712 -0.182,16.068c-0.015,1.281 -2.502,2.411 -5.748,2.402c-12.888,-0.033 -25.775,-0.067 -38.663,-0.1c-3.253,-0.008 -5.63,-1.154 -5.527,-2.432c0.429,-5.355 0.859,-10.711 1.288,-16.067c0.1,-1.24 2.589,-2.332 5.745,-2.323c12.519,0.033 25.038,0.066 37.557,0.099c3.162,0.009 5.544,1.116 5.53,2.353Z" style="fill:#e0d8cd;"/></g><g><path d="M517.846,100.866c0.376,5.356 0.753,10.713 1.129,16.069c0.09,1.278 -2.298,2.411 -5.549,2.402c-12.885,-0.033 -25.77,-0.066 -38.655,-0.1c-3.246,-0.008 -5.722,-1.151 -5.724,-2.432c-0.007,-5.356 -0.015,-10.712 -0.023,-16.068c-0.001,-1.237 2.391,-2.332 5.554,-2.323c12.516,0.033 25.032,0.066 37.548,0.099c3.156,0.008 5.633,1.113 5.72,2.353Z" style="fill:#e0d8cd;"/></g><g><path d="M575.701,101.019c0.814,5.357 1.627,10.713 2.44,16.07c0.194,1.275 -2.093,2.411 -5.351,2.403c-12.882,-0.034 -25.765,-0.067 -38.647,-0.101c-3.239,-0.008 -5.813,-1.148 -5.919,-2.432c-0.445,-5.356 -0.89,-10.713 -1.334,-16.069c-0.103,-1.234 2.193,-2.332 5.361,-2.324c12.513,0.033 25.027,0.067 37.541,0.1c3.149,0.008 5.721,1.111 5.909,2.353Z" style="fill:#e0d8cd;"/></g><g><path d="M633.545,101.172c1.25,5.357 2.5,10.714 3.749,16.071c0.297,1.272 -1.888,2.411 -5.152,2.403c-12.88,-0.034 -25.759,-0.067 -38.639,-0.101c-3.232,-0.008 -5.904,-1.146 -6.116,-2.432c-0.881,-5.357 -1.763,-10.713 -2.644,-16.07c-0.203,-1.232 1.996,-2.332 5.169,-2.324c12.511,0.033 25.022,0.066 37.533,0.099c3.143,0.009 5.809,1.109 6.1,2.354Z" style="fill:#e0d8cd;"/></g><g><path d="M691.376,101.325c1.687,5.357 3.373,10.714 5.06,16.072c0.399,1.269 -1.685,2.411 -4.955,2.403c-12.877,-0.034 -25.754,-0.067 -38.63,-0.101c-3.226,-0.008 -5.995,-1.143 -6.312,-2.432c-1.318,-5.357 -2.636,-10.714 -3.955,-16.071c-0.302,-1.229 1.798,-2.333 4.978,-2.324c12.509,0.033 25.017,0.066 37.525,0.099c3.137,0.008 5.896,1.106 6.289,2.354Z" style="fill:#e0d8cd;"/></g><g><path d="M749.196,101.477c2.123,5.358 4.246,10.716 6.368,16.073c0.502,1.267 -1.479,2.412 -4.756,2.404c-12.874,-0.034 -25.748,-0.067 -38.622,-0.101c-3.22,-0.008 -6.085,-1.141 -6.508,-2.432c-1.754,-5.358 -3.509,-10.715 -5.264,-16.072c-0.401,-1.226 1.6,-2.333 4.786,-2.325c12.506,0.033 25.012,0.067 37.518,0.1c3.13,0.008 5.982,1.103 6.478,2.353Z" style="fill:#e0d8cd;"/></g><path d="M876.182,101.813c3.081,5.358 6.162,10.717 9.243,16.075c0.767,1.334 -1.202,2.412 -4.321,2.404c-37.116,-0.097 -74.231,-0.193 -111.347,-0.289c-3.127,-0.008 -6.156,-1.102 -6.697,-2.433c-2.179,-5.358 -4.357,-10.715 -6.535,-16.073c-0.523,-1.288 1.557,-2.333 4.6,-2.325c36.054,0.096 72.109,0.191 108.163,0.287c3.042,0.008 6.154,1.067 6.894,2.354Z" style="fill:#e0d8cd;"/><path d="M111.972,100.416c-2.691,5.36 -5.382,10.72 -8.073,16.079c-0.655,1.304 -3.745,2.413 -6.947,2.405c-17.742,-0.046 -35.484,-0.092 -53.226,-0.138c-3.262,-0.009 -5.06,-1.156 -4.304,-2.434c3.168,-5.36 6.336,-10.719 9.504,-16.079c0.745,-1.261 3.837,-2.333 6.953,-2.325c17.233,0.046 34.466,0.092 51.7,0.137c3.172,0.009 5.014,1.118 4.393,2.355Z" style="fill:#e0d8cd;"/></g><g><g><path d="M208.932,123.658c-1.976,5.583 -3.952,11.167 -5.927,16.75c-0.477,1.347 -3.478,2.513 -6.809,2.504c-13.332,-0.033 -26.663,-0.067 -39.995,-0.101c-3.395,-0.009 -5.41,-1.215 -4.853,-2.534c2.361,-5.583 4.722,-11.167 7.083,-16.75c0.551,-1.304 3.539,-2.431 6.778,-2.423c12.946,0.033 25.893,0.067 38.839,0.1c3.299,0.009 5.336,1.176 4.884,2.454Z" style="fill:#e0d8cd;"/></g><g><path d="M146.535,123.496c-2.451,5.584 -4.903,11.167 -7.355,16.75c-0.592,1.349 -3.699,2.513 -7.025,2.504c-13.334,-0.034 -26.668,-0.067 -40.003,-0.101c-3.404,-0.009 -5.308,-1.219 -4.64,-2.534c2.837,-5.583 5.674,-11.166 8.511,-16.749c0.664,-1.306 3.754,-2.431 6.988,-2.423c12.949,0.033 25.898,0.067 38.847,0.101c3.307,0.008 5.237,1.178 4.677,2.452Z" style="fill:#e0d8cd;"/></g><g><path d="M85.877,123.34c-2.914,5.583 -5.829,11.165 -8.743,16.748c-0.705,1.352 -3.914,2.513 -7.235,2.504c-13.337,-0.034 -26.675,-0.067 -40.012,-0.101c-3.413,-0.009 -5.207,-1.222 -4.432,-2.534c3.3,-5.583 6.6,-11.165 9.899,-16.748c0.774,-1.308 3.961,-2.431 7.191,-2.423c12.952,0.034 25.904,0.067 38.856,0.101c3.316,0.009 5.139,1.182 4.476,2.453Z" style="fill:#e0d8cd;"/></g><g><path d="M272.701,123.822c-1.489,5.584 -2.979,11.168 -4.468,16.752c-0.359,1.344 -3.252,2.513 -6.588,2.504c-13.329,-0.033 -26.657,-0.067 -39.986,-0.101c-3.386,-0.009 -5.515,-1.212 -5.071,-2.534c1.875,-5.584 3.749,-11.168 5.623,-16.751c0.437,-1.301 3.321,-2.432 6.565,-2.423c12.943,0.033 25.887,0.067 38.83,0.1c3.291,0.009 5.437,1.172 5.095,2.453Z" style="fill:#e0d8cd;"/></g><g><path d="M714.42,124.963c1.878,5.586 3.755,11.173 5.632,16.759c0.445,1.323 -1.679,2.514 -5.06,2.506c-13.307,-0.034 -26.614,-0.068 -39.922,-0.102c-3.331,-0.008 -6.222,-1.19 -6.581,-2.535c-1.493,-5.586 -2.987,-11.172 -4.48,-16.758c-0.343,-1.281 1.799,-2.433 5.085,-2.425c12.923,0.034 25.847,0.067 38.77,0.101c3.238,0.008 6.119,1.152 6.556,2.454Z" style="fill:#e0d8cd;"/></g><g><path d="M654.359,124.808c1.42,5.586 2.839,11.172 4.259,16.758c0.337,1.326 -1.893,2.514 -5.267,2.505c-13.311,-0.033 -26.621,-0.067 -39.931,-0.101c-3.338,-0.008 -6.127,-1.193 -6.376,-2.535c-1.036,-5.586 -2.071,-11.172 -3.107,-16.757c-0.238,-1.285 2.006,-2.433 5.286,-2.425c12.926,0.034 25.852,0.067 38.778,0.101c3.245,0.008 6.028,1.154 6.358,2.454Z" style="fill:#e0d8cd;"/></g><g><path d="M774.159,125.117c2.332,5.587 4.665,11.174 6.997,16.76c0.551,1.32 -1.466,2.515 -4.853,2.506c-13.305,-0.034 -26.609,-0.067 -39.914,-0.101c-3.325,-0.009 -6.316,-1.188 -6.785,-2.536c-1.949,-5.586 -3.897,-11.173 -5.846,-16.759c-0.446,-1.278 1.592,-2.433 4.885,-2.425c12.921,0.034 25.842,0.067 38.762,0.101c3.232,0.008 6.209,1.15 6.754,2.454Z" style="fill:#e0d8cd;"/></g><g><path d="M894.884,125.429c3.251,5.587 6.503,11.175 9.755,16.762c0.764,1.313 -1.034,2.515 -4.436,2.506c-13.299,-0.034 -26.598,-0.067 -39.896,-0.101c-3.313,-0.008 -6.504,-1.183 -7.198,-2.536c-2.868,-5.587 -5.737,-11.174 -8.605,-16.761c-0.652,-1.272 1.175,-2.434 4.482,-2.425c12.915,0.033 25.83,0.067 38.745,0.1c3.22,0.009 6.391,1.146 7.153,2.455Z" style="fill:#e0d8cd;"/></g><g><path d="M831.997,125.267c2.773,5.587 5.546,11.174 8.319,16.761c0.653,1.316 -1.259,2.514 -4.653,2.506c-13.302,-0.034 -26.604,-0.068 -39.905,-0.102c-3.319,-0.008 -6.406,-1.186 -6.984,-2.535c-2.389,-5.587 -4.778,-11.174 -7.167,-16.761c-0.545,-1.275 1.392,-2.433 4.692,-2.424c12.918,0.033 25.836,0.067 38.754,0.1c3.226,0.008 6.296,1.148 6.944,2.455Z" style="fill:#e0d8cd;"/></g><path d="M593.614,124.651c0.957,5.586 1.914,11.171 2.871,16.757c0.254,1.484 -2.542,2.513 -5.478,2.505c-101.82,-0.258 -203.64,-0.516 -305.46,-0.774c-2.945,-0.008 -5.655,-1.054 -5.284,-2.535c1.4,-5.584 2.799,-11.167 4.199,-16.751c0.36,-1.436 3.509,-2.431 6.356,-2.424c98.88,0.256 197.76,0.512 296.64,0.768c2.848,0.007 5.911,1.02 6.156,2.454Z" style="fill:#e0d8cd;"/></g></g></g></g><rect x="0.583" y="154.468" width="926.835" height="7.573" style="fill:#878fa5;"/></g></svg>