<?xml version="1.0" encoding="UTF-8" standalone="no"?>
<!DOCTYPE svg PUBLIC "-//W3C//DTD SVG 1.1//EN" "http://www.w3.org/Graphics/SVG/1.1/DTD/svg11.dtd">
<svg width="100%" height="100%" viewBox="0 0 327 551" version="1.1" xmlns="http://www.w3.org/2000/svg" xmlns:xlink="http://www.w3.org/1999/xlink" xml:space="preserve" xmlns:serif="http://www.serif.com/" style="fill-rule:evenodd;clip-rule:evenodd;stroke-linecap:round;stroke-linejoin:round;stroke-miterlimit:1.5;">
    <g transform="matrix(1,0,0,1,-1533,-320)">
        <g id="Plant">
            <g transform="matrix(1,0,0,1,0,36.2871)">
                <ellipse cx="1691.47" cy="561.016" rx="136.536" ry="21.016" style="fill:#b39b8c;"/>
            </g>
            <g transform="matrix(0.513522,0,0,0.513522,825.941,209.339)">
                <path d="M1691.47,598.941L1691.47,285.515" style="fill:none;"/>
                <path d="M1691.47,284.536C1691.66,285.424 1692.25,286.193 1692.44,287.082C1695.03,298.955 1697.3,310.894 1699.8,322.788C1701.9,332.844 1703.94,342.918 1706.25,352.93C1708.04,360.699 1709.82,368.484 1712.11,376.122C1713.63,381.196 1715.62,386.121 1717.66,391.011C1719.96,396.552 1722.54,401.981 1725.12,407.398C1730.75,419.198 1736.7,430.842 1742.3,442.657C1752.42,464.039 1755.81,474.984 1756.71,477.893C1758.37,483.256 1759.63,488.742 1760.71,494.25C1761.2,496.761 1761.29,499.338 1761.41,501.894C1761.53,504.292 1761.61,506.704 1761.41,509.098C1761.24,511.175 1760.83,513.235 1760.31,515.252C1759.87,516.944 1758.09,523.806 1751.17,535.104C1748.26,539.842 1744.97,544.336 1741.58,548.738C1738.06,553.304 1734.38,557.761 1730.45,561.983C1712.55,581.245 1712.29,580.993 1692.79,598.64C1692.26,599.119 1692.18,598.941 1691.47,598.941C1690.75,598.941 1690.67,599.119 1690.14,598.64C1670.64,580.993 1670.38,581.245 1652.47,561.983C1648.55,557.761 1644.87,553.304 1641.35,548.738C1637.96,544.336 1634.66,539.842 1631.76,535.104C1624.84,523.806 1623.06,516.944 1622.62,515.252C1622.1,513.235 1621.69,511.175 1621.52,509.098C1621.32,506.704 1621.4,504.292 1621.52,501.894C1621.64,499.338 1621.73,496.761 1622.22,494.25C1623.3,488.742 1624.56,483.256 1626.22,477.893C1627.12,474.984 1630.5,464.039 1640.63,442.657C1646.23,430.842 1652.18,419.198 1657.81,407.398C1660.39,401.981 1662.97,396.552 1665.27,391.011C1667.31,386.121 1669.3,381.196 1670.82,376.122C1673.11,368.484 1674.89,360.699 1676.68,352.93C1678.99,342.918 1681.02,332.844 1683.13,322.788C1685.62,310.894 1687.9,298.955 1690.49,287.082C1690.68,286.193 1691.27,285.424 1691.47,284.536Z" style="fill:#568e55;"/>
            </g>
            <g transform="matrix(-0.628133,0.255738,-0.255738,-0.628133,2750,457.072)">
                <path d="M1544.3,442.228C1523.77,471.163 1507.1,516.768 1507.1,566.236C1507.1,615.703 1523.77,661.308 1544.3,690.243C1475.86,690.243 1420.3,634.677 1420.3,566.236C1420.3,497.794 1475.86,442.228 1544.3,442.228Z" style="fill:#4e804d;"/>
            </g>
            <g transform="matrix(0.655105,0.17547,0.17547,-0.655105,639.42,596.305)">
                <path d="M1544.3,442.228C1523.77,471.163 1507.1,516.768 1507.1,566.236C1507.1,615.703 1523.77,661.308 1544.3,690.243C1475.86,690.243 1420.3,634.677 1420.3,566.236C1420.3,497.794 1475.86,442.228 1544.3,442.228Z" style="fill:#498b48;"/>
            </g>
            <g transform="matrix(0.358595,0.358595,0.615289,-0.615289,861.604,318.2)">
                <path d="M1544.3,442.228C1523.77,471.163 1507.1,516.768 1507.1,566.236C1507.1,615.703 1523.77,661.308 1544.3,690.243C1475.86,690.243 1420.3,634.677 1420.3,566.236C1420.3,497.794 1475.86,442.228 1544.3,442.228Z" style="fill:#4e804d;"/>
            </g>
            <g transform="matrix(-0.441743,0.406593,-0.548222,-0.595615,2599.86,234.044)">
                <path d="M1544.3,442.228C1523.77,471.163 1507.1,516.768 1507.1,566.236C1507.1,615.703 1523.77,661.308 1544.3,690.243C1475.86,690.243 1420.3,634.677 1420.3,566.236C1420.3,497.794 1475.86,442.228 1544.3,442.228Z" style="fill:#4e804d;"/>
            </g>
            <g transform="matrix(-0.615289,0.615289,-0.615289,-0.615289,2908.73,-0.0890946)">
                <path d="M1544.3,442.228C1523.77,471.163 1507.1,516.768 1507.1,566.236C1507.1,615.703 1523.77,661.308 1544.3,690.243C1475.86,690.243 1420.3,634.677 1420.3,566.236C1420.3,497.794 1475.86,442.228 1544.3,442.228Z" style="fill:#568e55;"/>
            </g>
            <g transform="matrix(0.459438,0.756417,0.756417,-0.459438,627.925,-303.34)">
                <path d="M1544.3,442.228C1523.77,471.163 1507.1,516.768 1507.1,566.236C1507.1,615.703 1523.77,661.308 1544.3,690.243C1475.86,690.243 1420.3,634.677 1420.3,566.236C1420.3,497.794 1475.86,442.228 1544.3,442.228Z" style="fill:#498b48;"/>
            </g>
            <path d="M1827.59,598.941L1759.73,870.375L1623.2,870.375L1555.34,598.941C1560.78,609.775 1619.69,618.318 1691.47,618.318C1763.24,618.318 1822.15,609.775 1827.59,598.941Z" style="fill:url(#_Linear1);stroke:#493131;stroke-width:1px;"/>
        </g>
    </g>
    <defs>
        <linearGradient id="_Linear1" x1="0" y1="0" x2="1" y2="0" gradientUnits="userSpaceOnUse" gradientTransform="matrix(218.78,-2.95144,2.95144,218.78,1581.93,709.489)"><stop offset="0" style="stop-color:#4f4f4f;stop-opacity:1"/><stop offset="0.23" style="stop-color:#463131;stop-opacity:1"/><stop offset="0.5" style="stop-color:#432929;stop-opacity:1"/><stop offset="0.78" style="stop-color:#473232;stop-opacity:1"/><stop offset="1" style="stop-color:#545454;stop-opacity:1"/></linearGradient>
    </defs>
</svg>
