<?xml version="1.0" encoding="UTF-8" standalone="no"?>
<!DOCTYPE svg PUBLIC "-//W3C//DTD SVG 1.1//EN" "http://www.w3.org/Graphics/SVG/1.1/DTD/svg11.dtd">
<svg width="100%" height="100%" viewBox="0 0 274 622" version="1.1" xmlns="http://www.w3.org/2000/svg" xmlns:xlink="http://www.w3.org/1999/xlink" xml:space="preserve" xmlns:serif="http://www.serif.com/" style="fill-rule:evenodd;clip-rule:evenodd;stroke-linejoin:round;stroke-miterlimit:2;">
    <g transform="matrix(1,0,0,1,-1554,-249)">
        <g id="Plant">
            <path d="M1827.59,598.941L1759.73,870.375L1623.2,870.375L1555.34,598.941C1560.78,609.775 1619.69,618.318 1691.47,618.318C1763.24,618.318 1822.15,609.775 1827.59,598.941Z" style="fill:#3c3c3c;"/>
            <g transform="matrix(1,0,0,1,0,36.2871)">
                <ellipse cx="1691.47" cy="561.016" rx="136.536" ry="21.016" style="fill:#808080;"/>
            </g>
            <path d="M1691.47,598.941L1691.47,285.515" style="fill:none;"/>
            <path d="M1691.47,285.012C1691.54,285.717 1691.89,286.376 1691.97,287.082C1693.31,298.974 1694.46,310.888 1695.74,322.788C1696.83,332.838 1697.87,342.892 1699.06,352.93C1699.97,360.671 1700.88,368.417 1702.06,376.122C1702.45,378.651 1703.72,386.87 1708.75,407.398C1711.63,419.165 1714.71,430.885 1717.57,442.657C1722.77,464.039 1724.52,475.049 1724.97,477.893C1725.83,483.32 1726.47,488.783 1727.02,494.25C1727.28,496.788 1727.32,499.344 1727.38,501.894C1727.44,504.294 1727.49,506.698 1727.38,509.098C1727.3,511.156 1727.09,513.21 1726.82,515.252C1726.6,516.869 1725.68,523.806 1722.12,535.104C1720.67,539.713 1718.98,544.245 1717.2,548.738C1715.43,553.208 1713.56,557.644 1711.49,561.983C1702.56,580.696 1702.38,580.607 1692.14,598.64C1692.09,598.741 1692.04,598.852 1691.97,598.941C1691.81,599.122 1691.62,599.263 1691.47,599.444C1691.29,599.141 1690.96,598.943 1690.79,598.64C1688.13,594.084 1685.44,589.544 1682.98,584.88C1679,577.321 1675.12,569.696 1671.44,561.983C1669.37,557.644 1667.5,553.208 1665.73,548.738C1663.95,544.245 1662.26,539.713 1660.81,535.104C1657.25,523.806 1656.33,516.869 1656.11,515.252C1655.84,513.21 1655.63,511.156 1655.55,509.098C1655.44,506.698 1655.49,504.294 1655.55,501.894C1655.61,499.344 1655.65,496.788 1655.91,494.25C1656.46,488.783 1657.1,483.32 1657.96,477.893C1658.41,475.049 1660.16,464.039 1665.36,442.657C1668.22,430.885 1671.3,419.165 1674.18,407.398C1679.21,386.87 1680.48,378.651 1680.87,376.122C1682.05,368.417 1682.96,360.671 1683.87,352.93C1685.06,342.892 1686.1,332.838 1687.19,322.788C1688.47,310.888 1689.62,298.974 1690.96,287.082C1691.04,286.376 1691.38,285.717 1691.47,285.012Z" style="fill:#26d97a;"/>
        </g>
    </g>
</svg>
