<?xml version="1.0" encoding="UTF-8" standalone="no"?>
<!DOCTYPE svg PUBLIC "-//W3C//DTD SVG 1.1//EN" "http://www.w3.org/Graphics/SVG/1.1/DTD/svg11.dtd">
<svg width="100%" height="100%" viewBox="0 0 1082 654" version="1.1" xmlns="http://www.w3.org/2000/svg" xmlns:xlink="http://www.w3.org/1999/xlink" xml:space="preserve" xmlns:serif="http://www.serif.com/" style="fill-rule:evenodd;clip-rule:evenodd;stroke-linejoin:round;stroke-miterlimit:2;">
    <g transform="matrix(1,0,0,1,-419,-48)">
        <g id="ScreenBordered">
            <g id="ScreenBg" transform="matrix(1.41015,0,0,1.41015,-393.742,-253.982)">
                <g transform="matrix(1.03874,0,0,1.12375,-90.1229,-20.7248)">
                    <path d="M1380.12,262.397L1380.12,587.66C1380.12,606.187 1363.85,621.23 1343.8,621.23L678.113,621.23C658.069,621.23 641.796,606.187 641.796,587.66L641.796,262.397C641.796,243.87 658.069,228.827 678.113,228.827L1343.8,228.827C1363.85,228.827 1380.12,243.87 1380.12,262.397Z" style="fill:url(#_Radial1);"/>
                </g>
                <path d="M965.473,665.084C965.674,665.498 965.806,665.871 965.836,666.198C966.137,669.469 963.944,672.349 960.941,672.626C957.939,672.902 955.256,670.471 954.955,667.2C954.814,665.674 956.062,662.864 956.652,659.738C957.328,656.164 957.457,652.332 959.059,652.185C960.666,652.037 960.882,655.787 962.2,659.191C962.415,659.746 962.673,660.287 962.95,660.808C962.133,661.225 961.583,662.006 961.583,662.899C961.583,664.231 962.807,665.312 964.313,665.312C964.728,665.312 965.121,665.23 965.473,665.084ZM958.035,648.324C958.09,648.387 958.215,648.594 958.27,648.657C958.277,648.665 958.704,649.531 958.887,649.96C959.313,650.963 958.977,651.186 958.701,651.639C958.27,651.331 957.872,651.255 957.873,650.166C957.873,649.7 957.928,648.736 957.932,648.725C957.958,648.646 958.008,648.403 958.035,648.324Z" style="fill:#818181;"/>
            </g>
            <g id="Screen" transform="matrix(1.46478,0,0,1.5757,-520.829,-312.335)">
                <path d="M1380.12,262.397L1380.12,614.899L641.796,614.899L641.796,262.397C641.796,243.87 656.525,228.827 674.667,228.827L1347.25,228.827C1365.39,228.827 1380.12,243.87 1380.12,262.397Z" style="fill:#3c3c3c;"/>
            </g>
        </g>
    </g>
    <defs>
        <radialGradient id="_Radial1" cx="0" cy="0" r="1" gradientUnits="userSpaceOnUse" gradientTransform="matrix(369.162,2.01456,-2.17942,341.237,1010.96,598.966)"><stop offset="0" style="stop-color:#cbcbcb;stop-opacity:1"/><stop offset="0.52" style="stop-color:#bcbcbc;stop-opacity:1"/><stop offset="1" style="stop-color:#898989;stop-opacity:1"/></radialGradient>
    </defs>
</svg>
