<?xml version="1.0" encoding="UTF-8" standalone="no"?>
<!DOCTYPE svg PUBLIC "-//W3C//DTD SVG 1.1//EN" "http://www.w3.org/Graphics/SVG/1.1/DTD/svg11.dtd">
<svg width="100%" height="100%" viewBox="0 0 1082 804" version="1.1" xmlns="http://www.w3.org/2000/svg" xmlns:xlink="http://www.w3.org/1999/xlink" xml:space="preserve" xmlns:serif="http://www.serif.com/" style="fill-rule:evenodd;clip-rule:evenodd;stroke-linejoin:round;stroke-miterlimit:2;">
    <g transform="matrix(1,0,0,1,-419,-79)">
        <g id="Screen" transform="matrix(1.41015,0,0,1.41015,-393.742,-253.982)">
            <g transform="matrix(1.70605,0,0,1.70605,-687.218,-649.948)">
                <ellipse cx="965.514" cy="820.738" rx="93.247" ry="32.608" style="fill:url(#_Radial1);"/>
            </g>
            <g transform="matrix(0.635932,0,0,0.635932,349.505,212.706)">
                <path d="M908.514,807.187L908.514,633.473L1011.49,633.473L1011.49,807.187C1011.49,816.126 988.416,823.383 960,823.383C931.584,823.383 908.514,816.126 908.514,807.187Z" style="fill:#909090;"/>
            </g>
            <g transform="matrix(1.03874,0,0,1.12375,-90.1229,-20.7248)">
                <path d="M1380.12,262.397L1380.12,587.66C1380.12,606.187 1363.85,621.23 1343.8,621.23L678.113,621.23C658.069,621.23 641.796,606.187 641.796,587.66L641.796,262.397C641.796,243.87 658.069,228.827 678.113,228.827L1343.8,228.827C1363.85,228.827 1380.12,243.87 1380.12,262.397Z" style="fill:url(#_Radial2);"/>
            </g>
            <g transform="matrix(1.03874,0,0,1.03888,-90.1229,-1.30595)">
                <path d="M1380.12,262.397L1380.12,614.899L641.796,614.899L641.796,262.397C641.796,243.87 656.525,228.827 674.667,228.827L1347.25,228.827C1365.39,228.827 1380.12,243.87 1380.12,262.397Z" style="fill:#3c3c3c;"/>
            </g>
        </g>
    </g>
    <defs>
        <radialGradient id="_Radial1" cx="0" cy="0" r="1" gradientUnits="userSpaceOnUse" gradientTransform="matrix(8.91015e-14,63.9408,-163.133,2.27326e-13,965.514,800.058)"><stop offset="0" style="stop-color:#cbcbcb;stop-opacity:1"/><stop offset="1" style="stop-color:#898989;stop-opacity:1"/></radialGradient>
        <radialGradient id="_Radial2" cx="0" cy="0" r="1" gradientUnits="userSpaceOnUse" gradientTransform="matrix(369.162,2.01456,-2.17942,341.237,1010.96,598.966)"><stop offset="0" style="stop-color:#cbcbcb;stop-opacity:1"/><stop offset="0.52" style="stop-color:#bcbcbc;stop-opacity:1"/><stop offset="1" style="stop-color:#898989;stop-opacity:1"/></radialGradient>
    </defs>
</svg>
