<svg xmlns="http://www.w3.org/2000/svg" xmlns:xlink="http://www.w3.org/1999/xlink" version="1.1" width="596" height="842" viewBox="0 0 596 842">
<path transform="matrix(.75,0,0,.75,0,0)" d="M0 0H794V1123H0Z" fill="#ffffff"/>
<text xml:space="preserve" transform="matrix(.75 0 0 .75 72 72)" font-size="14.666667" font-family="Arial" font-weight="bold"><tspan y="13.757161" x="0 8.966354 17.117463 21.189438 25.261414 34.214036 43.166658 47.238634 56.191255 61.0719 65.143878 74.0965 82.247608 86.31958 94.47069 99.35133 107.50244 112.38309 117.26373 125.41484 129.48682 138.43944">Validointihaistattelut</tspan></text>
<text xml:space="preserve" transform="matrix(.75 0 0 .75 72 101.09253)" font-size="14.666667" font-family="Arial" font-weight="bold"><tspan y="13.757161" x="0 4.0719759 13.024597 17.905243 23.608872">Intro</tspan></text>
<text xml:space="preserve" transform="matrix(.75 0 0 .75 72 115.638797)" font-size="14.666667" font-family="ArialMT"><tspan y="13.757161" x="24">-</tspan></text>
<text xml:space="preserve" transform="matrix(.75 0 0 .75 72 115.638797)" font-size="14.666667" font-family="ArialMT"><tspan y="13.757161" x="48 55.328126 63.479234 70.80736">kuka</tspan></text>
<text xml:space="preserve" transform="matrix(.75 0 0 .75 72 115.638797)" font-size="14.666667" font-family="ArialMT"><tspan y="13.757161" x="83.03044 91.18155 94.4377 102.588809">olen</tspan></text>
<text xml:space="preserve" transform="matrix(.75 0 0 .75 72 115.638797)" font-size="14.666667" font-family="ArialMT"><tspan y="13.757161" x="114.81189 119.692539 127.84364 135.99475 139.2509 146.57903 153.90715 162.05826 165.3144 168.57056 171.8267">(opiskelija</tspan></text>
<text xml:space="preserve" transform="matrix(.75 0 0 .75 72 115.638797)" font-size="14.666667" font-family="ArialMT"><tspan y="13.757161" x="184.04979 193.8254 201.9765 205.23265 208.4888 216.63991 223.96804 228.04001 236.19112">Aallosta)</tspan></text>
<text xml:space="preserve" transform="matrix(.75 0 0 .75 72 130.18506)" font-size="14.666667" font-family="ArialMT"><tspan y="13.757161" x="24">-</tspan></text>
<text xml:space="preserve" transform="matrix(.75 0 0 .75 72 130.18506)" font-size="14.666667" font-family="ArialMT"><tspan y="13.757161" x="48 51.25615 58.584276 66.73538 74.06351 82.214618 89.54274 93.614719">lyhyesti</tspan></text>
<text xml:space="preserve" transform="matrix(.75 0 0 .75 72 130.18506)" font-size="14.666667" font-family="ArialMT"><tspan y="13.757161" x="100.94284 113.15161 116.40776 123.735889">mik&#x00e4;</tspan></text>
<text xml:space="preserve" transform="matrix(.75 0 0 .75 72 130.18506)" font-size="14.666667" font-family="ArialMT"><tspan y="13.757161" x="135.95897 140.03095 148.18206">t&#x00e4;&#x00e4;</tspan></text>
<text xml:space="preserve" transform="matrix(.75 0 0 .75 72 130.18506)" font-size="14.666667" font-family="ArialMT"><tspan y="13.757161" x="160.40514 168.55625 173.43689 181.588 184.84415 192.99526 200.32338 204.39536">projekti</tspan></text>
<text xml:space="preserve" transform="matrix(.75 0 0 .75 72 130.18506)" font-size="14.666667" font-family="ArialMT"><tspan y="13.757161" x="211.72348 219.87459">on</tspan></text>
<text xml:space="preserve" transform="matrix(.75 0 0 .75 72 144.73133)" font-size="14.666667" font-family="ArialMT"><tspan y="13.757161" x="72">-</tspan></text>
<text xml:space="preserve" transform="matrix(.75 0 0 .75 72 144.73133)" font-size="14.666667" font-family="ArialMT"><tspan y="13.757161" x="96 104.15111 112.302219 115.558368 123.70947 131.86058 144.06935 156.27812">haluamme</tspan></text>
<text xml:space="preserve" transform="matrix(.75 0 0 .75 72 144.73133)" font-size="14.666667" font-family="ArialMT"><tspan y="13.757161" x="168.5012 175.82933 188.0381 200.24687 208.39798 213.27863 217.3506 225.50171">ymm&#x00e4;rt&#x00e4;&#x00e4;</tspan></text>
<text xml:space="preserve" transform="matrix(.75 0 0 .75 72 144.73133)" font-size="14.666667" font-family="ArialMT"><tspan y="13.757161" x="237.7248 245.05292 253.20403 256.46018 264.61128 271.9394">kuinka</tspan></text>
<text xml:space="preserve" transform="matrix(.75 0 0 .75 72 144.73133)" font-size="14.666667" font-family="ArialMT"><tspan y="13.757161" x="284.16249 292.3136 295.56977 303.7209 311.049 319.20014 327.35127 330.60743 338.75856 342.0147 349.34284 357.49397 360.75013 368.07826 376.22938">alakouluik&#x00e4;iset</tspan></text>
<text xml:space="preserve" transform="matrix(.75 0 0 .75 72 144.73133)" font-size="14.666667" font-family="ArialMT"><tspan y="13.757161" x="384.37318 387.62934 395.78047 403.93159 411.2597 419.41084">lapset</tspan></text>
<text xml:space="preserve" transform="matrix(.75 0 0 .75 72 144.73133)" font-size="14.666667" font-family="ArialMT"><tspan y="13.757161" x="427.55473 434.88285 443.03395 450.36207 454.43403 458.50599 466.6571 473.98524 482.13636">k&#x00e4;ytt&#x00e4;v&#x00e4;t</tspan></text>
<text xml:space="preserve" transform="matrix(.75 0 0 .75 72 144.73133)" font-size="14.666667" font-family="ArialMT"><tspan y="13.757161" x="490.28034 493.5365 501.68763 504.9438 512.2719 515.5281 522.8562 526.11239">julkisia</tspan></text>
<text xml:space="preserve" transform="matrix(.75 0 0 .75 72 159.27759)" font-size="14.666667" font-family="ArialMT"><tspan y="13.757161" x="96 103.328128 111.47923 114.73538 122.06351 130.21462 137.54274 145.69385 148.95 152.20615 160.35726 168.50836 171.76451 175.83649">kulkuv&#x00e4;lineit&#x00e4;</tspan></text>
<text xml:space="preserve" transform="matrix(.75 0 0 .75 72 159.27759)" font-size="14.666667" font-family="ArialMT"><tspan y="13.757161" x="188.05957 191.31572">ja</tspan></text>
<text xml:space="preserve" transform="matrix(.75 0 0 .75 72 159.27759)" font-size="14.666667" font-family="ArialMT"><tspan y="13.757161" x="203.5388 215.74758 219.00373 226.33185">mik&#x00e4;</tspan></text>
<text xml:space="preserve" transform="matrix(.75 0 0 .75 72 159.27759)" font-size="14.666667" font-family="ArialMT"><tspan y="13.757161" x="238.55493 246.70604 254.85715 258.11329 262.18525">heit&#x00e4;</tspan></text>
<text xml:space="preserve" transform="matrix(.75 0 0 .75 72 159.27759)" font-size="14.666667" font-family="ArialMT"><tspan y="13.757161" x="274.40837 281.73649 289.88758 293.14375 300.47187">voisi</tspan></text>
<text xml:space="preserve" transform="matrix(.75 0 0 .75 72 159.27759)" font-size="14.666667" font-family="ArialMT"><tspan y="13.757161" x="307.8 315.9511 319.20729 322.46345 330.61457 338.7657">niiden</tspan></text>
<text xml:space="preserve" transform="matrix(.75 0 0 .75 72 159.27759)" font-size="14.666667" font-family="ArialMT"><tspan y="13.757161" x="350.9887 358.31684 366.46797 373.79609 377.86805 386.01918 393.3473 400.6754">k&#x00e4;yt&#x00f6;ss&#x00e4;</tspan></text>
<text xml:space="preserve" transform="matrix(.75 0 0 .75 72 159.27759)" font-size="14.666667" font-family="ArialMT"><tspan y="13.757161" x="412.89848 421.04957 429.20069 433.27265 437.3446 445.49574">auttaa</tspan></text>
<text xml:space="preserve" transform="matrix(.75 0 0 .75 72 173.82386)" font-size="14.666667" font-family="ArialMT"><tspan y="13.757161" x="24">-</tspan></text>
<text xml:space="preserve" transform="matrix(.75 0 0 .75 72 173.82386)" font-size="14.666667" font-family="ArialMT"><tspan y="13.757161" x="48 56.151109 59.407258 62.663408 70.814517 78.96562">ollaan</tspan></text>
<text xml:space="preserve" transform="matrix(.75 0 0 .75 72 173.82386)" font-size="14.666667" font-family="ArialMT"><tspan y="13.757161" x="91.188709 98.51683 101.77298 105.02913 113.18024 121.331348 129.48246 136.81058 140.88256 149.03366 157.18477 165.33588 168.59203 172.664">kiinnostuneita</tspan></text>
<text xml:space="preserve" transform="matrix(.75 0 0 .75 72 173.82386)" font-size="14.666667" font-family="ArialMT"><tspan y="13.757161" x="184.88709 192.21521 200.36632">sun</tspan></text>
<text xml:space="preserve" transform="matrix(.75 0 0 .75 72 173.82386)" font-size="14.666667" font-family="ArialMT"><tspan y="13.757161" x="212.5894 220.74051 223.99666 232.14777 236.21974 244.37085 251.69898 259.0271 262.28327 269.6114 273.68336 281.83448">ajatuksista,</tspan></text>
<text xml:space="preserve" transform="matrix(.75 0 0 .75 72 173.82386)" font-size="14.666667" font-family="ArialMT"><tspan y="13.757161" x="289.9784 294.05036 302.20149 309.5296 316.85774">t&#x00e4;ss&#x00e4;</tspan></text>
<text xml:space="preserve" transform="matrix(.75 0 0 .75 72 173.82386)" font-size="14.666667" font-family="ArialMT"><tspan y="13.757161" x="329.0808 337.23194">ei</tspan></text>
<text xml:space="preserve" transform="matrix(.75 0 0 .75 72 173.82386)" font-size="14.666667" font-family="ArialMT"><tspan y="13.757161" x="344.56007 352.71119 355.96736">ole</tspan></text>
<text xml:space="preserve" transform="matrix(.75 0 0 .75 72 173.82386)" font-size="14.666667" font-family="ArialMT"><tspan y="13.757161" x="368.1904 376.3415 379.59767 386.92579 395.0769 398.33308 402.40504">oikeita</tspan></text>
<text xml:space="preserve" transform="matrix(.75 0 0 .75 72 173.82386)" font-size="14.666667" font-family="ArialMT"><tspan y="13.757161" x="414.6281 418.70008 426.8512">tai</tspan></text>
<text xml:space="preserve" transform="matrix(.75 0 0 .75 72 173.82386)" font-size="14.666667" font-family="ArialMT"><tspan y="13.757161" x="434.17933 441.50746 449.65858 457.8097 462.69035 465.94648">v&#x00e4;&#x00e4;ri&#x00e4;</tspan></text>
<text xml:space="preserve" transform="matrix(.75 0 0 .75 72 173.82386)" font-size="14.666667" font-family="ArialMT"><tspan y="13.757161" x="478.16954 485.49766 493.64875 500.97688 505.04884 513.19998 521.3511 528.6792 536.0073 539.2635">vastauksia</tspan></text>
<text xml:space="preserve" transform="matrix(.75 0 0 .75 72 188.37012)" font-size="14.666667" font-family="ArialMT"><tspan y="13.757161" x="24">-</tspan></text>
<text xml:space="preserve" transform="matrix(.75 0 0 .75 72 188.37012)" font-size="14.666667" font-family="ArialMT"><tspan y="13.757161" x="48 55.328126 63.479234 70.80736 74.87933 83.03044 91.18155 98.509677 105.8378 113.98891">vastaukset</tspan></text>
<text xml:space="preserve" transform="matrix(.75 0 0 .75 72 188.37012)" font-size="14.666667" font-family="ArialMT"><tspan y="13.757161" x="122.13286 130.28397 138.43508 146.58618 154.73729 162.06542 174.27419 177.53034 184.85846 193.00957 196.26572 204.41683 212.56793 220.71904">anonymisoidaan</tspan></text>
<text xml:space="preserve" transform="matrix(.75 0 0 .75 72 202.91638)" font-size="14.666667" font-family="ArialMT"><tspan y="13.757161" x="24">-</tspan></text>
<text xml:space="preserve" transform="matrix(.75 0 0 .75 72 202.91638)" font-size="14.666667" font-family="ArialMT"><tspan y="13.757161" x="48 52.880647 56.136796 64.2879">(jos</tspan></text>
<text xml:space="preserve" transform="matrix(.75 0 0 .75 72 202.91638)" font-size="14.666667" font-family="ArialMT"><tspan y="13.757161" x="75.688 83.01613 90.34425 97.67238 105.0005 112.32863">kysyy:</tspan></text>
<text xml:space="preserve" transform="matrix(.75 0 0 .75 72 202.91638)" font-size="14.666667" font-family="ArialMT"><tspan y="13.757161" x="120.47258 128.62369 136.7748 140.03095 147.35907 154.6872 157.94335 166.09445 174.24556">palkkiona</tspan></text>
<text xml:space="preserve" transform="matrix(.75 0 0 .75 72 202.91638)" font-size="14.666667" font-family="ArialMT"><tspan y="13.757161" x="186.46865 194.61975">on</tspan></text>
<text xml:space="preserve" transform="matrix(.75 0 0 .75 72 202.91638)" font-size="14.666667" font-family="ArialMT"><tspan y="13.757161" x="206.84284 214.99394 223.14505">30&#x20ac;</tspan></text>
<text xml:space="preserve" transform="matrix(.75 0 0 .75 72 202.91638)" font-size="14.666667" font-family="ArialMT"><tspan y="13.757161" x="235.36814 245.14374 250.02439 254.90503 262.23316 270.38429 282.59306 290.74415">K-ryhm&#x00e4;n</tspan></text>
<text xml:space="preserve" transform="matrix(.75 0 0 .75 72 202.91638)" font-size="14.666667" font-family="ArialMT"><tspan y="13.757161" x="302.96723 306.2234 314.3745 322.52565 325.7818 333.93293 341.26106 349.41218 354.29283 358.3648 362.43678 365.69294">lahjakortti)</tspan></text>
<text xml:space="preserve" transform="matrix(.75 0 0 .75 72 232.00891)" font-size="14.666667" font-family="Arial" font-weight="bold"><tspan y="13.757161" x="0 7.8640749 16.015183 24.967804 33.11891 37.999559 46.150667 54.301774 62.45288 70.60399 78.7551 91.78685 99.93796 108.089069 116.24017 124.39128">Taustakysymykset</tspan></text>
<text xml:space="preserve" transform="matrix(.75 0 0 .75 72 246.55518)" font-size="14.666667" font-family="ArialMT"><tspan y="13.757161" x="24 32.151109">1.</tspan></text>
<text xml:space="preserve" transform="matrix(.75 0 0 .75 72 246.55518)" font-size="14.666667" font-family="ArialMT"><tspan y="13.757161" x="48 57.775606 65.92671 69.99869">Ket&#x00e4;</tspan></text>
<text xml:space="preserve" transform="matrix(.75 0 0 .75 72 246.55518)" font-size="14.666667" font-family="ArialMT"><tspan y="13.757161" x="82.22177 86.29375 94.444858 97.701007 105.85211 114.00322">teid&#x00e4;n</tspan></text>
<text xml:space="preserve" transform="matrix(.75 0 0 .75 72 246.55518)" font-size="14.666667" font-family="ArialMT"><tspan y="13.757161" x="126.2263 130.29828 138.44939 141.70554 149.85665 158.00775 162.07973 170.23084 178.38195">talouteen</tspan></text>
<text xml:space="preserve" transform="matrix(.75 0 0 .75 72 246.55518)" font-size="14.666667" font-family="ArialMT"><tspan y="13.757161" x="190.60503 197.93315 206.08426 214.23537 217.49152 225.64263 233.79373">kuuluu?</tspan></text>
<text xml:space="preserve" transform="matrix(.75 0 0 .75 72 261.10145)" font-size="14.666667" font-family="ArialMT"><tspan y="13.757161" x="72 80.15111">a.</tspan></text>
<text xml:space="preserve" transform="matrix(.75 0 0 .75 72 261.10145)" font-size="14.666667" font-family="ArialMT"><tspan y="13.757161" x="96 104.15111 112.302219 120.45332 127.78145 131.0376 139.1887">Lapsien</tspan></text>
<text xml:space="preserve" transform="matrix(.75 0 0 .75 72 261.10145)" font-size="14.666667" font-family="ArialMT"><tspan y="13.757161" x="151.41179 163.62056 171.77167 179.92278 184.80342">m&#x00e4;&#x00e4;r&#x00e4;</tspan></text>
<text xml:space="preserve" transform="matrix(.75 0 0 .75 72 261.10145)" font-size="14.666667" font-family="ArialMT"><tspan y="13.757161" x="197.0265 200.28266">ja</tspan></text>
<text xml:space="preserve" transform="matrix(.75 0 0 .75 72 261.10145)" font-size="14.666667" font-family="ArialMT"><tspan y="13.757161" x="212.50574 215.76189 223.913">i&#x00e4;t</tspan></text>
<text xml:space="preserve" transform="matrix(.75 0 0 .75 72 275.6477)" font-size="14.666667" font-family="ArialMT"><tspan y="13.757161" x="24 32.151109">2.</tspan></text>
<text xml:space="preserve" transform="matrix(.75 0 0 .75 72 275.6477)" font-size="14.666667" font-family="ArialMT"><tspan y="13.757161" x="48 60.20877 63.46492 70.793048 78.12117 86.27228 94.423389 102.57449 105.83064">Miss&#x00e4;p&#x00e4;in</tspan></text>
<text xml:space="preserve" transform="matrix(.75 0 0 .75 72 275.6477)" font-size="14.666667" font-family="ArialMT"><tspan y="13.757161" x="118.05373 126.204837 133.53296 141.68407 145.75605 149.82802 157.97913">asutte?</tspan></text>
<text xml:space="preserve" transform="matrix(.75 0 0 .75 72 275.6477)" font-size="14.666667" font-family="ArialMT"><tspan y="13.757161" x="170.20221 175.08286 183.23397 190.56209 198.7132 201.96935 210.12046 218.27156 221.52771 229.67882 237.82993">(asuinalue)</tspan></text>
<text xml:space="preserve" transform="matrix(.75 0 0 .75 72 290.19398)" font-size="14.666667" font-family="ArialMT"><tspan y="13.757161" x="24 32.151109">3.</tspan></text>
<text xml:space="preserve" transform="matrix(.75 0 0 .75 72 290.19398)" font-size="14.666667" font-family="ArialMT"><tspan y="13.757161" x="48 59.4001 67.55121 74.87933">Onko</tspan></text>
<text xml:space="preserve" transform="matrix(.75 0 0 .75 72 290.19398)" font-size="14.666667" font-family="ArialMT"><tspan y="13.757161" x="87.10242 91.17439 99.3255 102.58165 110.73276 118.883869">teid&#x00e4;n</tspan></text>
<text xml:space="preserve" transform="matrix(.75 0 0 .75 72 290.19398)" font-size="14.666667" font-family="ArialMT"><tspan y="13.757161" x="131.10695 135.17893 143.33003 146.58618 154.73729 162.8884 171.0395 179.19062 186.51874 193.84687">taloudessa</tspan></text>
<text xml:space="preserve" transform="matrix(.75 0 0 .75 72 290.19398)" font-size="14.666667" font-family="ArialMT"><tspan y="13.757161" x="206.06995 213.39807 221.54918 228.8773 232.94928 241.10039 248.42852 255.75664">k&#x00e4;yt&#x00f6;ss&#x00e4;</tspan></text>
<text xml:space="preserve" transform="matrix(.75 0 0 .75 72 290.19398)" font-size="14.666667" font-family="ArialMT"><tspan y="13.757161" x="267.97975 276.13087 284.28199 288.35395 296.50508 304.6562">autoa?</tspan></text>
<text xml:space="preserve" transform="matrix(.75 0 0 .75 72 319.2865)" font-size="14.666667" font-family="Arial" font-weight="bold"><tspan y="13.757161" x="0 10.584274 18.735383 26.88649 35.037599 48.06935 56.22046 64.37157 72.522678 80.67378">Kysymykset</tspan></text>
<text xml:space="preserve" transform="matrix(.75 0 0 .75 72 333.83277)" font-size="14.666667" font-family="ArialMT"><tspan y="13.757161" x="24 32.151109">1.</tspan></text>
<text xml:space="preserve" transform="matrix(.75 0 0 .75 72 333.83277)" font-size="14.666667" font-family="ArialMT"><tspan y="13.757161" x="48 57.775606 65.92671 70.80736 74.87933 83.03044 86.28659 93.614719 96.870868 100.94284 108.270969">Kertoisitko</tspan></text>
<text xml:space="preserve" transform="matrix(.75 0 0 .75 72 333.83277)" font-size="14.666667" font-family="ArialMT"><tspan y="13.757161" x="120.49405 124.566028 132.71714 135.97328 144.12439 152.2755">teid&#x00e4;n</tspan></text>
<text xml:space="preserve" transform="matrix(.75 0 0 .75 72 333.83277)" font-size="14.666667" font-family="ArialMT"><tspan y="13.757161" x="164.49858 168.57056 176.72167 179.97782 188.12892 196.28003 204.43114 212.58225">talouden</tspan></text>
<text xml:space="preserve" transform="matrix(.75 0 0 .75 72 333.83277)" font-size="14.666667" font-family="ArialMT"><tspan y="13.757161" x="224.80533 232.95644 237.83708 241.09323 249.24434">arjen</tspan></text>
<text xml:space="preserve" transform="matrix(.75 0 0 .75 72 333.83277)" font-size="14.666667" font-family="ArialMT"><tspan y="13.757161" x="261.4674 264.72358 267.97975 271.2359 278.56404 285.89216 294.04328 306.25205 309.50819 316.8363 324.98744 332.31556 336.3875 344.53865">liikkumisesta?</tspan></text>
<text xml:space="preserve" transform="matrix(.75 0 0 .75 72 348.37904)" font-size="14.666667" font-family="ArialMT"><tspan y="13.757161" x="72 80.15111">a.</tspan></text>
<text xml:space="preserve" transform="matrix(.75 0 0 .75 72 348.37904)" font-size="14.666667" font-family="ArialMT"><tspan y="13.757161" x="96 104.14337 111.4715 119.622608">Ty&#x00f6;t</tspan></text>
<text xml:space="preserve" transform="matrix(.75 0 0 .75 72 348.37904)" font-size="14.666667" font-family="ArialMT"><tspan y="13.757161" x="127.766559 131.0227">ja</tspan></text>
<text xml:space="preserve" transform="matrix(.75 0 0 .75 72 348.37904)" font-size="14.666667" font-family="ArialMT"><tspan y="13.757161" x="143.24579 150.57392 158.72502 166.87613 170.13228">koulu</tspan></text>
<text xml:space="preserve" transform="matrix(.75 0 0 .75 72 362.9253)" font-size="14.666667" font-family="ArialMT"><tspan y="13.757161" x="72 80.15111">b.</tspan></text>
<text xml:space="preserve" transform="matrix(.75 0 0 .75 72 362.9253)" font-size="14.666667" font-family="ArialMT"><tspan y="13.757161" x="96 106.584278 114.73538 119.61603 124.49667 132.64778 139.9759 144.04788 152.19899 159.52712 166.85524 175.00635">Harrastukset</tspan></text>
<text xml:space="preserve" transform="matrix(.75 0 0 .75 72 377.47157)" font-size="14.666667" font-family="ArialMT"><tspan y="13.757161" x="72 79.328128">c.</tspan></text>
<text xml:space="preserve" transform="matrix(.75 0 0 .75 72 377.47157)" font-size="14.666667" font-family="ArialMT"><tspan y="13.757161" x="96 108.20877 116.35988">Muu</tspan></text>
<text xml:space="preserve" transform="matrix(.75 0 0 .75 72 377.47157)" font-size="14.666667" font-family="ArialMT"><tspan y="13.757161" x="128.58296 135.91109 144.0622 152.2133 160.36441 168.51552 173.39617 181.54727 184.80342 192.13155">vapaa-aika</tspan></text>
<text xml:space="preserve" transform="matrix(.75 0 0 .75 72 392.01783)" font-size="14.666667" font-family="Arial" font-weight="bold"><tspan y="13.757161" x="48 60.20877 64.28075 72.431858 80.58296">Miksi</tspan></text>
<text xml:space="preserve" transform="matrix(.75 0 0 .75 72 392.01783)" font-size="14.666667" font-family="Arial" font-weight="bold"><tspan y="13.757161" x="88.72691 97.679538 105.83064 109.90262 118.85524">n&#x00e4;in?</tspan></text>
<text xml:space="preserve" transform="matrix(.75 0 0 .75 72 421.11036)" font-size="14.666667" font-family="ArialMT"><tspan y="13.757161" x="24 32.151109">2.</tspan></text>
<text xml:space="preserve" transform="matrix(.75 0 0 .75 72 421.11036)" font-size="14.666667" font-family="ArialMT"><tspan y="13.757161" x="48 56.151109 64.302219 72.45332 79.78145">Lapsi</tspan></text>
<text xml:space="preserve" transform="matrix(.75 0 0 .75 72 421.11036)" font-size="14.666667" font-family="ArialMT"><tspan y="13.757161" x="87.10957 90.36572 94.4377 101.76582 109.91693 118.06804 126.21915 129.4753 136.80342 144.95453 153.10564">itsen&#x00e4;isen&#x00e4;</tspan></text>
<text xml:space="preserve" transform="matrix(.75 0 0 .75 72 421.11036)" font-size="14.666667" font-family="ArialMT"><tspan y="13.757161" x="165.32872 168.58487 171.84102 175.09717 182.4253 189.75342 197.90453 201.16068 209.31179 217.46289">liikkujana</tspan></text>
<text xml:space="preserve" transform="matrix(.75 0 0 .75 72 435.65663)" font-size="14.666667" font-family="ArialMT"><tspan y="13.757161" x="72 80.15111">a.</tspan></text>
<text xml:space="preserve" transform="matrix(.75 0 0 .75 72 435.65663)" font-size="14.666667" font-family="ArialMT"><tspan y="13.757161" x="96 104.15111 107.40726 110.66341 117.99153 125.31966 133.47077 141.62187 148.95">Liikkuuko</tspan></text>
<text xml:space="preserve" transform="matrix(.75 0 0 .75 72 435.65663)" font-size="14.666667" font-family="ArialMT"><tspan y="13.757161" x="161.17308 164.42923 172.58034 180.73145 188.05957">lapsi</tspan></text>
<text xml:space="preserve" transform="matrix(.75 0 0 .75 72 435.65663)" font-size="14.666667" font-family="ArialMT"><tspan y="13.757161" x="195.3877 198.64385 202.71582 210.04395 218.19506 225.52318 232.8513 241.00241 249.15352 257.30464">itsekseen?</tspan></text>
<text xml:space="preserve" transform="matrix(.75 0 0 .75 72 435.65663)" font-size="14.666667" font-family="ArialMT"><tspan y="13.757161" x="269.5277 281.73649 284.9926 293.14375 301.29487 309.44599">Minne?</tspan></text>
<text xml:space="preserve" transform="matrix(.75 0 0 .75 72 450.20289)" font-size="14.666667" font-family="ArialMT"><tspan y="13.757161" x="112.671878 115.928028">i.</tspan></text>
<text xml:space="preserve" transform="matrix(.75 0 0 .75 72 450.20289)" font-size="14.666667" font-family="ArialMT"><tspan y="13.757161" x="144 156.20877 159.46492 163.5369 171.688">Miten</tspan></text>
<text xml:space="preserve" transform="matrix(.75 0 0 .75 72 450.20289)" font-size="14.666667" font-family="ArialMT"><tspan y="13.757161" x="183.91109 196.11986 204.27097 212.42208 216.49405 220.56603 228.71714 236.86824 245.01935">muuttunut</tspan></text>
<text xml:space="preserve" transform="matrix(.75 0 0 .75 72 450.20289)" font-size="14.666667" font-family="ArialMT"><tspan y="13.757161" x="253.1633 260.49143 263.74757 267.00373 279.2125">viime</tspan></text>
<text xml:space="preserve" transform="matrix(.75 0 0 .75 72 450.20289)" font-size="14.666667" font-family="ArialMT"><tspan y="13.757161" x="291.43559 298.7637 306.9148 315.06593 322.39405 325.6502 333.80134">vuosien</tspan></text>
<text xml:space="preserve" transform="matrix(.75 0 0 .75 72 450.20289)" font-size="14.666667" font-family="ArialMT"><tspan y="13.757161" x="346.02439 354.17549 357.43165 364.75978 372.9109 381.062 389.21315">aikana?</tspan></text>
<text xml:space="preserve" transform="matrix(.75 0 0 .75 72 464.74916)" font-size="14.666667" font-family="ArialMT"><tspan y="13.757161" x="72 80.15111">b.</tspan></text>
<text xml:space="preserve" transform="matrix(.75 0 0 .75 72 464.74916)" font-size="14.666667" font-family="ArialMT"><tspan y="13.757161" x="96 105.775608 113.92671 122.07782 126.149799 133.47792 141.62903">Koetko,</tspan></text>
<text xml:space="preserve" transform="matrix(.75 0 0 .75 72 464.74916)" font-size="14.666667" font-family="ArialMT"><tspan y="13.757161" x="149.77298 157.92409 161.99607 166.06804">ett&#x00e4;</tspan></text>
<text xml:space="preserve" transform="matrix(.75 0 0 .75 72 464.74916)" font-size="14.666667" font-family="ArialMT"><tspan y="13.757161" x="178.29113 181.54727 189.69838 197.84949 205.17761 213.32872 216.58487 219.84102 227.99213 235.32025">lapsellasi</tspan></text>
<text xml:space="preserve" transform="matrix(.75 0 0 .75 72 464.74916)" font-size="14.666667" font-family="ArialMT"><tspan y="13.757161" x="242.64838 250.79949">on</tspan></text>
<text xml:space="preserve" transform="matrix(.75 0 0 .75 72 464.74916)" font-size="14.666667" font-family="ArialMT"><tspan y="13.757161" x="263.02259 267.09455 275.24568 280.1263 287.45445">tarve</tspan></text>
<text xml:space="preserve" transform="matrix(.75 0 0 .75 72 464.74916)" font-size="14.666667" font-family="ArialMT"><tspan y="13.757161" x="299.6775 302.93367">ja</tspan></text>
<text xml:space="preserve" transform="matrix(.75 0 0 .75 72 464.74916)" font-size="14.666667" font-family="ArialMT"><tspan y="13.757161" x="315.15675 323.30787 331.45899 334.71516">halu</tspan></text>
<text xml:space="preserve" transform="matrix(.75 0 0 .75 72 464.74916)" font-size="14.666667" font-family="ArialMT"><tspan y="13.757161" x="346.93818 350.19435 353.4505 356.70668 364.0348 371.3629 379.51405">liikkua</tspan></text>
<text xml:space="preserve" transform="matrix(.75 0 0 .75 72 464.74916)" font-size="14.666667" font-family="ArialMT"><tspan y="13.757161" x="391.73707 394.99324 399.0652 406.3933 414.54444 422.69557 430.84669 434.10285 441.43098 449.5821 456.91023 460.98219 464.23835">itsen&#x00e4;isesti?</tspan></text>
<text xml:space="preserve" transform="matrix(.75 0 0 .75 72 479.2954)" font-size="14.666667" font-family="ArialMT"><tspan y="13.757161" x="72 79.328128">c.</tspan></text>
<text xml:space="preserve" transform="matrix(.75 0 0 .75 72 479.2954)" font-size="14.666667" font-family="ArialMT"><tspan y="13.757161" x="96 108.20877 111.46492 115.536899 123.688">Miten</tspan></text>
<text xml:space="preserve" transform="matrix(.75 0 0 .75 72 479.2954)" font-size="14.666667" font-family="ArialMT"><tspan y="13.757161" x="135.91109 139.98307 148.13417 153.01482 160.34294 168.49405 176.64516 184.79627">t&#x00e4;rke&#x00e4;n&#x00e4;</tspan></text>
<text xml:space="preserve" transform="matrix(.75 0 0 .75 72 479.2954)" font-size="14.666667" font-family="ArialMT"><tspan y="13.757161" x="197.01935 205.17046 208.4266 216.57772 224.72882">pid&#x00e4;t</tspan></text>
<text xml:space="preserve" transform="matrix(.75 0 0 .75 72 479.2954)" font-size="14.666667" font-family="ArialMT"><tspan y="13.757161" x="232.87277 241.02388 249.17499 257.3261 265.47724">h&#x00e4;nen</tspan></text>
<text xml:space="preserve" transform="matrix(.75 0 0 .75 72 479.2954)" font-size="14.666667" font-family="ArialMT"><tspan y="13.757161" x="277.7003 289.90907 298.06019 306.2113 314.36244 322.51356 325.7697 329.02589 332.28205 339.61018 347.7613 355.9124 359.98439 364.05635 372.20747 380.35859">mahdollisuuttaan</tspan></text>
<text xml:space="preserve" transform="matrix(.75 0 0 .75 72 479.2954)" font-size="14.666667" font-family="ArialMT"><tspan y="13.757161" x="392.58155 395.8377 399.09388 402.35005 409.67817 417.0063 425.1574">liikkua</tspan></text>
<text xml:space="preserve" transform="matrix(.75 0 0 .75 72 479.2954)" font-size="14.666667" font-family="ArialMT"><tspan y="13.757161" x="437.38044 445.53157 457.74034 465.89143 469.96339 478.1145 481.37068 493.57945 496.83558 504.1637 512.3148 519.64297 523.7149 526.97109">omatoimisesti?</tspan></text>
<text xml:space="preserve" transform="matrix(.75 0 0 .75 72 493.84169)" font-size="14.666667" font-family="ArialMT"><tspan y="13.757161" x="72 80.15111">d.</tspan></text>
<text xml:space="preserve" transform="matrix(.75 0 0 .75 72 493.84169)" font-size="14.666667" font-family="ArialMT"><tspan y="13.757161" x="96 108.20877 111.46492 114.72107 118.793048">Milt&#x00e4;</tspan></text>
<text xml:space="preserve" transform="matrix(.75 0 0 .75 72 493.84169)" font-size="14.666667" font-family="Arial" font-weight="bold"><tspan y="13.757161" x="131.01613 135.89678 144.8494 153.80202 158.68267 167.63529">tuntuu</tspan></text>
<text xml:space="preserve" transform="matrix(.75 0 0 .75 72 493.84169)" font-size="14.666667" font-family="ArialMT"><tspan y="13.757161" x="180.65988 183.91603 192.06714 200.21825 208.36936 212.44133 216.5133 224.66442">l&#x00e4;hett&#x00e4;&#x00e4;</tspan></text>
<text xml:space="preserve" transform="matrix(.75 0 0 .75 72 493.84169)" font-size="14.666667" font-family="ArialMT"><tspan y="13.757161" x="236.8875 240.14365 248.29476 256.44587 263.774">lapsi</tspan></text>
<text xml:space="preserve" transform="matrix(.75 0 0 .75 72 493.84169)" font-size="14.666667" font-family="ArialMT"><tspan y="13.757161" x="271.1021 274.35829 278.43025 285.75837">itse</tspan></text>
<text xml:space="preserve" transform="matrix(.75 0 0 .75 72 493.84169)" font-size="14.666667" font-family="ArialMT"><tspan y="13.757161" x="297.98146 310.19023 318.3413 322.41328 329.7414 337.89253 346.04365 354.19477">matkaan?</tspan></text>
<text xml:space="preserve" transform="matrix(.75 0 0 .75 72 493.84169)" font-size="14.666667" font-family="ArialMT"><tspan y="13.757161" x="366.41786 376.19346 384.34455 388.4165">Ent&#x00e4;</tspan></text>
<text xml:space="preserve" transform="matrix(.75 0 0 .75 72 493.84169)" font-size="14.666667" font-family="ArialMT"><tspan y="13.757161" x="400.6396 412.84837 420.99946 425.0714 432.39955 440.55067">matkan</tspan></text>
<text xml:space="preserve" transform="matrix(.75 0 0 .75 72 493.84169)" font-size="14.666667" font-family="ArialMT"><tspan y="13.757161" x="452.77378 460.92488 464.18104 471.50917 479.66029 487.8114 495.96253">aikana?</tspan></text>
<text xml:space="preserve" transform="matrix(.75 0 0 .75 72 493.84169)" font-size="14.666667" font-family="ArialMT"><tspan y="13.757161" x="508.18556 515.5137 523.6648 531.8159 539.96707 543.2232 547.29519 551.3671 559.51828 567.6694 574.9975 583.1486">J&#x00e4;nnitt&#x00e4;&#x00e4;k&#x00f6;?</tspan></text>
<text xml:space="preserve" transform="matrix(.75 0 0 .75 72 508.38795)" font-size="14.666667" font-family="ArialMT"><tspan y="13.757161" x="112.671878 115.928028">i.</tspan></text>
<text xml:space="preserve" transform="matrix(.75 0 0 .75 72 508.38795)" font-size="14.666667" font-family="ArialMT"><tspan y="13.757161" x="144 156.20877 159.46492 162.72107 166.79305">Milt&#x00e4;</tspan></text>
<text xml:space="preserve" transform="matrix(.75 0 0 .75 72 508.38795)" font-size="14.666667" font-family="ArialMT"><tspan y="13.757161" x="179.01613 182.27228 190.42339 198.5745 205.90262 214.05373 221.38185 225.45383">lapsesta</tspan></text>
<text xml:space="preserve" transform="matrix(.75 0 0 .75 72 508.38795)" font-size="14.666667" font-family="ArialMT"><tspan y="13.757161" x="237.67691 241.74889 249.9 258.0511 262.12306 270.27418 278.4253">tuntuu?</tspan></text>
<text xml:space="preserve" transform="matrix(.75 0 0 .75 72 522.9342)" font-size="14.666667" font-family="ArialMT"><tspan y="13.757161" x="72 80.15111">e.</tspan></text>
<text xml:space="preserve" transform="matrix(.75 0 0 .75 72 522.9342)" font-size="14.666667" font-family="ArialMT"><tspan y="13.757161" x="96 107.4001 114.728229 122.87933 131.03044 138.35857">Osaako</tspan></text>
<text xml:space="preserve" transform="matrix(.75 0 0 .75 72 522.9342)" font-size="14.666667" font-family="ArialMT"><tspan y="13.757161" x="150.58165 153.8378 161.9889 170.14002 177.46814">lapsi</tspan></text>
<text xml:space="preserve" transform="matrix(.75 0 0 .75 72 522.9342)" font-size="14.666667" font-family="ArialMT"><tspan y="13.757161" x="184.79627 192.94738 201.09848 208.4266 211.68276 219.83386 227.98497 231.24112 239.39223">navigoida</tspan></text>
<text xml:space="preserve" transform="matrix(.75 0 0 .75 72 522.9342)" font-size="14.666667" font-family="ArialMT"><tspan y="13.757161" x="251.61531 254.87146 258.94343 266.27156 274.42268">itse?</tspan></text>
<text xml:space="preserve" transform="matrix(.75 0 0 .75 72 537.48049)" font-size="14.666667" font-family="ArialMT"><tspan y="13.757161" x="112.671878 115.928028">i.</tspan></text>
<text xml:space="preserve" transform="matrix(.75 0 0 .75 72 537.48049)" font-size="14.666667" font-family="ArialMT"><tspan y="13.757161" x="144 154.58428 162.73538 165.99153 170.0635 173.31966">Reitin</tspan></text>
<text xml:space="preserve" transform="matrix(.75 0 0 .75 72 537.48049)" font-size="14.666667" font-family="ArialMT"><tspan y="13.757161" x="185.54274 192.87087 201.02198 204.27812 207.53427 211.60625 218.93437 227.08548 239.29425 242.5504 250.7015 258.8526">valitseminen</tspan></text>
<text xml:space="preserve" transform="matrix(.75 0 0 .75 72 537.48049)" font-size="14.666667" font-family="ArialMT"><tspan y="13.757161" x="271.07569 279.2268 286.55494 289.8111 302.01988 310.17097 315.0516 322.37974 325.63587 332.964 340.2921">esimerkiksi</tspan></text>
<text xml:space="preserve" transform="matrix(.75 0 0 .75 72 537.48049)" font-size="14.666667" font-family="ArialMT"><tspan y="13.757161" x="347.62025 352.5009 360.65199 363.90815 367.9801 372.05207 375.30824 383.45936 391.61048 399.7616 407.91273 416.06385">reittioppaan</tspan></text>
<text xml:space="preserve" transform="matrix(.75 0 0 .75 72 537.48049)" font-size="14.666667" font-family="ArialMT"><tspan y="13.757161" x="428.28688 436.438 443.7661 451.91725 455.1734 458.42958 466.5807">avulla.</tspan></text>
<text xml:space="preserve" transform="matrix(.75 0 0 .75 72 537.48049)" font-size="14.666667" font-family="ArialMT"><tspan y="13.757161" x="474.72459 483.41163 491.56275 494.8189 507.02769 510.2838 517.61196 521.6839 529.835 533.0912 541.2423 545.3143">Valmistelut.</tspan></text>
<text xml:space="preserve" transform="matrix(.75 0 0 .75 72 552.02676)" font-size="14.666667" font-family="ArialMT"><tspan y="13.757161" x="109.415729 112.671878 115.928028">ii.</tspan></text>
<text xml:space="preserve" transform="matrix(.75 0 0 .75 72 552.02676)" font-size="14.666667" font-family="ArialMT"><tspan y="13.757161" x="144 156.20877 159.46492 162.72107 165.97722 174.12833 177.38448 185.53559 193.68669">Millainen</tspan></text>
<text xml:space="preserve" transform="matrix(.75 0 0 .75 72 552.02676)" font-size="14.666667" font-family="ArialMT"><tspan y="13.757161" x="205.90978 218.11855 226.26966 230.34163 237.66976 245.82086 249.07701 252.33316 260.48426 268.63539">matkalippu</tspan></text>
<text xml:space="preserve" transform="matrix(.75 0 0 .75 72 552.02676)" font-size="14.666667" font-family="ArialMT"><tspan y="13.757161" x="280.85847 288.18659 296.3377 303.66584 307.7378 315.88893 323.21705 330.54518 338.6963">k&#x00e4;yt&#x00f6;ss&#x00e4;?</tspan></text>
<text xml:space="preserve" transform="matrix(.75 0 0 .75 72 566.573)" font-size="14.666667" font-family="ArialMT"><tspan y="13.757161" x="106.15958 109.415729 112.671878 115.928028">iii.</tspan></text>
<text xml:space="preserve" transform="matrix(.75 0 0 .75 72 566.573)" font-size="14.666667" font-family="Arial" font-weight="bold"><tspan y="13.757161" x="144 153.7756 162.72823 171.68085 179.83196 183.90393 187.9759 201.00766 209.15877">Puhelimen</tspan></text>
<text xml:space="preserve" transform="matrix(.75 0 0 .75 72 566.573)" font-size="14.666667" font-family="Arial" font-weight="bold"><tspan y="13.757161" x="222.18337 230.33448 238.48558 246.63669 251.51734 256.39799">k&#x00e4;ytt&#x00f6;</tspan></text>
<text xml:space="preserve" transform="matrix(.75 0 0 .75 72 566.573)" font-size="14.666667" font-family="ArialMT"><tspan y="13.757161" x="269.42259 281.63136 289.78248 297.9336 302.00556 310.15669 318.3078 325.63594 328.8921">muutenkin</tspan></text>
<text xml:space="preserve" transform="matrix(.75 0 0 .75 72 595.6655)" font-size="14.666667" font-family="ArialMT"><tspan y="13.757161" x="24 32.151109">3.</tspan></text>
<text xml:space="preserve" transform="matrix(.75 0 0 .75 72 595.6655)" font-size="14.666667" font-family="ArialMT"><tspan y="13.757161" x="48 56.151109 59.407258 62.663408 69.99153 77.31966 85.470767 97.679538 100.935688 109.08679 117.2379">Liikkuminen</tspan></text>
<text xml:space="preserve" transform="matrix(.75 0 0 .75 72 595.6655)" font-size="14.666667" font-family="ArialMT"><tspan y="13.757161" x="129.46099 137.61209 145.7632 150.64385 158.79496 166.94606 175.09717">perheen</tspan></text>
<text xml:space="preserve" transform="matrix(.75 0 0 .75 72 595.6655)" font-size="14.666667" font-family="ArialMT"><tspan y="13.757161" x="187.32025 194.64838 202.79949 210.95059 218.27872 225.60684">kanssa</tspan></text>
<text xml:space="preserve" transform="matrix(.75 0 0 .75 72 595.6655)" font-size="14.666667" font-family="ArialMT"><tspan y="13.757161" x="237.82993 245.15805 253.30916 261.46028 269.6114 276.9395 284.26765">yhdess&#x00e4;</tspan></text>
<text xml:space="preserve" transform="matrix(.75 0 0 .75 72 610.2118)" font-size="14.666667" font-family="ArialMT"><tspan y="13.757161" x="72 80.15111">a.</tspan></text>
<text xml:space="preserve" transform="matrix(.75 0 0 .75 72 610.2118)" font-size="14.666667" font-family="ArialMT"><tspan y="13.757161" x="96 108.20877 111.46492 115.536899 123.688 131.83911">Miten?</tspan></text>
<text xml:space="preserve" transform="matrix(.75 0 0 .75 72 610.2118)" font-size="14.666667" font-family="ArialMT"><tspan y="13.757161" x="144.0622 156.27097 159.52712 167.67823 175.82933 183.98044">Minne?</tspan></text>
<text xml:space="preserve" transform="matrix(.75 0 0 .75 72 610.2118)" font-size="14.666667" font-family="ArialMT"><tspan y="13.757161" x="196.20352 208.4123 211.66844 218.99657 226.32469">Miksi</tspan></text>
<text xml:space="preserve" transform="matrix(.75 0 0 .75 72 610.2118)" font-size="14.666667" font-family="ArialMT"><tspan y="13.757161" x="233.65282 241.80393 249.95503 253.21118 261.3623">n&#x00e4;in?</tspan></text>
<text xml:space="preserve" transform="matrix(.75 0 0 .75 72 624.75808)" font-size="14.666667" font-family="ArialMT"><tspan y="13.757161" x="72 80.15111">b.</tspan></text>
<text xml:space="preserve" transform="matrix(.75 0 0 .75 72 624.75808)" font-size="14.666667" font-family="ArialMT"><tspan y="13.757161" x="96 104.68706 112.838169 116.094318 123.42244 131.57355 135.64553 139.7175 147.8686 156.01972 163.34784">Vaikuttaako</tspan></text>
<text xml:space="preserve" transform="matrix(.75 0 0 .75 72 624.75808)" font-size="14.666667" font-family="ArialMT"><tspan y="13.757161" x="175.57093 178.82707 182.08322 190.23433 198.38544 206.53655 209.7927 217.9438">lippujen</tspan></text>
<text xml:space="preserve" transform="matrix(.75 0 0 .75 72 624.75808)" font-size="14.666667" font-family="ArialMT"><tspan y="13.757161" x="230.16689 238.318 241.57415 249.72525 257.87635 266.02748">hinnat</tspan></text>
<text xml:space="preserve" transform="matrix(.75 0 0 .75 72 624.75808)" font-size="14.666667" font-family="ArialMT"><tspan y="13.757161" x="274.17143 282.3225 290.47364 298.62477 302.69673 310.84785 318.17597 325.5041 328.76026 332.01643 340.16755">p&#x00e4;&#x00e4;t&#x00f6;ksiin?</tspan></text>
<text xml:space="preserve" transform="matrix(.75 0 0 .75 72 653.8506)" font-size="14.666667" font-family="ArialMT"><tspan y="13.757161" x="24 32.151109">4.</tspan></text>
<text xml:space="preserve" transform="matrix(.75 0 0 .75 72 653.8506)" font-size="14.666667" font-family="ArialMT"><tspan y="13.757161" x="48 60.20877 63.46492 70.793048">Mik&#x00e4;</tspan></text>
<text xml:space="preserve" transform="matrix(.75 0 0 .75 72 653.8506)" font-size="14.666667" font-family="ArialMT"><tspan y="13.757161" x="83.01613 90.34425 98.49536 101.75151 109.079639">saisi</tspan></text>
<text xml:space="preserve" transform="matrix(.75 0 0 .75 72 653.8506)" font-size="14.666667" font-family="ArialMT"><tspan y="13.757161" x="116.40776 120.47974 128.63085 131.887 140.0381 148.18921">teid&#x00e4;n</tspan></text>
<text xml:space="preserve" transform="matrix(.75 0 0 .75 72 653.8506)" font-size="14.666667" font-family="ArialMT"><tspan y="13.757161" x="160.4123 168.5634 176.71451 181.59516 189.74626 197.89737 206.04848 214.19959 217.45574 225.60684 232.93497 241.08608 249.23719 252.49333">perheenj&#x00e4;seni&#x00e4;</tspan></text>
<text xml:space="preserve" transform="matrix(.75 0 0 .75 72 653.8506)" font-size="14.666667" font-family="ArialMT"><tspan y="13.757161" x="264.71644 272.04457 280.19569 287.5238 291.59577 295.66773 303.81886 316.02763 324.1787 332.32984">k&#x00e4;ytt&#x00e4;m&#x00e4;&#x00e4;n</tspan></text>
<text xml:space="preserve" transform="matrix(.75 0 0 .75 72 653.8506)" font-size="14.666667" font-family="ArialMT"><tspan y="13.757161" x="344.55293 349.43357 357.58467 365.73579 373.8869 386.09568 398.30445 406.45558 414.6067">(enemm&#x00e4;n)</tspan></text>
<text xml:space="preserve" transform="matrix(.75 0 0 .75 72 653.8506)" font-size="14.666667" font-family="ArialMT"><tspan y="13.757161" x="423.55928 426.81544 434.96656 438.22273 445.55085 448.807 456.13514 460.2071">julkista</tspan></text>
<text xml:space="preserve" transform="matrix(.75 0 0 .75 72 653.8506)" font-size="14.666667" font-family="ArialMT"><tspan y="13.757161" x="472.4301 475.68629 478.94245 482.1986 489.52674 497.67787 505.82899 513.9801 522.1312 526.2032 530.27517 538.4263">liikennett&#x00e4;?</tspan></text>
<text xml:space="preserve" transform="matrix(.75 0 0 .75 72 682.9431)" font-size="14.666667" font-family="Arial" font-weight="bold"><tspan y="13.757161" x="0 8.952621 17.905243 26.857865 35.810487 43.961595 52.1127">Lopuksi</tspan></text>
<text fill="#4a86e8" xml:space="preserve" transform="matrix(.75 0 0 .75 72 697.4894)" font-size="14.666667" font-family="ArialMT"><tspan y="13.757161" x="48 57.775606 65.10373 72.431858 80.58296">Pyyd&#x00e4;</tspan></text>
<text fill="#4a86e8" xml:space="preserve" transform="matrix(.75 0 0 .75 72 697.4894)" font-size="14.666667" font-family="ArialMT"><tspan y="13.757161" x="92.806049 96.062198 104.2133 107.46945 111.54143 115.6134 123.76451 135.97328 144.12439 152.2755">laittamaan</tspan></text>
<text fill="#4a86e8" xml:space="preserve" transform="matrix(.75 0 0 .75 72 697.4894)" font-size="14.666667" font-family="ArialMT"><tspan y="13.757161" x="164.49858 175.08286 183.23397 191.38507 199.53618">Hanna</tspan></text>
<text fill="#4a86e8" xml:space="preserve" transform="matrix(.75 0 0 .75 72 697.4894)" font-size="14.666667" font-family="ArialMT"><tspan y="13.757161" x="211.75926 222.34354 230.49465 242.70342 250.85453 254.11067 262.26179 265.51795 272.84608 280.9972 284.25337 287.50953">H&#x00e4;m&#x00e4;l&#x00e4;iselle</tspan></text>
<text fill="#4a86e8" xml:space="preserve" transform="matrix(.75 0 0 .75 72 697.4894)" font-size="14.666667" font-family="ArialMT"><tspan y="13.757161" x="299.73255 307.06068 315.2118 323.3629 330.69105 338.84217 346.9933 355.1444 362.47254 366.5445 369.80067 373.05683 376.313">s&#x00e4;hk&#x00f6;postilla</tspan></text>
<text fill="#4a86e8" xml:space="preserve" transform="matrix(.75 0 0 .75 72 697.4894)" font-size="14.666667" font-family="ArialMT"><tspan y="13.757161" x="388.53596 395.86408 404.0152 408.08717 411.34333 419.49446 426.82258 434.9737 438.22987 442.30183">kotiosoite</tspan></text>
<text fill="#4a86e8" xml:space="preserve" transform="matrix(.75 0 0 .75 72 697.4894)" font-size="14.666667" font-family="ArialMT"><tspan y="13.757161" x="454.52488 457.781 465.93214 474.08326 477.33943 485.49055 492.81867 500.9698 505.85044 509.92243 513.9944 517.25057 525.4017">lahjakorttien</tspan></text>
<text fill="#4a86e8" xml:space="preserve" transform="matrix(.75 0 0 .75 72 712.03567)" font-size="14.666667" font-family="ArialMT"><tspan y="13.757161" x="48 51.25615 59.407258 67.558368 75.70947 79.78145 83.853427 92.00453 104.2133 107.46945 114.79758 118.86955">l&#x00e4;hett&#x00e4;mist&#x00e4;</tspan></text>
<text fill="#4a86e8" xml:space="preserve" transform="matrix(.75 0 0 .75 72 712.03567)" font-size="14.666667" font-family="ArialMT"><tspan y="13.757161" x="131.09264 138.42076 146.57187 151.45252 155.52449 163.6756">varten</tspan></text>
<text fill="#4a86e8" xml:space="preserve" transform="matrix(.75 0 0 .75 72 712.03567)" font-size="14.666667" font-family="ArialMT"><tspan y="13.757161" x="175.89868 180.77933 188.93044 197.08155 205.23265 213.38376 221.53487 225.60684 233.75795 241.90906 254.11783 262.26893 265.5251 273.6762 276.93238 285.0835 293.23463 301.38575 316.26387 324.41499 331.7431 334.99928 339.07124 343.1432 346.39936">(hanna.hamalainen@hsl.fi)</tspan></text>
</svg>
