<?xml version="1.0" encoding="UTF-8" standalone="no"?>
<!DOCTYPE svg PUBLIC "-//W3C//DTD SVG 1.1//EN" "http://www.w3.org/Graphics/SVG/1.1/DTD/svg11.dtd">
<svg width="100%" height="100%" viewBox="0 0 571 369" version="1.1" xmlns="http://www.w3.org/2000/svg" xmlns:xlink="http://www.w3.org/1999/xlink" xml:space="preserve" xmlns:serif="http://www.serif.com/" style="fill-rule:evenodd;clip-rule:evenodd;stroke-linejoin:round;stroke-miterlimit:2;">
    <g transform="matrix(1,0,0,1,-1265,-147)">
        <g id="Whiteboard" transform="matrix(1,0,0,1,6.48926,-24.1031)">
            <rect x="1259.42" y="171.591" width="569.261" height="368.409" style="fill:#f2eeeb;"/>
            <g id="Whiteboard1" serif:id="Whiteboard" transform="matrix(0.953195,0,0,0.923474,72.269,27.2276)">
                <rect x="1259.42" y="171.591" width="569.261" height="368.409" style="fill:#f2eeeb;"/>
            </g>
            <g id="Post-it" transform="matrix(0.336705,-0.0647288,0.0703032,0.365702,1460.7,70.8969)">
                <rect x="496.604" y="630.863" width="107.697" height="107.697" style="fill:#f7b86e;"/>
                <clipPath id="_clip1">
                    <rect x="496.604" y="630.863" width="107.697" height="107.697"/>
                </clipPath>
                <g clip-path="url(#_clip1)">
                    <g transform="matrix(1,0,0,1,-9.51339,-45.1207)">
                        <rect x="506.118" y="675.984" width="107.697" height="17.399" style="fill:#ecb26c;"/>
                    </g>
                    <g transform="matrix(3.35989,0,0,3.25816,-1458.05,-1814.8)">
                        <path d="M608.767,783.681L613.815,779.662L613.815,783.681" style="fill:#edb067;"/>
                    </g>
                </g>
            </g>
            <g id="Post-it1" serif:id="Post-it" transform="matrix(0.337822,0.0586245,-0.0636732,0.366914,1490.02,27.3274)">
                <rect x="496.604" y="630.863" width="107.697" height="107.697" style="fill:#9cb1f2;"/>
                <clipPath id="_clip2">
                    <rect x="496.604" y="630.863" width="107.697" height="107.697"/>
                </clipPath>
                <g clip-path="url(#_clip2)">
                    <g transform="matrix(1,0,0,1,-9.51339,-45.1207)">
                        <rect x="506.118" y="675.984" width="107.697" height="17.399" style="fill:#a0a0ff;"/>
                    </g>
                    <g transform="matrix(3.35989,0,0,3.25816,-1458.05,-1814.8)">
                        <path d="M608.767,783.681L613.815,779.662L613.815,783.681" style="fill:#9c97ff;"/>
                    </g>
                </g>
            </g>
            <g transform="matrix(0.866025,0.5,-0.5,0.866025,340.18,-767.977)">
                <g transform="matrix(0.66969,-0.386646,0.386646,0.66969,463.386,695.937)">
                    <circle cx="1764.86" cy="192.195" r="13.771" style="fill:#b39b8c;"/>
                </g>
                <g transform="matrix(0.72673,0,0,0.65191,468.522,51.3389)">
                    <rect x="1683.68" y="130.641" width="98.495" height="16.846" style="fill:#e0d8cd;"/>
                </g>
                <g transform="matrix(0.21533,0,0,0.65191,1308.35,51.3389)">
                    <rect x="1683.68" y="130.641" width="98.495" height="16.846" style="fill:#d15b6f;"/>
                </g>
            </g>
            <g transform="matrix(-0.5,0.866025,-0.866025,-0.5,2813.42,-1203.85)">
                <path d="M1763.26,197.795C1762.45,199.264 1761.79,201.58 1761.79,204.092C1761.79,206.603 1762.45,208.919 1763.26,210.388C1760.56,210.388 1758.38,207.567 1758.38,204.092C1758.38,200.617 1760.56,197.795 1763.26,197.795Z" style="fill:#b39b8c;"/>
            </g>
            <g transform="matrix(0.5,-0.866025,0.866025,0.5,704.032,1633.43)">
                <path d="M1763.26,197.795C1762.45,199.264 1761.79,201.58 1761.79,204.092C1761.79,206.603 1762.45,208.919 1763.26,210.388C1760.56,210.388 1758.38,207.567 1758.38,204.092C1758.38,200.617 1760.56,197.795 1763.26,197.795Z" style="fill:#b39b8c;"/>
            </g>
        </g>
    </g>
</svg>
